<?xml version="1.0" encoding="UTF-8"?>
<svg id="Layer_2" data-name="Layer 2" xmlns="http://www.w3.org/2000/svg" viewBox="0 0 97.38 85.04">
  <defs>
    <style>
      .cls-1 {
        fill: #c37b89;
      }

      .cls-2 {
        fill: #089276;
      }

      .cls-3 {
        fill: #fdfbde;
      }

      .cls-4 {
        fill: #143b3f;
      }

      .cls-5 {
        fill: #eaefee;
      }

      .cls-6 {
        fill: #d1e8e4;
      }

      .cls-7 {
        fill: #f7a8aa;
      }

      .cls-8 {
        fill: #d9bf76;
      }
    </style>
  </defs>
  <g id="Layer_1-2" data-name="Layer 1">
    <g>
      <g id="expand">
        <g>
          <path class="cls-4" d="M67,37.68l-1.49.55c-1.74-5.75-3.84-12.03-5.02-14.73-4.64-10.58-11.96-16.98-16.14-20.09,3.38,2.06,9.29,6.27,14.17,13.65,3.03,4.58,6.25,13.36,8.49,20.62Z"/>
          <path class="cls-4" d="M65.49,38.28v-.04c-1.61-5.27-3.78-11.87-5.04-14.73-3.44-7.83-9.01-14.77-16.13-20.08l.05-.07c5.64,3.44,10.54,8.16,14.18,13.67,3.6,5.45,7.14,16.24,8.5,20.63v.04s-1.56.58-1.56.58ZM45.1,3.93c6.78,5.24,12.1,11.98,15.42,19.55,1.25,2.85,3.42,9.43,5.01,14.69l1.41-.52c-1.36-4.41-4.89-15.15-8.47-20.57-3.46-5.24-8.07-9.77-13.38-13.15Z"/>
        </g>
        <path class="cls-4" d="M69.74,48.16c-.49.14-.97.29-1.46.43-.2-1.53-1.24-5.4-2.54-9.76l1.49-.55c1.38,4.57,2.32,8.37,2.51,9.88Z"/>
        <path class="cls-4" d="M39.16,48.65c-.51,0-.93-.17-1.22-.51-.24-.28-.35-.7-.3-1.14.06-.56.36-1.08.83-1.43,5.93-6.95,8.31-13.06,7.09-18.17-.54-2.26-1.68-3.95-2.79-5.6-1.38-2.05-2.8-4.16-2.97-7.31-.19-3.64,1.35-7.4,4.58-11.16l.19.16c-3.19,3.71-4.71,7.41-4.52,10.98.16,3.07,1.5,5.07,2.92,7.18,1.12,1.66,2.28,3.38,2.83,5.68.55,2.29.39,4.8-.47,7.45-1.09,3.35-3.34,7.04-6.68,10.95l-.02.02c-.42.31-.69.78-.74,1.27-.04.38.05.72.24.95.32.37.85.51,1.5.37,1.08-.22,2.12-1.1,2.42-2.05l.24.08c-.38,1.19-1.6,2.01-2.61,2.22-.18.04-.35.05-.52.05Z"/>
        <path class="cls-4" d="M62.64,42.51c-1.54,0-2.79-1.25-2.79-2.79s1.25-2.79,2.79-2.79,2.79,1.25,2.79,2.79-1.25,2.79-2.79,2.79ZM62.64,37.18c-1.4,0-2.54,1.14-2.54,2.54s1.14,2.54,2.54,2.54,2.54-1.14,2.54-2.54-1.14-2.54-2.54-2.54Z"/>
        <path class="cls-4" d="M62.64,41.18c-.8,0-1.46-.65-1.46-1.46s.65-1.46,1.46-1.46,1.46.65,1.46,1.46-.65,1.46-1.46,1.46ZM62.64,38.52c-.66,0-1.2.54-1.2,1.2s.54,1.2,1.2,1.2,1.2-.54,1.2-1.2-.54-1.2-1.2-1.2Z"/>
        <g>
          <circle class="cls-1" cx="62.64" cy="39.72" r=".67"/>
          <path class="cls-4" d="M62.64,40.51c-.44,0-.79-.36-.79-.79s.36-.79.79-.79.79.36.79.79-.36.79-.79.79ZM62.64,39.18c-.3,0-.54.24-.54.54s.24.54.54.54.54-.24.54-.54-.24-.54-.54-.54Z"/>
        </g>
        <g>
          <circle class="cls-1" cx="63.97" cy="38.2" r=".67"/>
          <path class="cls-4" d="M63.97,38.99c-.44,0-.79-.36-.79-.79s.36-.79.79-.79.79.36.79.79-.36.79-.79.79ZM63.97,37.66c-.3,0-.54.24-.54.54s.24.54.54.54.54-.24.54-.54-.24-.54-.54-.54Z"/>
        </g>
        <g>
          <circle class="cls-1" cx="64.24" cy="40.85" r=".67"/>
          <path class="cls-4" d="M64.24,41.64c-.44,0-.79-.36-.79-.79s.36-.79.79-.79.79.36.79.79-.36.79-.79.79ZM64.24,40.31c-.3,0-.54.24-.54.54s.24.54.54.54.54-.24.54-.54-.24-.54-.54-.54Z"/>
        </g>
        <g>
          <circle class="cls-1" cx="64.59" cy="39.48" r=".67"/>
          <path class="cls-4" d="M64.59,40.27c-.44,0-.79-.36-.79-.79s.36-.79.79-.79.79.36.79.79-.36.79-.79.79ZM64.59,38.94c-.3,0-.54.24-.54.54s.24.54.54.54.54-.24.54-.54-.24-.54-.54-.54Z"/>
        </g>
        <g>
          <circle class="cls-1" cx="63.14" cy="41.72" r=".67"/>
          <path class="cls-4" d="M63.14,42.51c-.44,0-.79-.36-.79-.79s.36-.79.79-.79.79.36.79.79-.36.79-.79.79ZM63.14,41.18c-.3,0-.54.24-.54.54s.24.54.54.54.54-.24.54-.54-.24-.54-.54-.54Z"/>
        </g>
        <g>
          <circle class="cls-1" cx="61.81" cy="41.52" r=".67"/>
          <path class="cls-4" d="M61.81,42.31c-.44,0-.79-.36-.79-.79s.36-.79.79-.79.79.36.79.79-.36.79-.79.79ZM61.81,40.98c-.3,0-.54.24-.54.54s.24.54.54.54.54-.24.54-.54-.24-.54-.54-.54Z"/>
        </g>
        <g>
          <circle class="cls-1" cx="61.31" cy="38.2" r=".67"/>
          <path class="cls-4" d="M61.31,38.99c-.44,0-.79-.36-.79-.79s.36-.79.79-.79.79.36.79.79-.36.79-.79.79ZM61.31,37.66c-.3,0-.54.24-.54.54s.24.54.54.54.54-.24.54-.54-.24-.54-.54-.54Z"/>
        </g>
        <g>
          <circle class="cls-1" cx="60.64" cy="39.24" r=".67"/>
          <path class="cls-4" d="M60.64,40.03c-.44,0-.79-.36-.79-.79s.36-.79.79-.79.79.36.79.79-.36.79-.79.79ZM60.64,38.7c-.3,0-.54.24-.54.54s.24.54.54.54.54-.24.54-.54-.24-.54-.54-.54Z"/>
        </g>
        <g>
          <circle class="cls-1" cx="60.91" cy="40.58" r=".67"/>
          <path class="cls-4" d="M60.91,41.37c-.44,0-.79-.36-.79-.79s.36-.79.79-.79.79.36.79.79-.36.79-.79.79ZM60.91,40.04c-.3,0-.54.24-.54.54s.24.54.54.54.54-.24.54-.54-.24-.54-.54-.54Z"/>
        </g>
        <g>
          <circle class="cls-1" cx="39.52" cy="44.52" r=".67"/>
          <path class="cls-4" d="M39.52,45.32c-.44,0-.79-.36-.79-.79s.36-.79.79-.79.79.36.79.79-.36.79-.79.79ZM39.52,43.98c-.3,0-.54.24-.54.54s.24.54.54.54.54-.24.54-.54-.24-.54-.54-.54Z"/>
        </g>
        <g>
          <circle class="cls-1" cx="62.64" cy="37.72" r=".67"/>
          <path class="cls-4" d="M62.64,38.52c-.44,0-.79-.36-.79-.79s.36-.79.79-.79.79.36.79.79-.36.79-.79.79ZM62.64,37.18c-.3,0-.54.24-.54.54s.24.54.54.54.54-.24.54-.54-.24-.54-.54-.54Z"/>
        </g>
        <g>
          <path class="cls-4" d="M42.5,45.29c-.01.49-.3,1.01-.7,1.3-.24.17-.46.22-.59.23.15.17.3.35.44.52.14-.13.45-.44.66-.88.29-.6.2-1.04.17-1.16Z"/>
          <path class="cls-4" d="M41.66,47.39l-.53-.61h.08c.14-.02.35-.08.57-.23.39-.28.67-.79.68-1.26v-.31s.08.3.08.3c.05.2.09.63-.18,1.19-.2.41-.47.71-.67.9l-.03.03ZM41.3,46.84l.37.43c.19-.18.44-.47.62-.84.15-.32.2-.6.2-.8-.1.39-.34.76-.66.99-.2.14-.39.2-.53.23Z"/>
        </g>
        <g id="_Fish_" data-name="&amp;lt;Fish&amp;gt;">
          <g>
            <path class="cls-6" d="M41.39,59.97c0,1.39-1.21-.33-1.21-.33,0,0-1.21,1.73-1.21.33s1.21-2.52,1.21-2.52c0,0,1.21,1.13,1.21,2.52Z"/>
            <path class="cls-4" d="M41.15,60.64c-.33,0-.75-.49-.97-.79-.24.32-.72.88-1.06.77-.27-.09-.27-.51-.27-.65,0-1.43,1.19-2.56,1.25-2.61l.09-.08.09.08c.05.05,1.25,1.18,1.25,2.61,0,.14,0,.57-.27.65-.03,0-.06.01-.09.01ZM40.18,59.41l.1.15c.3.43.73.87.88.82.04-.01.1-.11.1-.41,0-1.1-.81-2.05-1.08-2.34-.27.29-1.08,1.24-1.08,2.34,0,.3.06.4.1.41.15.05.58-.4.88-.82l.1-.15Z"/>
          </g>
          <g>
            <path class="cls-6" d="M40.18,51.76l-5.04,1.21s2.26-2.41,5.04-2.41,5.04,2.41,5.04,2.41l-5.04-1.21Z"/>
            <path class="cls-4" d="M45.6,53.18l-5.42-1.3-5.42,1.3.29-.31c.09-.1,2.33-2.45,5.13-2.45s5.04,2.35,5.13,2.45l.29.31ZM40.18,50.68c-2.09,0-3.9,1.41-4.62,2.05l4.62-1.1h.03s4.59,1.1,4.59,1.1c-.72-.65-2.53-2.05-4.62-2.05Z"/>
          </g>
          <g>
            <path class="cls-6" d="M42.59,52.41c0,2.78-2.41,5.04-2.41,5.04,0,0-2.41-2.26-2.41-5.04s2.41-5.04,2.41-5.04c0,0,2.41,2.26,2.41,5.04Z"/>
            <path class="cls-4" d="M40.18,57.62l-.09-.08c-.1-.09-2.45-2.33-2.45-5.13s2.35-5.04,2.45-5.13l.09-.08.09.08c.1.09,2.45,2.33,2.45,5.13s-2.35,5.04-2.45,5.13l-.09.08ZM40.18,47.54c-.43.43-2.28,2.46-2.28,4.86s1.86,4.43,2.28,4.86c.43-.43,2.28-2.46,2.28-4.86s-1.86-4.43-2.28-4.86Z"/>
          </g>
          <g>
            <circle class="cls-6" cx="40.72" cy="49.22" r=".33"/>
            <path class="cls-4" d="M40.72,49.68c-.25,0-.46-.21-.46-.46s.21-.46.46-.46.46.21.46.46-.21.46-.46.46ZM40.72,49.01c-.11,0-.21.09-.21.21s.09.21.21.21.21-.09.21-.21-.09-.21-.21-.21Z"/>
          </g>
          <g>
            <path class="cls-4" d="M40.98,50.21c-.52.25-1.28.29-1.89.1-.37-.11-.59-.28-.7-.38-.06.22-.12.44-.19.66.25.05.81.15,1.43.09.85-.08,1.24-.39,1.34-.48Z"/>
            <path class="cls-4" d="M39.25,50.74c-.42,0-.79-.06-1.05-.11h-.04s.22-.78.22-.78l.05.04c.12.11.34.26.68.37.6.19,1.35.15,1.85-.1l.27-.13-.23.2c-.17.15-.57.42-1.36.49-.13.01-.27.02-.39.02ZM38.26,50.56c.34.07.84.13,1.38.08.47-.04.8-.16,1.02-.27-.48.13-1.08.13-1.57-.02-.31-.1-.53-.23-.66-.34l-.16.55Z"/>
          </g>
        </g>
        <rect class="cls-4" x="38.36" y="52.47" width="3.64" height=".25"/>
        <rect class="cls-4" x="38.73" y="53.18" width="2.91" height=".25"/>
        <rect class="cls-4" x="39.02" y="53.9" width="2.33" height=".25"/>
        <rect class="cls-4" x="39.25" y="54.61" width="1.86" height=".25"/>
        <rect class="cls-4" x="39.44" y="55.33" width="1.49" height=".25"/>
        <rect class="cls-4" x="39.59" y="56.04" width="1.19" height=".25"/>
      </g>
      <g>
        <path class="cls-4" d="M82.52,70.94c-.11.89-.74,2.04-1.82,3.24-.2.23-.55.25-.78.04-.23-.2-.25-.55-.04-.78,1.44-1.6,1.69-2.76,1.5-3-.06-.07-.24-.16-.51-.18-.31-.02-.61.06-.76.21-.09.09-.1.18-.12.51-.01.34-.03.81-.3,1.34-.47.93-1.61,1.81-2.85,1.7-1.62-.15-2.72-1.86-2.62-3.29.07-.92.65-1.82,1.63-2.53.45-.32.87-.48,1.2-.6.4-.15.58-.22.71-.44.15-.25.19-.59.1-1.02-.17-.72-.49-1.37-.9-1.9-.06.33-.13.64-.22.93-.52,1.75-1.53,3.01-2.64,3.3-.89.23-2.05-.11-3.02-.89-.95-.77-1.47-1.76-1.43-2.72.03-.72.38-1.4,1.02-1.98.93-.84,2.36-1.34,3.64-1.27.55.03,1.07.17,1.57.39-.12-.66-.37-1.28-.81-1.77-1.25-1.37-3.87-1.7-5.29-.66-1.41,1.03-1.05,3.48-.67,6.06.43,2.93.93,6.24-1.18,8.26-2.39,2.29-6.47,1.32-7.27,1.11-4.82-1.32-6.43-6.18-6.7-7.14-.23-.8-.43-1.87-.49-3.02-1.87-1.81-2.87-4.18-2.63-6.28.13-1.12.59-2.16,1.22-3.07-.52-1.01-.6-2.21-.2-3.29.64-1.73,2.53-2.87,4.58-2.77.3.01.54.27.53.58-.01.3-.27.54-.58.53-1.58-.07-3.02.77-3.5,2.06-.23.61-.24,1.3-.04,1.93.65-.69,1.38-1.26,2.09-1.66,1.14-.64,2.17-.81,2.88-.48.51.24.9.74,1.12,1.42.27.85.2,1.8-.19,2.49-.81,1.43-2.75,1.52-3.76,1.34-.35-.06-1.39-.31-2.25-1.18-.42.68-.72,1.42-.81,2.2,0,.01,0,.02,0,.03-.17,1.47.41,3.12,1.55,4.54.15-1.9.81-3.74,2.48-4.65,1.43-.79,3.51-.8,5.29-.04,1.38.59,2.35,1.58,2.64,2.7.25.95.05,2.05-.58,3.1-.82,1.37-2.19,2.44-3.59,2.78-1.55.38-3.38-.09-5.05-1.26.09.69.22,1.29.34,1.72.24.86,1.68,5.22,5.93,6.38.69.19,4.25,1.04,6.21-.84,1.69-1.62,1.26-4.51.85-7.3-.43-2.92-.84-5.69,1.11-7.12,1.86-1.36,5.15-.97,6.76.81.82.91,1.15,2.1,1.18,3.27.89.77,1.57,1.86,1.87,3.13v.02c.15.72.07,1.34-.24,1.83-.34.54-.81.72-1.26.89-.3.11-.61.23-.94.47-.41.3-1.12.91-1.18,1.71-.06.88.67,2.03,1.62,2.11.72.07,1.47-.51,1.77-1.1.16-.31.17-.59.18-.88.01-.38.03-.86.45-1.27.38-.36.98-.55,1.6-.51.55.04,1.03.25,1.3.6.24.31.33.71.27,1.19ZM70.78,64.8s0,.06,0,.1c-.03.6.35,1.28,1.02,1.81.68.55,1.5.82,2.05.68.71-.18,1.46-1.21,1.86-2.54.14-.46.24-1,.27-1.56-.52-.34-1.1-.55-1.7-.58-.98-.06-2.12.34-2.84.98-.27.24-.59.63-.65,1.11ZM54.58,64.34c1.58,1.39,3.46,2.04,4.91,1.69,1.1-.27,2.24-1.16,2.9-2.27.47-.79.63-1.59.46-2.25-.21-.79-.94-1.51-2.01-1.97-1.46-.63-3.19-.63-4.32,0-1.58.87-1.98,2.92-1.94,4.81ZM53.44,55.54c.64.75,1.5.95,1.77,1,.79.14,2.14.04,2.61-.79.24-.42.28-1.05.1-1.61-.12-.38-.32-.66-.54-.76-.27-.13-.93-.09-1.88.44-.7.39-1.44.99-2.06,1.73Z"/>
        <g>
          <path class="cls-4" d="M57.37,51.55c-.42-.1-.82-.43-.99-.82-.11-.23-.11-.43-.1-.54-.17.1-.35.2-.52.29.09.15.3.46.64.72.47.35.86.35.97.35Z"/>
          <path class="cls-4" d="M57.64,51.57h-.27c-.18.02-.56-.01-.99-.34-.32-.24-.53-.53-.65-.73l-.02-.03.62-.35v.07c-.02.12,0,.31.09.52.17.38.56.71.97.8l.27.06ZM55.81,50.49c.12.19.33.46.62.68.25.19.48.27.65.31-.32-.15-.59-.42-.73-.74-.09-.19-.11-.36-.1-.49l-.43.24Z"/>
        </g>
        <g>
          <path class="cls-4" d="M53.17,48.77c.04.43.33.86.69,1.08.22.13.42.16.53.16-.12.16-.24.32-.35.48-.13-.11-.42-.35-.64-.73-.29-.51-.25-.89-.23-1Z"/>
          <path class="cls-4" d="M54.46,49.98l-.42.57-.03-.02c-.19-.15-.45-.39-.65-.74-.27-.47-.26-.85-.23-1.03l.04-.27.03.27c.04.41.32.84.68,1.06.2.12.39.15.51.16h.07ZM54.03,50.44l.29-.4c-.13-.01-.3-.05-.48-.16-.29-.18-.53-.49-.65-.82.02.18.08.42.23.69.18.31.42.55.6.69Z"/>
        </g>
        <g>
          <path class="cls-4" d="M54.34,57.98c.04.43.33.86.69,1.08.22.13.42.16.53.16-.12.16-.24.32-.35.48-.13-.11-.42-.35-.64-.73-.29-.51-.25-.89-.23-1Z"/>
          <path class="cls-4" d="M55.64,59.19l-.42.57-.03-.02c-.19-.15-.45-.39-.65-.74-.27-.47-.26-.85-.23-1.03l.04-.27.03.27c.04.41.32.84.68,1.06.2.12.39.15.51.16h.07ZM55.2,59.65l.29-.4c-.13-.01-.3-.05-.48-.16-.29-.18-.53-.49-.65-.82.02.18.08.42.23.69.18.31.42.55.6.69Z"/>
        </g>
        <g>
          <path class="cls-4" d="M60.39,56.6c-.35.26-.58.72-.58,1.15,0,.26.08.44.13.54-.2-.02-.4-.04-.6-.06.02-.17.09-.54.3-.92.29-.51.65-.67.75-.71Z"/>
          <path class="cls-4" d="M60.64,56.47l-.22.16c-.33.25-.56.7-.57,1.12,0,.24.07.41.12.52l.03.06-.7-.07v-.04c.04-.23.12-.59.31-.93.27-.48.59-.66.77-.72l.25-.1ZM59.79,57.6c.04-.3.17-.6.37-.83-.15.11-.32.28-.47.55-.18.32-.26.64-.29.87l.49.05c-.05-.12-.1-.28-.1-.49,0-.05,0-.1,0-.15Z"/>
        </g>
        <g>
          <path class="cls-4" d="M52.42,66.99c.3.31.79.47,1.22.41.26-.03.42-.14.51-.2,0,.2.02.4.03.6-.17,0-.55-.01-.95-.17-.55-.21-.75-.54-.81-.64Z"/>
          <path class="cls-4" d="M54.21,67.83h-.04c-.24,0-.6-.03-.96-.17-.51-.2-.74-.49-.82-.65l-.13-.24.19.19c.29.3.77.46,1.19.4.23-.03.4-.12.49-.2l.06-.04.03.71ZM52.63,67.21c.13.13.32.28.61.39.34.13.67.16.9.16l-.02-.49c-.11.07-.26.14-.47.17-.34.05-.72-.05-1.01-.23Z"/>
        </g>
        <g>
          <path class="cls-4" d="M66.22,62.16c.3.31.79.47,1.22.41.26-.03.42-.14.51-.2,0,.2.02.4.03.6-.17,0-.55-.01-.95-.17-.55-.21-.75-.54-.81-.64Z"/>
          <path class="cls-4" d="M68.01,63.01h-.04c-.24,0-.6-.03-.96-.17-.51-.2-.74-.49-.82-.65l-.13-.24.19.19c.29.3.77.46,1.19.4.23-.03.4-.12.49-.2l.06-.04.03.71ZM66.43,62.38c.13.13.32.28.61.39.34.13.67.16.9.16l-.02-.49c-.11.07-.26.14-.47.17-.34.05-.72-.05-1.01-.23Z"/>
        </g>
        <g>
          <path class="cls-4" d="M73.69,65.5c.3.31.79.47,1.22.41.26-.03.42-.14.51-.2,0,.2.02.4.03.6-.17,0-.55-.01-.95-.17-.55-.21-.75-.54-.81-.64Z"/>
          <path class="cls-4" d="M75.48,66.34h-.04c-.24,0-.6-.03-.96-.17-.51-.2-.74-.49-.82-.65l-.13-.24.19.19c.29.3.77.46,1.19.4.23-.03.4-.12.49-.2l.06-.04.03.71ZM73.9,65.71c.13.13.32.28.61.39.34.13.67.16.9.16l-.02-.49c-.11.07-.26.14-.47.17-.34.05-.72-.05-1.01-.23Z"/>
        </g>
        <g>
          <path class="cls-4" d="M70.19,73.45c-.12-.41-.47-.79-.88-.94-.24-.09-.44-.08-.55-.07.09-.18.17-.36.26-.54.15.08.48.27.76.6.38.45.4.84.4.95Z"/>
          <path class="cls-4" d="M70.23,73.73l-.08-.26c-.12-.4-.46-.77-.85-.92-.22-.08-.41-.08-.53-.06h-.07s.31-.62.31-.62l.03.02c.21.11.51.31.77.61.35.42.41.79.41.97v.27ZM68.83,72.4c.13,0,.3,0,.5.08.32.12.61.38.78.69-.05-.17-.15-.4-.35-.63-.23-.28-.51-.46-.71-.57l-.22.44Z"/>
        </g>
        <g>
          <path class="cls-4" d="M78.08,60.07c-.42-.1-.92.03-1.25.3-.2.16-.29.34-.32.44-.11-.16-.23-.33-.34-.49.14-.09.47-.28.89-.37.58-.11.93.06,1.02.11Z"/>
          <path class="cls-4" d="M78.34,60.17l-.27-.06c-.4-.09-.89.02-1.22.29-.18.15-.27.32-.31.43l-.02.06-.4-.58.03-.02c.2-.13.52-.29.91-.37.54-.1.89.03,1.05.11l.24.13ZM76.5,60.74c.05-.11.15-.26.31-.4.26-.22.63-.34.98-.34-.17-.04-.42-.06-.72,0-.36.07-.65.22-.85.34l.28.41Z"/>
        </g>
        <g>
          <path class="cls-4" d="M73.84,56.62c-.39.19-.7.6-.78,1.03-.05.25,0,.45.03.55-.19-.05-.38-.11-.58-.16.05-.16.19-.52.46-.85.37-.45.75-.54.86-.56Z"/>
          <path class="cls-4" d="M74.1,56.53l-.24.12c-.37.18-.68.59-.76,1-.04.23,0,.42.03.53l.02.07-.68-.19v-.04c.09-.23.23-.56.48-.86.35-.42.7-.54.88-.57l.27-.05ZM73.01,57.72s0-.06.01-.08c.06-.34.27-.67.54-.89-.16.08-.36.22-.56.45-.23.28-.37.58-.44.8l.47.14c-.03-.11-.05-.25-.03-.42Z"/>
        </g>
        <g>
          <path class="cls-4" d="M64.7,73.23c-.4.16-.74.55-.85.97-.07.25-.04.45-.01.55-.19-.07-.37-.14-.56-.21.06-.16.22-.5.52-.81.41-.42.79-.48.9-.5Z"/>
          <path class="cls-4" d="M64.97,73.16l-.25.1c-.39.16-.72.53-.83.94-.06.23-.04.41-.01.53l.02.07-.66-.24v-.04c.1-.22.27-.54.54-.82.38-.39.74-.49.92-.51l.27-.03ZM63.78,74.36c0-.05.02-.11.03-.17.09-.33.32-.65.61-.85-.17.07-.38.19-.6.41-.25.26-.41.55-.5.77l.46.17c-.02-.09-.02-.2,0-.33Z"/>
        </g>
        <g>
          <path class="cls-4" d="M61.17,72.27c-.37.22-.65.65-.7,1.08-.03.26.03.45.07.55-.2-.04-.39-.08-.59-.12.04-.17.15-.53.4-.88.34-.48.71-.59.82-.62Z"/>
          <path class="cls-4" d="M61.42,72.16l-.24.14c-.36.21-.63.63-.69,1.05h0c-.03.23.02.42.07.53l.03.06-.69-.15v-.04c.07-.23.19-.57.42-.89.32-.44.66-.59.84-.63l.26-.07ZM60.43,73.34c.04-.34.22-.68.48-.92-.16.09-.35.24-.53.49-.21.29-.33.61-.39.83l.48.1c-.04-.12-.07-.29-.05-.5h0Z"/>
        </g>
        <g>
          <path class="cls-4" d="M77.61,71.47c-.19.39-.17.9.02,1.29.12.23.27.35.36.41-.18.08-.37.15-.55.23-.06-.16-.17-.52-.16-.95.02-.59.26-.89.33-.97Z"/>
          <path class="cls-4" d="M78.08,73.18l-.65.27v-.04c-.09-.22-.19-.57-.18-.97.01-.54.22-.86.34-1l.18-.21-.12.25c-.18.37-.17.88.02,1.25.11.21.25.33.35.4l.06.04ZM77.47,73.35l.46-.19c-.1-.08-.22-.2-.32-.39-.16-.31-.2-.7-.12-1.04-.08.16-.15.4-.16.71,0,.36.07.69.15.9Z"/>
        </g>
        <g>
          <path class="cls-4" d="M81.52,68.06c-.36.23-.62.68-.65,1.11-.02.26.05.44.1.54-.2-.03-.39-.06-.59-.09.03-.17.12-.54.36-.9.32-.49.68-.63.79-.66Z"/>
          <path class="cls-4" d="M81.77,67.94l-.23.15c-.35.23-.6.66-.63,1.08-.02.23.04.41.09.52l.03.06-.7-.11v-.04c.05-.23.15-.58.37-.91.3-.46.63-.62.81-.68l.26-.08ZM80.84,69.1c.04-.32.2-.65.43-.88-.15.1-.34.26-.5.52-.2.3-.29.62-.34.85l.49.08c-.05-.12-.09-.29-.07-.5,0-.02,0-.04,0-.06Z"/>
        </g>
        <g>
          <path class="cls-4" d="M72.45,60.01c-.21.38-.23.89-.06,1.29.1.24.25.37.34.43-.19.06-.38.13-.57.19-.05-.16-.14-.53-.1-.96.05-.58.31-.87.39-.95Z"/>
          <path class="cls-4" d="M72.81,61.74l-.67.23v-.04c-.08-.23-.15-.58-.12-.97.05-.54.27-.84.4-.97l.19-.19-.13.24c-.2.36-.23.87-.06,1.25.09.22.23.35.33.42l.06.04ZM72.19,61.88l.47-.16c-.1-.08-.21-.21-.3-.41-.14-.31-.16-.7-.06-1.04-.09.16-.18.39-.21.69-.03.36.03.69.09.91Z"/>
        </g>
        <g>
          <path class="cls-4" d="M74.38,64.5c.37-.22.65-.65.7-1.08.03-.26-.03-.45-.07-.55.2.04.39.08.59.12-.04.17-.15.53-.4.88-.34.48-.71.59-.82.62Z"/>
          <path class="cls-4" d="M75.64,62.97v.04c-.07.23-.19.57-.42.89-.32.44-.66.59-.84.63l-.26.07.24-.14c.36-.21.63-.63.69-1.05h0c.03-.23-.02-.42-.07-.53l-.03-.06.69.15ZM74.64,64.35c.16-.09.35-.24.53-.49.21-.29.33-.61.39-.83l-.48-.1c.04.12.07.29.05.5h0c-.04.34-.22.68-.48.92Z"/>
        </g>
        <g>
          <path class="cls-4" d="M83.86,71.28c-.33-.28-.83-.41-1.25-.32-.25.05-.41.17-.49.24-.02-.2-.05-.4-.07-.59.17-.01.55-.03.96.09.56.17.79.48.85.57Z"/>
          <path class="cls-4" d="M84.04,71.48l-.21-.18c-.31-.27-.8-.4-1.22-.31-.23.05-.39.15-.48.23l-.05.05-.09-.7h.04c.24-.02.6-.02.98.09.52.16.77.44.87.59l.15.23ZM82.15,71.13c.1-.08.25-.16.46-.21.34-.07.72-.01,1.03.15-.14-.12-.34-.25-.64-.34-.35-.1-.68-.11-.91-.09l.06.49Z"/>
        </g>
        <g>
          <path class="cls-4" d="M79.71,71.43c.3.31.79.47,1.22.41.26-.03.42-.14.51-.2,0,.2.02.4.03.6-.17,0-.55-.01-.95-.17-.55-.21-.75-.54-.81-.64Z"/>
          <path class="cls-4" d="M81.5,72.27h-.04c-.24,0-.6-.03-.96-.17-.51-.2-.74-.49-.82-.65l-.13-.24.19.19c.29.3.77.46,1.19.4.23-.03.4-.12.49-.2l.06-.04.03.71ZM79.92,71.65c.13.13.32.28.61.39.34.13.67.16.9.16l-.02-.49c-.11.07-.26.14-.47.17-.34.05-.72-.05-1.02-.23Z"/>
        </g>
        <g>
          <path class="cls-4" d="M70.2,62.56c-.24-.35-.7-.6-1.13-.62-.26-.01-.44.06-.54.11.03-.2.05-.4.08-.59.17.03.54.11.91.33.5.31.64.67.68.77Z"/>
          <path class="cls-4" d="M70.32,62.81l-.15-.23c-.23-.34-.68-.59-1.1-.61-.24-.01-.41.05-.52.1l-.06.03.09-.7h.04c.23.05.58.14.92.35.47.28.63.62.69.79l.09.26ZM68.58,61.99c.12-.05.28-.09.5-.08.34.02.7.17.96.41-.1-.15-.26-.33-.53-.49-.31-.19-.63-.28-.86-.32l-.07.49Z"/>
        </g>
        <g>
          <path class="cls-4" d="M70.55,60.63c.33-.28.53-.75.51-1.18-.01-.26-.1-.43-.16-.53.2,0,.4.01.6.02-.01.17-.06.55-.24.93-.26.53-.6.71-.7.75Z"/>
          <path class="cls-4" d="M71.52,59.08c-.03.23-.09.52-.24.82-.24.49-.55.69-.72.77l-.25.11.21-.18c.32-.27.52-.73.5-1.15-.01-.24-.09-.41-.15-.51l-.04-.06.71.03v.04s0,.08-.02.13ZM70.78,60.44c.14-.11.3-.3.44-.58.16-.33.22-.65.24-.88l-.49-.02c.06.11.12.27.13.48.02.34-.1.71-.32.99Z"/>
        </g>
        <g>
          <path class="cls-4" d="M63.93,58.63c-.43-.05-.91.13-1.21.44-.18.19-.25.37-.27.48-.13-.15-.26-.3-.39-.45.13-.11.44-.33.85-.46.56-.18.93-.05,1.03,0Z"/>
          <path class="cls-4" d="M64.2,58.7l-.27-.03c-.41-.05-.89.12-1.18.43-.16.17-.23.35-.26.46l-.02.07-.46-.53.03-.02c.18-.15.48-.35.86-.47.52-.16.88-.07,1.05,0l.25.1ZM62.44,59.47c.04-.12.12-.28.26-.43.24-.25.59-.41.94-.45-.18-.02-.42-.02-.72.08-.35.11-.62.29-.81.43l.32.37Z"/>
        </g>
        <g>
          <path class="cls-4" d="M57.02,54.44c.04.43.33.86.69,1.08.22.13.42.16.53.16-.12.16-.24.32-.35.48-.13-.11-.42-.35-.64-.73-.29-.51-.25-.89-.23-1Z"/>
          <path class="cls-4" d="M58.31,55.66l-.42.57-.03-.02c-.19-.15-.45-.39-.65-.74-.27-.47-.26-.85-.23-1.03l.04-.27.03.27c.04.41.32.84.68,1.06.2.12.39.15.51.16h.07ZM57.88,56.12l.29-.4c-.13-.01-.3-.05-.48-.16-.29-.18-.53-.49-.65-.82.02.18.08.42.23.69.18.31.42.55.6.69Z"/>
        </g>
        <g>
          <path class="cls-4" d="M60.5,53.84c-.4-.16-.91-.12-1.28.11-.22.13-.34.3-.39.39-.09-.18-.17-.36-.26-.54.16-.07.51-.21.94-.22.59-.02.91.2.99.27Z"/>
          <path class="cls-4" d="M60.74,53.98l-.25-.1c-.39-.16-.89-.11-1.25.1-.2.12-.32.27-.38.38l-.03.06-.31-.64.04-.02c.22-.1.56-.21.95-.23.54-.02.87.16,1.02.27l.22.17ZM58.83,54.26c.07-.11.19-.24.37-.34.29-.18.68-.24,1.02-.19-.17-.07-.4-.13-.71-.12-.36.01-.68.12-.89.2l.21.44Z"/>
        </g>
        <g>
          <path class="cls-4" d="M50.54,55.68c.04.43.33.86.69,1.08.22.13.42.16.53.16-.12.16-.24.32-.35.48-.13-.11-.42-.35-.64-.73-.29-.51-.25-.89-.23-1Z"/>
          <path class="cls-4" d="M51.83,56.89l-.42.57-.03-.02c-.19-.15-.45-.39-.65-.74-.27-.47-.26-.85-.23-1.03l.04-.27.03.27c.04.41.32.84.68,1.06.2.12.39.15.51.16h.07ZM51.4,57.36l.29-.4c-.13-.01-.3-.05-.48-.16-.29-.18-.53-.49-.65-.82.02.18.08.42.23.69.18.31.42.55.6.69Z"/>
        </g>
        <g>
          <path class="cls-4" d="M67.63,58.13c.04.43.33.86.69,1.08.22.13.42.16.53.16-.12.16-.24.32-.35.48-.13-.11-.42-.35-.64-.73-.29-.51-.25-.89-.23-1Z"/>
          <path class="cls-4" d="M68.93,59.34l-.42.57-.03-.02c-.19-.15-.45-.39-.65-.74-.27-.47-.26-.85-.23-1.03l.04-.27.03.27c.04.41.32.84.68,1.06.2.12.39.15.51.16h.07ZM68.5,59.8l.29-.4c-.13-.01-.3-.05-.48-.16-.29-.18-.53-.49-.65-.82.02.18.08.42.23.69.18.31.42.55.6.69Z"/>
        </g>
        <g>
          <path class="cls-4" d="M57.01,75.17c.4-.15.75-.53.88-.94.07-.25.05-.44.03-.55.19.07.37.15.56.22-.07.16-.24.5-.54.8-.42.41-.8.46-.91.47Z"/>
          <path class="cls-4" d="M58.52,73.88l-.02.03c-.1.22-.27.53-.55.81-.39.38-.75.47-.94.48l-.27.02.26-.1c.39-.14.73-.51.85-.92.07-.23.05-.41.02-.53l-.02-.07.66.26ZM57.3,75.07c.17-.06.38-.18.61-.4.26-.25.42-.54.52-.75l-.46-.18c.02.13.02.3-.04.5-.1.33-.34.64-.63.83Z"/>
        </g>
        <g>
          <path class="cls-4" d="M50.89,51.29c.43,0,.89.25,1.14.6.15.21.19.4.2.51.15-.13.3-.26.45-.39-.12-.12-.39-.39-.78-.57-.53-.25-.91-.17-1.02-.15Z"/>
          <path class="cls-4" d="M52.73,52.01l-.53.46v-.07c-.02-.12-.07-.3-.21-.49-.25-.34-.69-.58-1.11-.59h-.27s.26-.07.26-.07c.18-.04.55-.09,1.04.15.36.17.63.41.79.58l.03.03ZM52.25,52.33l.37-.32c-.16-.17-.41-.38-.74-.54-.28-.13-.52-.17-.7-.17.34.09.67.3.87.58.12.17.18.34.2.46Z"/>
        </g>
        <g>
          <path class="cls-4" d="M55.91,54.95c-.43.06-.91-.11-1.22-.41-.18-.18-.25-.37-.28-.47-.13.15-.26.31-.38.46.13.1.45.33.86.44.56.16.93.03,1.03-.02Z"/>
          <path class="cls-4" d="M56.18,54.88l-.25.11c-.17.07-.53.17-1.05.02-.38-.11-.68-.31-.87-.45l-.03-.02.45-.54.02.07c.03.12.11.29.27.46.3.3.78.46,1.19.4l.27-.04ZM54.08,54.52c.18.14.47.31.81.42.3.09.54.09.72.06-.35-.03-.7-.19-.95-.43-.15-.15-.23-.3-.27-.42l-.32.38Z"/>
        </g>
        <g>
          <path class="cls-4" d="M54.84,72.53c-.04-.43.15-.91.47-1.2.19-.17.38-.23.49-.26-.15-.14-.29-.27-.44-.41-.11.13-.35.43-.49.83-.19.55-.07.93-.03,1.03Z"/>
          <path class="cls-4" d="M55.88,71.1l-.07.02c-.12.03-.29.09-.47.25-.31.28-.5.75-.46,1.17l.02.27-.1-.26c-.06-.17-.14-.54.03-1.05.13-.37.34-.67.49-.85l.02-.03.52.48ZM54.81,72.23c.05-.35.22-.69.48-.93.16-.14.31-.21.44-.25l-.36-.33c-.15.18-.34.45-.46.79-.1.29-.11.54-.1.72Z"/>
        </g>
        <g>
          <path class="cls-4" d="M56.55,67.44c-.04.43-.32.86-.69,1.08-.22.13-.42.16-.53.16.12.16.24.32.35.48.13-.11.42-.36.64-.73.29-.51.25-.89.23-1Z"/>
          <path class="cls-4" d="M56.6,67.79c-.02.18-.09.42-.24.68-.2.34-.46.59-.65.74l-.03.02-.42-.57h.07c.12,0,.31-.04.51-.16.36-.22.63-.64.68-1.06l.03-.27.05.27c.01.08.02.2,0,.35ZM55.7,69.12c.18-.15.42-.38.6-.69.16-.27.21-.51.23-.69-.11.33-.35.64-.64.82-.18.11-.35.15-.48.16l.29.4Z"/>
        </g>
        <g>
          <path class="cls-4" d="M53.51,59.11c-.21.37-.65.65-1.07.71-.26.03-.45-.03-.55-.07.04.19.08.39.13.58.17-.04.53-.15.88-.4.47-.34.59-.72.62-.82Z"/>
          <path class="cls-4" d="M53.61,58.86l-.07.26c-.05.18-.19.52-.63.84-.32.23-.66.35-.89.41h-.04s-.15-.68-.15-.68l.06.03c.11.05.29.09.53.06.42-.05.84-.33,1.05-.69l.14-.24ZM52.04,60.3c.22-.06.53-.18.83-.39.25-.18.4-.38.49-.53-.24.26-.58.44-.92.48-.21.03-.38,0-.5-.04l.1.48Z"/>
        </g>
        <g>
          <path class="cls-4" d="M59.15,59.8c-.41-.13-.78-.48-.93-.89-.09-.24-.07-.44-.06-.55-.18.08-.36.17-.54.25.08.15.27.48.59.76.44.39.83.41.94.42Z"/>
          <path class="cls-4" d="M59.42,59.85h-.27c-.18-.01-.55-.08-.96-.43-.3-.26-.49-.57-.6-.78l-.02-.03.64-.3v.07c-.03.12-.04.31.05.53.14.4.51.74.91.87l.26.08ZM57.67,58.64c.11.2.29.48.56.72.23.2.46.31.63.36-.3-.17-.56-.47-.68-.79-.07-.2-.08-.37-.07-.5l-.45.21Z"/>
        </g>
        <g>
          <path class="cls-4" d="M56.38,62.12c-.43.06-.91-.11-1.22-.41-.18-.18-.25-.37-.28-.47-.13.15-.26.31-.38.46.13.1.45.33.86.44.56.16.93.03,1.03-.02Z"/>
          <path class="cls-4" d="M56.65,62.04l-.25.11c-.17.07-.53.17-1.05.02-.38-.11-.68-.31-.87-.45l-.03-.02.45-.54.02.07c.03.12.11.29.27.46.3.3.78.46,1.19.4l.27-.04ZM54.55,61.69c.18.14.47.31.81.42.3.09.54.09.72.06-.35-.03-.71-.19-.95-.43-.15-.15-.23-.3-.27-.42l-.32.38Z"/>
        </g>
        <g>
          <path class="cls-4" d="M51.01,63.97c.04-.43.32-.86.69-1.08.22-.13.42-.16.53-.16-.12-.16-.24-.32-.35-.48-.13.11-.42.36-.64.73-.29.51-.25.89-.23,1Z"/>
          <path class="cls-4" d="M52.3,62.76h-.07c-.12,0-.31.04-.51.16-.36.22-.63.64-.68,1.06l-.03.27-.05-.27c-.03-.18-.04-.55.23-1.03.2-.34.46-.59.65-.74l.03-.02.42.57ZM51.04,63.67c.11-.33.35-.64.64-.82.18-.11.35-.15.48-.16l-.29-.4c-.18.15-.42.38-.6.69-.16.27-.21.51-.23.69Z"/>
        </g>
        <g>
          <path class="cls-4" d="M73.81,74.21c.04-.43.32-.86.69-1.08.22-.13.42-.16.53-.16-.12-.16-.24-.32-.35-.48-.13.11-.42.36-.64.73-.29.51-.25.89-.23,1Z"/>
          <path class="cls-4" d="M75.1,73h-.07c-.12,0-.31.04-.51.16-.36.22-.63.64-.68,1.06l-.03.27-.05-.27c-.03-.18-.04-.55.23-1.03.2-.34.46-.59.65-.74l.03-.02.42.57ZM73.84,73.91c.11-.33.35-.64.64-.82.18-.11.35-.15.48-.16l-.29-.4c-.18.15-.42.38-.6.69-.16.27-.21.51-.23.69Z"/>
        </g>
        <g>
          <path class="cls-4" d="M73.3,60.92c.04-.43.32-.86.69-1.08.22-.13.42-.16.53-.16-.12-.16-.24-.32-.35-.48-.13.11-.42.36-.64.73-.29.51-.25.89-.23,1Z"/>
          <path class="cls-4" d="M74.59,59.71h-.07c-.12,0-.31.04-.51.16-.36.22-.63.64-.68,1.06l-.03.27-.04-.27c-.03-.18-.04-.55.23-1.03.2-.34.46-.59.65-.74l.03-.02.42.57ZM73.33,60.62c.11-.33.35-.64.64-.82.18-.11.35-.15.48-.16l-.29-.4c-.18.15-.42.38-.6.69-.16.27-.21.51-.23.69Z"/>
        </g>
        <g>
          <path class="cls-4" d="M70.28,69.09c.04-.43.32-.86.69-1.08.22-.13.42-.16.53-.16-.12-.16-.24-.32-.35-.48-.13.11-.42.36-.64.73-.29.51-.25.89-.23,1Z"/>
          <path class="cls-4" d="M71.57,67.88h-.07c-.12,0-.31.04-.51.16-.36.22-.63.64-.68,1.06l-.03.27-.05-.27c-.03-.18-.04-.55.23-1.03.2-.34.46-.59.65-.74l.03-.02.42.57ZM70.31,68.8c.11-.33.35-.64.64-.82.18-.11.35-.15.48-.16l-.29-.4c-.18.15-.42.38-.6.69-.16.27-.21.51-.23.69Z"/>
        </g>
        <g>
          <path class="cls-4" d="M62.88,76.99c-.31-.29-.49-.78-.44-1.21.03-.26.13-.43.19-.52-.2,0-.4,0-.6-.01,0,.17.03.55.19.95.23.54.56.74.66.79Z"/>
          <path class="cls-4" d="M63.1,77.15l-.24-.13c-.16-.09-.47-.3-.68-.81-.15-.36-.19-.72-.2-.96v-.04s.71.01.71.01l-.04.06c-.07.1-.16.27-.18.5-.04.42.13.89.43,1.18l.2.19ZM62.06,75.29c0,.23.05.56.19.89.12.29.27.48.41.6-.2-.29-.3-.67-.26-1.01.02-.21.09-.37.16-.48h-.49Z"/>
        </g>
        <g>
          <path class="cls-4" d="M80,64.94c-.16.4-.54.74-.96.86-.25.07-.44.04-.55.02.07.19.14.37.21.56.16-.07.5-.23.81-.53.42-.41.48-.8.49-.91Z"/>
          <path class="cls-4" d="M80.04,64.96c-.02.19-.12.54-.5.91-.28.28-.6.45-.82.54h-.04s-.25-.64-.25-.64l.07.02c.12.03.3.05.53-.02.41-.11.78-.45.93-.84l.1-.25-.03.27s0,.01,0,.02ZM78.73,66.33c.21-.09.5-.25.76-.51.22-.22.34-.43.41-.6-.2.29-.51.52-.84.62-.2.06-.38.05-.5.03l.18.46Z"/>
        </g>
        <g>
          <path class="cls-4" d="M72.56,64.61c-.43-.04-.86-.32-1.08-.69-.13-.22-.16-.42-.16-.53-.16.12-.32.24-.48.35.11.13.36.42.73.64.51.29.89.25,1,.23Z"/>
          <path class="cls-4" d="M72.83,64.61l-.27.04c-.18.03-.55.04-1.03-.23-.34-.2-.59-.46-.74-.65l-.02-.03.57-.42v.07c0,.12.04.31.16.51.22.36.64.63,1.06.68l.27.03ZM70.88,63.76c.15.18.38.42.69.6.27.16.51.21.69.23-.33-.11-.64-.35-.82-.64-.11-.18-.15-.35-.16-.48l-.4.29Z"/>
        </g>
        <g>
          <path class="cls-4" d="M74.2,70.25c-.28-.33-.4-.83-.31-1.25.05-.25.17-.41.24-.49-.2-.02-.4-.05-.59-.07-.01.17-.03.55.09.96.17.56.48.79.57.85Z"/>
          <path class="cls-4" d="M74.4,70.43l-.23-.15c-.15-.1-.43-.35-.59-.87-.11-.38-.11-.74-.09-.98v-.04s.7.09.7.09l-.05.05c-.08.09-.18.25-.23.48-.09.41.03.9.31,1.22l.18.21ZM73.57,68.47c-.02.23-.01.56.09.91.09.3.22.5.34.64-.16-.31-.23-.69-.15-1.03.04-.21.13-.36.21-.46l-.49-.06Z"/>
        </g>
        <g>
          <path class="cls-4" d="M77.18,70.04c-.39.17-.91.15-1.29-.06-.23-.13-.34-.28-.4-.38-.08.18-.16.36-.24.55.16.06.52.19.95.19.59,0,.9-.23.98-.3Z"/>
          <path class="cls-4" d="M77.41,69.9l-.21.17c-.14.12-.46.31-1.01.31-.4,0-.74-.11-.96-.19h-.04s.29-.66.29-.66l.04.06c.06.1.18.25.39.36.37.21.87.23,1.25.06l.25-.11ZM75.3,70.13c.21.08.53.17.9.18.31,0,.55-.07.71-.14-.34.07-.73.01-1.03-.15-.18-.1-.3-.23-.38-.33l-.2.45Z"/>
        </g>
        <g>
          <path class="cls-4" d="M79.66,74.37c-.33-.28-.52-.76-.5-1.19.02-.26.11-.43.17-.52-.2,0-.4.01-.6.02.01.17.05.55.24.94.25.53.6.71.69.76Z"/>
          <path class="cls-4" d="M79.89,74.52l-.25-.12c-.17-.08-.48-.28-.71-.78-.17-.36-.22-.71-.24-.95v-.04s.7-.02.7-.02l-.04.06c-.06.1-.15.27-.16.51-.03.42.17.89.49,1.16l.21.18ZM78.77,72.71c.02.23.07.56.23.89.13.28.3.46.43.58-.21-.28-.33-.65-.31-1,.01-.21.08-.37.14-.48h-.49Z"/>
        </g>
        <g>
          <path class="cls-4" d="M57.07,64.12c.13.41.04.92-.22,1.27-.15.21-.32.31-.42.35.17.1.34.2.51.31.08-.15.25-.49.3-.92.07-.58-.12-.92-.18-1.01Z"/>
          <path class="cls-4" d="M57.29,65.13h0c-.05.4-.19.73-.31.94l-.02.03-.61-.36.06-.03c.11-.05.27-.15.41-.34.25-.34.33-.84.21-1.24l-.08-.26.15.23c.1.15.25.49.19,1.03ZM56.93,65.99c.11-.2.24-.51.28-.87h0c.04-.31,0-.55-.06-.72.03.35-.07.73-.27,1-.12.17-.26.27-.37.34l.42.25Z"/>
        </g>
        <g>
          <path class="cls-4" d="M82.16,74.72c-.43-.01-.88-.26-1.13-.61-.15-.21-.19-.41-.2-.51-.15.13-.3.26-.46.39.12.13.38.4.77.58.53.26.91.18,1.02.16Z"/>
          <path class="cls-4" d="M82.43,74.69l-.26.06c-.18.04-.55.08-1.04-.16-.36-.17-.62-.42-.78-.59l-.03-.03.54-.46v.07c.02.12.06.3.2.5.24.34.69.59,1.1.6h.27ZM80.42,73.98c.16.17.41.39.73.55.28.14.52.18.7.18-.34-.09-.66-.3-.86-.59-.12-.17-.17-.34-.2-.46l-.38.32Z"/>
        </g>
        <g>
          <path class="cls-4" d="M68.06,75.48c-.43,0-.89-.25-1.14-.6-.15-.21-.19-.4-.21-.51-.15.13-.3.26-.45.39.12.12.39.39.78.57.53.25.91.17,1.02.14Z"/>
          <path class="cls-4" d="M68.33,75.45l-.26.07c-.18.05-.55.09-1.04-.15-.36-.17-.63-.41-.79-.58l-.03-.03.53-.46v.07c.02.12.07.3.21.49.25.34.69.58,1.11.58h.27ZM66.32,74.76c.16.17.41.38.74.54.28.13.52.17.7.17-.34-.09-.67-.3-.87-.57-.12-.17-.18-.34-.2-.46l-.37.32Z"/>
        </g>
        <g>
          <g>
            <g>
              <polygon class="cls-4" points="60.97 61.72 60.8 65.93 63.07 65.37 60.97 61.72"/>
              <path class="cls-4" d="M63.24,65.44l-2.55.63.19-4.74,2.37,4.11ZM60.92,65.79l1.98-.49-1.84-3.19-.14,3.68Z"/>
            </g>
            <g>
              <polygon class="cls-4" points="59.2 71.88 62.37 69.12 60.41 67.85 59.2 71.88"/>
              <path class="cls-4" d="M62.56,69.1l-3.58,3.12,1.37-4.54,2.21,1.43ZM59.41,71.55l2.78-2.42-1.71-1.11-1.06,3.53Z"/>
            </g>
            <g>
              <path class="cls-4" d="M57.52,70.32c.32-.34,1-.95,2.05-1.3.77-.25,1.44-.26,1.87-.24l-1.42-1.85-2.5,3.39Z"/>
              <path class="cls-4" d="M61.68,68.91l-.24-.02c-.62-.04-1.24.04-1.83.23-.95.31-1.62.86-2.01,1.27l-.17-.14,2.59-3.51,1.66,2.16ZM58.19,69.6c.36-.26.81-.5,1.35-.68.54-.18,1.1-.26,1.67-.25l-1.19-1.55-1.83,2.48Z"/>
            </g>
            <g>
              <path class="cls-4" d="M58.44,62.81c.26.41.76,1.09,1.6,1.66.7.48,1.37.7,1.82.81l-1.84,1.44-1.58-3.91Z"/>
              <path class="cls-4" d="M62.1,65.23l-2.13,1.67-1.63-4.04.2-.1c.4.64.94,1.21,1.57,1.63.54.37,1.14.63,1.78.79l.22.05ZM60.07,66.54l1.55-1.21c-.59-.17-1.14-.42-1.64-.76-.41-.28-.78-.61-1.11-.99l1.2,2.96Z"/>
            </g>
            <g>
              <rect class="cls-4" x="58.78" y="65.71" width=".41" height="2.02" rx=".2" ry=".2" transform="translate(-14.36 117.24) rotate(-83.08)"/>
              <path class="cls-4" d="M60.11,66.78l-.02.16c-.02.13-.13.22-.26.2l-1.77-.21c-.13-.02-.22-.13-.2-.26l.02-.16c.02-.13.13-.22.26-.2l1.77.21c.13.02.22.13.2.26ZM58.08,66.7s0,.01,0,.01l1.77.21s.01,0,.01,0l.02-.16s0-.01,0-.01l-1.77-.21s-.01,0-.01,0l-.02.16Z"/>
            </g>
          </g>
          <g>
            <g>
              <circle class="cls-1" cx="67.76" cy="68.74" r="1.54"/>
              <path class="cls-4" d="M69.39,68.94c-.11.9-.93,1.55-1.83,1.44s-1.55-.93-1.44-1.83.93-1.55,1.83-1.44,1.55.93,1.44,1.83ZM66.34,68.57c-.09.78.46,1.49,1.24,1.59s1.49-.46,1.59-1.24-.46-1.49-1.24-1.59-1.49.46-1.59,1.24Z"/>
            </g>
            <g>
              <circle class="cls-1" cx="67.97" cy="67.01" r="1.54"/>
              <path class="cls-4" d="M69.6,67.21c-.11.9-.93,1.55-1.83,1.44s-1.55-.93-1.44-1.83.93-1.55,1.83-1.44,1.55.93,1.44,1.83ZM66.55,66.84c-.09.78.46,1.49,1.24,1.59s1.49-.46,1.59-1.24-.46-1.49-1.24-1.59-1.49.46-1.59,1.24Z"/>
            </g>
            <g>
              <circle class="cls-1" cx="66.6" cy="65.49" r="1.54"/>
              <path class="cls-4" d="M68.24,65.69c-.11.9-.93,1.55-1.83,1.44s-1.55-.93-1.44-1.83.93-1.55,1.83-1.44,1.55.93,1.44,1.83ZM65.19,65.32c-.09.78.46,1.49,1.24,1.59s1.49-.46,1.59-1.24-.46-1.49-1.24-1.59-1.49.46-1.59,1.24Z"/>
            </g>
            <g>
              <circle class="cls-1" cx="66.38" cy="67.38" r="1.54"/>
              <path class="cls-4" d="M68.01,67.57c-.11.9-.93,1.55-1.83,1.44s-1.55-.93-1.44-1.83.93-1.55,1.83-1.44,1.55.93,1.44,1.83ZM64.96,67.2c-.09.78.46,1.49,1.24,1.59s1.49-.46,1.59-1.24-.46-1.49-1.24-1.59-1.49.46-1.59,1.24Z"/>
            </g>
            <g>
              <circle class="cls-1" cx="66.08" cy="69.85" r="1.54"/>
              <path class="cls-4" d="M67.71,70.05c-.11.9-.93,1.55-1.83,1.44s-1.55-.93-1.44-1.83.93-1.55,1.83-1.44,1.55.93,1.44,1.83ZM64.66,69.68c-.09.78.46,1.49,1.24,1.59s1.49-.46,1.59-1.24-.46-1.49-1.24-1.59-1.49.46-1.59,1.24Z"/>
            </g>
            <g>
              <circle class="cls-1" cx="61.77" cy="64.97" r="1.54"/>
              <path class="cls-4" d="M63.41,65.17c-.11.9-.93,1.55-1.83,1.44s-1.55-.93-1.44-1.83.93-1.55,1.83-1.44,1.55.93,1.44,1.83ZM60.36,64.8c-.09.78.46,1.49,1.24,1.59s1.49-.46,1.59-1.24-.46-1.49-1.24-1.59-1.49.46-1.59,1.24Z"/>
            </g>
            <g>
              <circle class="cls-1" cx="61.54" cy="66.86" r="1.54"/>
              <path class="cls-4" d="M63.18,67.06c-.11.9-.93,1.55-1.83,1.44s-1.55-.93-1.44-1.83.93-1.55,1.83-1.44,1.55.93,1.44,1.83ZM60.13,66.69c-.09.78.46,1.49,1.24,1.59s1.49-.46,1.59-1.24-.46-1.49-1.24-1.59-1.49.46-1.59,1.24Z"/>
            </g>
            <g>
              <circle class="cls-1" cx="61.24" cy="69.33" r="1.54"/>
              <path class="cls-4" d="M62.88,69.53c-.11.9-.93,1.55-1.83,1.44s-1.55-.93-1.44-1.83.93-1.55,1.83-1.44,1.55.93,1.44,1.83ZM59.83,69.16c-.09.78.46,1.49,1.24,1.59s1.49-.46,1.59-1.24-.46-1.49-1.24-1.59-1.49.46-1.59,1.24Z"/>
            </g>
            <g>
              <circle class="cls-1" cx="64.19" cy="63.96" r="1.54"/>
              <path class="cls-4" d="M65.82,64.16c-.11.9-.93,1.55-1.83,1.44s-1.55-.93-1.44-1.83.93-1.55,1.83-1.44,1.55.93,1.44,1.83ZM62.77,63.79c-.09.78.46,1.49,1.24,1.59s1.49-.46,1.59-1.24-.46-1.49-1.24-1.59-1.49.46-1.59,1.24Z"/>
            </g>
            <g>
              <circle class="cls-1" cx="63.91" cy="66.28" r="1.54"/>
              <path class="cls-4" d="M65.54,66.48c-.11.9-.93,1.55-1.83,1.44s-1.55-.93-1.44-1.83.93-1.55,1.83-1.44,1.55.93,1.44,1.83ZM62.49,66.11c-.09.78.46,1.49,1.24,1.59s1.49-.46,1.59-1.24-.46-1.49-1.24-1.59-1.49.46-1.59,1.24Z"/>
            </g>
            <g>
              <circle class="cls-1" cx="63.63" cy="68.59" r="1.54"/>
              <path class="cls-4" d="M65.26,68.79c-.11.9-.93,1.55-1.83,1.44s-1.55-.93-1.44-1.83.93-1.55,1.83-1.44,1.55.93,1.44,1.83ZM62.21,68.42c-.09.78.46,1.49,1.24,1.59s1.49-.46,1.59-1.24-.46-1.49-1.24-1.59-1.49.46-1.59,1.24Z"/>
            </g>
            <g>
              <circle class="cls-1" cx="63.35" cy="70.84" r="1.54"/>
              <path class="cls-4" d="M64.99,71.03c-.11.9-.93,1.55-1.83,1.44s-1.55-.93-1.44-1.83.93-1.55,1.83-1.44,1.55.93,1.44,1.83ZM61.94,70.66c-.09.78.46,1.49,1.24,1.59s1.49-.46,1.59-1.24-.46-1.49-1.24-1.59-1.49.46-1.59,1.24Z"/>
            </g>
          </g>
        </g>
      </g>
      <g>
        <g>
          <g>
            <g>
              <path class="cls-4" d="M84.32,14.17c-.42.17-.64.49-1.06.67-.35.15-.91.15-1.27.29-.03.01-.26.11-.33.38-.04.16-.02.34.09.49l.76,1.01c.22.3.67.31.9.01l1.57-1.97c.37-.46-.12-1.11-.66-.88Z"/>
              <path class="cls-4" d="M82.97,17.49h-.01c-.26,0-.49-.12-.65-.33l-.76-1.01c-.15-.21-.2-.46-.13-.71.1-.37.42-.52.48-.54.2-.08.45-.12.69-.16.21-.03.43-.07.58-.13.18-.07.32-.18.48-.3.17-.13.35-.27.59-.37h0c.35-.14.74-.04.97.27s.22.71-.02,1.01l-1.57,1.97c-.16.2-.39.31-.64.31ZM84.55,14.37s-.08,0-.13.03h0c-.18.07-.32.18-.48.3-.17.13-.35.27-.59.37-.2.08-.45.12-.69.16-.21.03-.43.07-.58.13,0,0-.15.06-.19.21-.03.1,0,.2.05.28l.76,1.01c.06.08.15.13.25.13h0c.1,0,.19-.04.25-.12l1.57-1.97c.11-.14.08-.3,0-.39-.05-.07-.14-.13-.25-.13Z"/>
            </g>
            <g>
              <path class="cls-4" d="M64.62,17.93c-1.84-1.48-2.06-2.55-1.91-3.28.35-1.68,2.88-2.18,3.46-4.03.37-1.2-.28-2.32-.89-3.07"/>
              <path class="cls-4" d="M63.83,18.91c-1.88-1.5-2.67-3.02-2.35-4.52.27-1.3,1.25-2.04,2.11-2.69.62-.47,1.2-.91,1.37-1.45.16-.52-.06-1.16-.67-1.91l1.96-1.58c1.45,1.8,1.41,3.3,1.11,4.24-.41,1.31-1.43,2.09-2.25,2.71-.56.43-1.09.83-1.17,1.21-.1.46.45,1.22,1.46,2.03l-1.58,1.97Z"/>
            </g>
            <g>
              <path class="cls-6" d="M72.79,23.29c-5.83-.04-10.51-6.39-10.51-6.39,0,0,4.76-6.29,10.59-6.25s10.51,6.39,10.51,6.39c0,0-4.76,6.29-10.59,6.25Z"/>
              <path class="cls-4" d="M72.84,23.54s-.04,0-.05,0c-5.89-.04-10.52-6.23-10.71-6.49l-.11-.15.11-.15c.2-.26,4.88-6.35,10.74-6.35.02,0,.04,0,.05,0,5.89.04,10.52,6.23,10.71,6.49l.11.15-.11.15c-.2.26-4.88,6.35-10.74,6.35ZM62.6,16.91c.76.96,5.06,6.1,10.19,6.13.02,0,.03,0,.05,0,5.11,0,9.45-5.06,10.22-6-.76-.96-5.06-6.1-10.19-6.13-5.14-.04-9.5,5.06-10.27,6Z"/>
            </g>
            <g>
              <path class="cls-4" d="M72.18,21.09c-3.44-.6-5.59-4.82-5.59-4.82,0,0,3.44-3.25,6.89-2.65s5.59,4.82,5.59,4.82c0,0-3.44,3.25-6.89,2.65Z"/>
              <path class="cls-4" d="M73.06,21.42c-.3,0-.61-.02-.92-.08h0c-3.53-.61-5.68-4.78-5.77-4.95l-.09-.17.14-.13c.14-.14,3.57-3.33,7.1-2.72,3.53.61,5.68,4.78,5.77,4.95l.09.17-.14.13c-.13.12-3,2.8-6.18,2.8ZM72.22,20.84c2.9.5,5.85-1.87,6.53-2.46-.44-.78-2.42-4.01-5.31-4.52-2.89-.5-5.85,1.87-6.53,2.46.44.78,2.42,4.01,5.31,4.52h0Z"/>
            </g>
            <g>
              <path class="cls-6" d="M71.36,19.93c-2.9-.47-4.71-3.82-4.71-3.82,0,0,2.9-2.58,5.8-2.1s4.71,3.82,4.71,3.82c0,0-2.9,2.58-5.8,2.1Z"/>
              <path class="cls-4" d="M72.1,20.24c-.26,0-.52-.02-.78-.06-2.99-.49-4.82-3.81-4.89-3.95l-.09-.18.15-.13c.12-.11,3.03-2.65,6.01-2.16,2.99.49,4.82,3.81,4.89,3.95l.09.18-.15.13c-.11.1-2.54,2.22-5.23,2.22ZM66.98,16.17c.42.68,2.06,3.13,4.43,3.51,2.38.39,4.81-1.4,5.44-1.91-.42-.68-2.06-3.13-4.43-3.51-2.38-.39-4.81,1.4-5.44,1.91Z"/>
            </g>
          </g>
          <g>
            <g>
              <circle class="cls-6" cx="64.63" cy="9.13" r="2.64"/>
              <path class="cls-4" d="M64.63,12.02c-1.59,0-2.89-1.3-2.89-2.89s1.3-2.89,2.89-2.89,2.89,1.3,2.89,2.89-1.3,2.89-2.89,2.89ZM64.63,6.74c-1.32,0-2.39,1.07-2.39,2.39s1.07,2.39,2.39,2.39,2.39-1.07,2.39-2.39-1.07-2.39-2.39-2.39Z"/>
            </g>
            <circle class="cls-4" cx="64.63" cy="8.47" r=".66"/>
            <g>
              <path class="cls-7" d="M59.48,8.58c.44-.11.81,0,1.25-.11.37-.1.82-.43,1.19-.53.03,0,.28-.07.49.1.13.1.22.26.22.45v1.26c0,.37-.35.65-.71.55l-2.44-.63c-.57-.15-.57-.96,0-1.11Z"/>
              <path class="cls-4" d="M62.07,10.58c-.07,0-.14,0-.21-.03l-2.44-.63c-.37-.1-.62-.42-.62-.8s.25-.7.62-.8h0c.25-.07.48-.06.69-.06.19,0,.37,0,.56-.05.16-.04.35-.14.54-.24.21-.11.44-.23.65-.28.06-.02.4-.09.71.15.2.16.32.39.32.65v1.26c0,.26-.12.49-.32.65-.15.11-.32.17-.5.17ZM60,8.77c-.15,0-.3,0-.45.05h0c-.18.05-.24.19-.24.31s.06.26.24.31l2.44.63c.1.02.2,0,.28-.06.08-.06.12-.15.12-.25v-1.26c0-.1-.05-.19-.12-.25-.12-.09-.27-.06-.27-.06-.16.04-.35.14-.54.24-.21.11-.44.23-.65.28-.25.07-.48.06-.69.06-.04,0-.07,0-.11,0Z"/>
            </g>
            <g>
              <circle class="cls-2" cx="61.71" cy="9.03" r=".16"/>
              <path class="cls-4" d="M61.71,9.28c-.14,0-.25-.11-.25-.25s.11-.25.25-.25.25.11.25.25-.11.25-.25.25ZM61.71,8.95s-.08.04-.08.08.04.08.08.08.08-.04.08-.08-.04-.08-.08-.08Z"/>
            </g>
          </g>
        </g>
        <rect class="cls-4" x="71.37" y="23.62" width="11.83" height=".5" transform="translate(-2.16 39.08) rotate(-28)"/>
        <rect class="cls-4" x="70.86" y="24.88" width="14.19" height=".5" transform="translate(-2.68 39.54) rotate(-28)"/>
        <rect class="cls-4" x="70.11" y="26.14" width="17.03" height=".5" transform="translate(-3.19 40) rotate(-28)"/>
        <rect class="cls-4" x="69.08" y="27.41" width="20.44" height=".5" transform="translate(-3.7 40.46) rotate(-28)"/>
        <rect class="cls-4" x="67.7" y="28.67" width="24.52" height=".5" transform="translate(-4.22 40.93) rotate(-28)"/>
      </g>
      <g>
        <rect class="cls-4" x="20.69" y="26.27" width="6.68" height=".19" transform="translate(-11.63 25.32) rotate(-45.98)"/>
        <rect class="cls-4" x="20.6" y="26.83" width="8.01" height=".19" transform="translate(-11.85 25.91) rotate(-45.98)"/>
        <rect class="cls-4" x="20.38" y="27.39" width="9.62" height=".19" transform="translate(-12.08 26.5) rotate(-45.98)"/>
        <rect class="cls-4" x="20" y="27.95" width="11.54" height=".19" transform="translate(-12.31 27.09) rotate(-45.98)"/>
        <rect class="cls-4" x="19.43" y="28.51" width="13.85" height=".19" transform="translate(-12.53 27.68) rotate(-45.99)"/>
        <rect class="cls-4" x="5.24" y="20.63" width="6.68" height=".19" transform="translate(-12.76 27.64) rotate(-85.46)"/>
        <rect class="cls-4" x="3.77" y="20.57" width="8.01" height=".19" transform="translate(-13.44 26.78) rotate(-85.46)"/>
        <rect class="cls-4" x="2.16" y="20.5" width="9.62" height=".19" transform="translate(-14.12 25.92) rotate(-85.46)"/>
        <rect class="cls-4" x=".4" y="20.44" width="11.54" height=".19" transform="translate(-14.79 25.06) rotate(-85.46)"/>
        <rect class="cls-4" x="-1.56" y="20.38" width="13.85" height=".19" transform="translate(-15.47 24.2) rotate(-85.46)"/>
        <rect class="cls-4" x="21.26" y="8.86" width=".19" height="6.68" transform="translate(.65 25.46) rotate(-62.38)"/>
        <rect class="cls-4" x="21.63" y="7.48" width=".19" height="8.01" transform="translate(1.48 25.41) rotate(-62.38)"/>
        <rect class="cls-4" x="22" y="5.96" width=".19" height="9.62" transform="translate(2.31 25.36) rotate(-62.38)"/>
        <rect class="cls-4" x="22.38" y="4.28" width=".19" height="11.54" transform="translate(3.15 25.3) rotate(-62.38)"/>
        <rect class="cls-4" x="22.75" y="2.41" width=".19" height="13.85" transform="translate(3.98 25.25) rotate(-62.38)"/>
        <g>
          <g>
            <path class="cls-1" d="M19.45,56.75c-.48.2-1.33.49-2.41.47-.98-.02-1.76-.27-2.23-.47.07-1.9.14-3.8.21-5.69,0-.03,0-.07,0-.1h4.29s0,.06,0,.09c.05,1.9.09,3.8.14,5.71Z"/>
            <path class="cls-4" d="M17.13,57.31s-.06,0-.1,0c-.78-.01-1.54-.17-2.26-.48l-.06-.03.22-5.95h4.47v.18s.14,5.77.14,5.77l-.06.03c-.75.32-1.55.48-2.36.48ZM14.9,56.69c.68.28,1.4.43,2.13.44.8.01,1.57-.14,2.32-.44l-.14-5.63h-4.1l-.21,5.64Z"/>
          </g>
          <g>
            <path class="cls-6" d="M19.31,50.96h-4.29c.28-7.57.57-15.13.85-22.69,0,0,0-.02,0-.03.08-2.07.15-4.15.23-6.22.14-.11.57-.43,1.21-.44.69-.02,1.17.34,1.3.44.05,2.09.1,4.19.15,6.28,0,0,0,.02,0,.03.18,7.54.36,15.09.54,22.63Z"/>
            <path class="cls-4" d="M19.4,51.05h-4.48l.85-22.82c.08-2.07.15-4.14.23-6.22v-.04s.04-.03.04-.03c.21-.17.65-.45,1.26-.46.66-.02,1.14.28,1.36.46l.03.03.15,6.33s0,0,0,.01h0s.55,22.74.55,22.74ZM15.12,50.86h4.09l-.54-22.54v-.02s-.15-6.24-.15-6.24c-.19-.14-.62-.41-1.2-.4-.53.01-.91.24-1.12.4-.08,2.06-.15,4.12-.23,6.17h0s0,.02,0,.03l-.85,22.59Z"/>
          </g>
          <g>
            <path class="cls-6" d="M15.87,28.23s0,.02,0,.03c0,0,0,0-.01,0v-.02Z"/>
            <path class="cls-6" d="M18.77,28.32s0,0-.01,0c0,0,0-.02,0-.03v.02Z"/>
          </g>
        </g>
        <g>
          <polygon class="cls-6" points="18.14 20.34 40.33 7.58 25.39 20.92 18.14 20.34"/>
          <path class="cls-4" d="M25.42,21.02l-7.59-.6,23.24-13.37-15.65,13.97ZM18.46,20.27l6.9.55,14.23-12.7-21.13,12.15Z"/>
        </g>
        <g>
          <polygon class="cls-6" points="17.29 20.72 4.05 42.62 10.67 23.72 17.29 20.72"/>
          <path class="cls-4" d="M3.66,43.45l6.93-19.8.04-.02,6.9-3.13L3.66,43.45ZM10.75,23.79l-6.3,18,12.61-20.86-6.31,2.86Z"/>
        </g>
        <g>
          <polygon class="cls-6" points="17.46 20.01 .75 .63 16.66 12.79 17.46 20.01"/>
          <path class="cls-4" d="M17.59,20.31L.08,0l16.67,12.74v.04s.84,7.53.84,7.53ZM1.41,1.26l15.92,18.46-.76-6.88L1.41,1.26Z"/>
        </g>
        <g>
          <circle class="cls-6" cx="17.46" cy="20.43" r="1.99"/>
          <path class="cls-4" d="M17.46,22.51c-1.15,0-2.08-.93-2.08-2.08s.93-2.08,2.08-2.08,2.08.93,2.08,2.08-.93,2.08-2.08,2.08ZM17.46,18.54c-1.04,0-1.89.85-1.89,1.89s.85,1.89,1.89,1.89,1.89-.85,1.89-1.89-.85-1.89-1.89-1.89Z"/>
        </g>
        <g>
          <path class="cls-4" d="M15.02,50.96h0s0,.07,0,.1v-.1Z"/>
          <path class="cls-4" d="M19.31,50.96v.09s0-.06,0-.09h0Z"/>
        </g>
      </g>
      <g>
        <g>
          <rect class="cls-4" x="95.43" y="56.24" width="1.92" height="25.2" rx=".96" ry=".96"/>
          <path class="cls-5" d="M97.23,81.47h-1.69c-.08,0-.15-.07-.15-.15v-24.97c0-.08.07-.15.15-.15h1.69c.08,0,.15.07.15.15v24.97c0,.08-.07.15-.15.15ZM95.54,56.27s-.08.04-.08.08v24.97s.04.08.08.08h1.69s.08-.04.08-.08v-24.97s-.04-.08-.08-.08h-1.69Z"/>
        </g>
        <g>
          <g>
            <path class="cls-6" d="M93.8,36.81l-.02-.03c-.39.23-1.21.61-2.27.55-.88-.05-1.56-.37-1.98-.64l-.02.03c.11-2.99.23-5.97.34-8.96.21-.16.85-.62,1.79-.64,1.02-.02,1.73.48,1.92.64.07,3.02.15,6.03.22,9.05Z"/>
            <path class="cls-4" d="M91.73,37.44c-.07,0-.14,0-.22,0-.85-.05-1.51-.34-1.94-.6l-.17.27.36-9.39.04-.03c.31-.24.95-.64,1.85-.66.96-.02,1.66.4,1.99.66l.04.03v.05s.23,9.45.23,9.45l-.17-.29c-.4.22-1.11.52-2.02.52ZM89.63,36.63c.41.26,1.06.56,1.9.6,1,.05,1.78-.29,2.17-.52l-.22-8.9c-.27-.2-.93-.61-1.82-.59-.8.02-1.39.36-1.69.59l-.34,8.81Z"/>
          </g>
          <g>
            <path class="cls-5" d="M94.82,77.79c-.72.29-1.97.7-3.57.68-1.46-.02-2.61-.39-3.3-.68.53-13.68,1.05-27.36,1.58-41.03.42.27,1.11.59,1.99.64.07,0,.14,0,.22,0,.95,0,1.7-.34,2.07-.56.34,13.65.67,27.3,1.01,40.94Z"/>
            <path class="cls-4" d="M91.38,78.57s-.09,0-.14,0c-1.15-.02-2.27-.25-3.34-.69l-.07-.03v-.07s1.59-41.21,1.59-41.21l.15.09c.41.26,1.08.58,1.95.63.06,0,.13,0,.21,0,.94,0,1.67-.34,2.02-.54l.15-.09,1.02,41.18-.06.03c-1.11.46-2.28.69-3.47.69ZM88.05,77.73c1.02.41,2.1.63,3.2.64,1.19.02,2.36-.2,3.47-.64l-1.01-40.71c-.41.21-1.11.49-1.98.49-.08,0-.15,0-.22,0-.81-.04-1.46-.31-1.89-.57l-1.57,40.79Z"/>
          </g>
          <g>
            <path class="cls-6" d="M93.81,36.85c-.38.22-1.12.56-2.07.56-.07,0-.14,0-.22,0-.89-.05-1.57-.37-1.99-.64,0-.01,0-.03,0-.04l.02-.03c.41.27,1.09.59,1.98.64,1.05.06,1.87-.32,2.27-.55l.02.03s0,.02,0,.04Z"/>
            <path class="cls-4" d="M91.73,37.51c-.08,0-.15,0-.22,0-.91-.05-1.61-.38-2.04-.66l-.05-.03v-.12s.09-.14.09-.14l.09.06c.4.26,1.07.58,1.93.63,1.03.06,1.83-.31,2.21-.54l.09-.05.08.14v.12s-.05.03-.05.03c-.37.21-1.14.57-2.12.57Z"/>
          </g>
          <path class="cls-4" d="M93.82,36.84s-.01,0-.02,0c-.38.22-1.12.56-2.07.56-.07,0-.14,0-.22,0-.89-.05-1.57-.37-1.99-.64,0,0-.01,0-.02-.01l.02-.03.02-.03c.41.27,1.09.59,1.98.64,1.05.06,1.87-.32,2.27-.55l.02.03.02.03Z"/>
          <g>
            <polygon class="cls-3" points="93.18 29.57 92.25 29.8 93.12 30.17 92.17 30.02 92.81 30.7 92.01 30.2 92.3 31.06 91.79 30.3 91.68 31.2 91.55 30.3 91.07 31.09 91.33 30.21 90.55 30.75 91.17 30.05 90.23 30.24 91.09 29.83 90.16 29.65 91.11 29.6 90.34 29.07 91.23 29.4 90.76 28.62 91.43 29.26 91.34 28.36 91.66 29.21 91.97 28.35 91.9 29.25 92.55 28.58 92.09 29.38 92.97 29.01 92.22 29.58 93.18 29.57"/>
            <path class="cls-6" d="M91.69,31.45l-.15-1.06-.58.93.31-1.03-.92.64.73-.83-1.12.23,1.02-.48-1.11-.22,1.14-.05-.91-.63,1.05.39-.55-.92.78.76-.11-1.06.38,1,.36-1.02-.08,1.07.77-.8-.53.95,1.04-.44-.9.67h1.14s-1.1.27-1.1.27l1.03.43-1.12-.18.75.79-.94-.59.34,1.02-.6-.9-.13,1.06ZM91.57,30.2l.11.74.09-.75.42.63-.24-.71.65.41-.52-.55.77.12-.71-.3.76-.19h-.78s.62-.46.62-.46l-.72.3.37-.66-.53.55.06-.75-.25.71-.27-.7.07.74-.55-.53.39.65-.72-.27.63.43-.78.03.76.15-.7.33.76-.16-.51.57.64-.44-.22.72.4-.65Z"/>
          </g>
          <g>
            <polygon class="cls-3" points="93.17 49.58 92.24 49.81 93.11 50.17 92.17 50.02 92.8 50.7 92.01 50.2 92.3 51.06 91.79 50.3 91.68 51.2 91.55 50.3 91.06 51.09 91.33 50.21 90.55 50.75 91.16 50.05 90.23 50.24 91.09 49.83 90.15 49.65 91.11 49.6 90.34 49.07 91.23 49.4 90.76 48.62 91.42 49.26 91.33 48.36 91.66 49.21 91.96 48.35 91.89 49.25 92.54 48.58 92.09 49.38 92.97 49.01 92.21 49.58 93.17 49.58"/>
            <path class="cls-6" d="M91.68,51.45l-.15-1.06-.58.93.31-1.03-.92.64.73-.83-1.12.23,1.02-.48-1.11-.22,1.14-.05-.91-.63,1.05.39-.55-.92.78.76-.11-1.06.38,1,.36-1.02-.08,1.07.77-.8-.53.95,1.04-.44-.9.67h1.14s-1.1.27-1.1.27l1.03.43-1.12-.18.75.79-.94-.59.34,1.02-.6-.9-.13,1.06ZM91.57,50.21l.11.74.09-.75.42.63-.24-.71.65.41-.52-.55.77.12-.71-.3.76-.19h-.78s.62-.46.62-.46l-.72.3.37-.66-.53.55.06-.75-.25.71-.27-.7.07.74-.55-.53.39.65-.72-.27.63.43-.78.03.76.15-.7.33.76-.16-.51.57.64-.44-.22.72.4-.65Z"/>
          </g>
          <g>
            <polygon class="cls-3" points="93.18 66.69 92.25 66.92 93.12 67.28 92.17 67.14 92.81 67.81 92.01 67.31 92.3 68.17 91.79 67.41 91.68 68.31 91.55 67.41 91.07 68.2 91.33 67.32 90.55 67.86 91.17 67.16 90.23 67.35 91.09 66.94 90.16 66.76 91.11 66.72 90.34 66.18 91.23 66.51 90.76 65.73 91.43 66.38 91.34 65.47 91.66 66.32 91.97 65.46 91.9 66.36 92.55 65.69 92.09 66.49 92.97 66.12 92.22 66.69 93.18 66.69"/>
            <path class="cls-6" d="M91.69,68.57l-.15-1.06-.58.93.31-1.03-.92.64.73-.83-1.12.23,1.02-.48-1.11-.22,1.14-.05-.91-.63,1.05.39-.55-.92.78.76-.11-1.06.38,1,.36-1.02-.08,1.07.77-.8-.53.95,1.04-.44-.9.67h1.14s-1.1.27-1.1.27l1.03.43-1.12-.18.75.79-.94-.59.34,1.02-.6-.9-.13,1.06ZM91.57,67.32l.11.74.09-.74.42.63-.24-.71.65.41-.52-.55.77.12-.71-.3.76-.19h-.78s.62-.46.62-.46l-.72.3.37-.66-.53.55.06-.75-.25.71-.27-.7.07.74-.55-.53.39.65-.72-.27.63.43-.78.03.76.15-.7.33.76-.16-.51.57.64-.44-.22.72.4-.65Z"/>
          </g>
        </g>
        <g>
          <g>
            <rect class="cls-4" x="91.52" y="74.95" width="4.87" height="9.32"/>
            <path class="cls-6" d="M96.42,84.3h-4.93v-9.39h4.93v9.39ZM91.56,84.23h4.8v-9.26h-4.8v9.26Z"/>
          </g>
          <g>
            <rect class="cls-4" x="86.68" y="73.69" width="7.04" height="10.62"/>
            <path class="cls-6" d="M93.75,84.34h-7.11v-10.68h7.11v10.68ZM86.71,84.27h6.97v-10.55h-6.97v10.55Z"/>
          </g>
          <g>
            <rect class="cls-4" x="84.47" y="75.21" width="4.41" height="9.06"/>
            <path class="cls-6" d="M88.92,84.3h-4.48v-9.13h4.48v9.13ZM84.51,84.23h4.34v-8.99h-4.34v8.99Z"/>
          </g>
        </g>
        <g>
          <rect class="cls-5" x="95.43" y="59.02" width="1.92" height="25.2" rx=".96" ry=".96"/>
          <path class="cls-4" d="M97.23,84.25h-1.69c-.08,0-.15-.07-.15-.15v-24.97c0-.08.07-.15.15-.15h1.69c.08,0,.15.07.15.15v24.97c0,.08-.07.15-.15.15ZM95.54,59.05s-.08.04-.08.08v24.97s.04.08.08.08h1.69s.08-.04.08-.08v-24.97s-.04-.08-.08-.08h-1.69Z"/>
        </g>
      </g>
      <g>
        <g>
          <polygon class="cls-3" points="43.89 69.26 43.3 68.71 43.42 69.47 43.1 68.75 42.89 69.48 42.9 68.71 42.38 69.28 42.73 68.6 42 68.9 42.61 68.43 41.8 68.42 42.58 68.24 41.82 67.92 42.63 68.06 42.06 67.48 42.76 67.91 42.47 67.18 42.94 67.83 42.99 67.07 43.14 67.83 43.52 67.17 43.33 67.91 43.97 67.46 43.48 68.05 44.27 67.9 43.56 68.23 44.36 68.4 43.55 68.42 44.23 68.88 43.46 68.59 43.89 69.26"/>
          <path class="cls-8" d="M42.86,69.67l.02-.89-.6.65.4-.78-.84.35.71-.54h-.94s.9-.22.9-.22l-.88-.37.94.16-.67-.67.81.5-.33-.86.54.76.06-.89.18.89.44-.77-.21.86.74-.51-.57.68.91-.18-.83.39.93.2-.94.03.79.54-.9-.34.51.78-.7-.65.14.89-.37-.84-.25.84ZM42.93,68.64v.64s.17-.61.17-.61l.26.6-.1-.64.49.46-.36-.56.64.24-.56-.38.68-.02-.67-.14.6-.28-.66.13.41-.49-.54.37.15-.62-.32.55-.13-.63-.04.64-.39-.54.24.61-.58-.36.47.48-.67-.11.63.27-.65.15h.68s-.52.4-.52.4l.61-.26-.29.57.44-.47Z"/>
        </g>
        <g>
          <polygon class="cls-3" points="33.77 70.14 33.17 69.59 33.29 70.35 32.98 69.63 32.76 70.36 32.77 69.59 32.26 70.16 32.6 69.48 31.87 69.79 32.49 69.32 31.67 69.31 32.45 69.12 31.7 68.8 32.5 68.94 31.93 68.36 32.63 68.8 32.34 68.06 32.81 68.72 32.86 67.95 33.02 68.71 33.39 68.05 33.21 68.79 33.84 68.35 33.35 68.93 34.14 68.78 33.43 69.12 34.23 69.28 33.42 69.31 34.1 69.77 33.33 69.48 33.77 70.14"/>
          <path class="cls-8" d="M32.73,70.55l.02-.89-.6.65.4-.78-.84.35.71-.54h-.94s.9-.22.9-.22l-.88-.37.94.16-.67-.67.81.5-.33-.86.54.76.06-.89.18.89.44-.77-.21.86.74-.51-.57.68.91-.18-.83.39.93.2-.94.03.79.54-.9-.34.51.78-.7-.65.14.89-.37-.84-.25.85ZM32.8,69.53v.64s.17-.61.17-.61l.26.6-.1-.64.49.46-.36-.56.64.24-.56-.38.68-.02-.67-.14.6-.28-.66.13.41-.49-.54.37.15-.62-.32.55-.13-.63-.04.64-.39-.54.24.61-.58-.36.47.48-.67-.11.63.27-.65.15h.68s-.52.4-.52.4l.61-.26-.29.57.44-.47Z"/>
        </g>
        <g>
          <polygon class="cls-3" points="5.75 69.72 5.16 69.17 5.28 69.93 4.96 69.21 4.74 69.94 4.76 69.17 4.24 69.74 4.59 69.06 3.86 69.36 4.47 68.89 3.66 68.88 4.44 68.7 3.68 68.38 4.49 68.52 3.92 67.94 4.62 68.37 4.33 67.64 4.8 68.29 4.85 67.53 5 68.29 5.38 67.63 5.19 68.37 5.83 67.92 5.34 68.51 6.13 68.36 5.42 68.69 6.22 68.86 5.41 68.88 6.09 69.34 5.32 69.05 5.75 69.72"/>
          <path class="cls-8" d="M4.71,70.13l.02-.89-.6.65.4-.78-.84.35.71-.54h-.94s.9-.22.9-.22l-.88-.37.94.16-.67-.67.81.5-.33-.86.54.76.06-.89.18.89.44-.77-.21.86.74-.51-.57.68.91-.18-.83.39.93.2-.94.03.79.54-.9-.34.51.78-.7-.65.14.89-.37-.84-.25.84ZM4.79,69.1v.64s.17-.61.17-.61l.26.6-.1-.64.49.46-.36-.56.64.24-.56-.38.68-.02-.67-.14.6-.28-.66.13.41-.49-.54.37.15-.62-.32.55-.13-.63-.04.64-.39-.54.24.61-.58-.36.47.48-.67-.11.63.27-.65.15h.68s-.52.4-.52.4l.61-.26-.29.57.44-.47Z"/>
        </g>
        <g>
          <polygon class="cls-3" points="15.25 69.95 14.66 69.39 14.78 70.16 14.46 69.44 14.24 70.16 14.26 69.4 13.74 69.96 14.08 69.29 13.36 69.59 13.97 69.12 13.16 69.11 13.94 68.93 13.18 68.61 13.99 68.74 13.42 68.17 14.11 68.6 13.83 67.87 14.29 68.52 14.34 67.76 14.5 68.52 14.87 67.86 14.69 68.59 15.33 68.15 14.84 68.74 15.62 68.59 14.91 68.92 15.72 69.09 14.9 69.11 15.58 69.57 14.81 69.28 15.25 69.95"/>
          <path class="cls-8" d="M14.21,70.36l.02-.89-.6.65.4-.78-.84.35.71-.54h-.94s.9-.22.9-.22l-.88-.37.94.16-.67-.67.81.5-.33-.86.54.76.06-.89.18.89.44-.77-.21.86.74-.51-.57.68.91-.18-.83.39.93.2-.94.03.79.54-.9-.34.51.78-.7-.65.14.89-.37-.84-.25.85ZM14.29,69.33v.64s.17-.61.17-.61l.26.6-.1-.64.49.46-.36-.56.64.24-.56-.38.68-.02-.67-.14.6-.28-.66.13.41-.49-.54.37.15-.62-.32.55-.13-.63-.04.64-.39-.54.24.61-.58-.36.47.48-.67-.11.63.27-.65.15h.68s-.52.4-.52.4l.61-.26-.29.57.44-.47Z"/>
        </g>
        <g>
          <g>
            <g>
              <rect class="cls-6" x="34.74" y="66.06" width="1.81" height="16.47" rx=".9" ry=".9"/>
              <path class="cls-4" d="M35.91,82.55h-.53c-.37,0-.67-.28-.67-.62v-15.27c0-.34.3-.62.67-.62h.53c.37,0,.67.28.67.62v15.27c0,.34-.3.62-.67.62ZM35.38,66.09c-.34,0-.61.26-.61.57v15.27c0,.32.28.57.61.57h.53c.34,0,.61-.26.61-.57v-15.27c0-.32-.28-.57-.61-.57h-.53Z"/>
            </g>
            <g>
              <rect class="cls-6" x="10.93" y="66.06" width="1.81" height="16.47" rx=".9" ry=".9"/>
              <path class="cls-4" d="M12.1,82.55h-.53c-.37,0-.67-.28-.67-.62v-15.27c0-.34.3-.62.67-.62h.53c.37,0,.67.28.67.62v15.27c0,.34-.3.62-.67.62ZM11.57,66.09c-.34,0-.61.26-.61.57v15.27c0,.32.28.57.61.57h.53c.34,0,.61-.26.61-.57v-15.27c0-.32-.28-.57-.61-.57h-.53Z"/>
            </g>
            <g>
              <polygon class="cls-1" points="41.01 84.19 7.82 83.99 .15 81.49 47.53 81.01 41.01 84.19"/>
              <path class="cls-6" d="M41.01,84.22h0s-33.2-.2-33.2-.2h0s-7.81-2.56-7.81-2.56l47.64-.47-6.63,3.23ZM7.82,83.97l33.18.2,6.42-3.13-47.12.47,7.52,2.46Z"/>
            </g>
            <g>
              <polygon class="cls-4" points="41.26 67.41 6.01 67.37 14.64 61.87 32.21 61.77 41.26 67.41"/>
              <path class="cls-6" d="M41.35,67.44h-.09s-35.34-.05-35.34-.05l8.71-5.55,17.59-.1h0s9.13,5.7,9.13,5.7ZM6.09,67.34l35.08.05-8.97-5.6-17.55.1-8.55,5.45Z"/>
            </g>
            <g>
              <polygon class="cls-4" points="6.01 67.37 .15 65.55 12.41 62.09 14.64 61.87 6.01 67.37"/>
              <path class="cls-6" d="M6.01,67.39h-.01s-5.93-1.84-5.93-1.84l12.33-3.49,2.34-.23-8.73,5.56ZM.24,65.56l5.76,1.78,8.53-5.44-2.13.21L.24,65.56Z"/>
            </g>
            <g>
              <polygon class="cls-4" points="41.26 67.41 47.68 65.05 34.43 61.78 32.21 61.77 41.26 67.41"/>
              <path class="cls-6" d="M41.26,67.44h-.01s-9.13-5.7-9.13-5.7h2.32s13.32,3.3,13.32,3.3l-6.5,2.4ZM32.3,61.79l8.97,5.6,6.33-2.34-13.16-3.25h-2.13Z"/>
            </g>
            <g>
              <rect class="cls-6" x="15.85" y="68.53" width="1.81" height="16.47" rx=".9" ry=".9"/>
              <path class="cls-4" d="M17.02,85.03h-.53c-.37,0-.67-.28-.67-.62v-15.27c0-.34.3-.62.67-.62h.53c.37,0,.67.28.67.62v15.27c0,.34-.3.62-.67.62ZM16.5,68.56c-.34,0-.61.26-.61.57v15.27c0,.32.28.57.61.57h.53c.34,0,.61-.26.61-.57v-15.27c0-.32-.28-.57-.61-.57h-.53Z"/>
            </g>
            <g>
              <rect class="cls-6" x="6.01" y="68.53" width="1.81" height="16.47" rx=".9" ry=".9"/>
              <path class="cls-4" d="M7.17,85.03h-.53c-.37,0-.67-.28-.67-.62v-15.27c0-.34.3-.62.67-.62h.53c.37,0,.67.28.67.62v15.27c0,.34-.3.62-.67.62ZM6.65,68.56c-.34,0-.61.26-.61.57v15.27c0,.32.28.57.61.57h.53c.34,0,.61-.26.61-.57v-15.27c0-.32-.28-.57-.61-.57h-.53Z"/>
            </g>
            <g>
              <rect class="cls-6" x="44.64" y="66.06" width="1.81" height="16.47" rx=".9" ry=".9"/>
              <path class="cls-4" d="M45.81,82.55h-.53c-.37,0-.67-.28-.67-.62v-15.27c0-.34.3-.62.67-.62h.53c.37,0,.67.28.67.62v15.27c0,.34-.3.62-.67.62ZM45.28,66.09c-.34,0-.61.26-.61.57v15.27c0,.32.28.57.61.57h.53c.34,0,.61-.26.61-.57v-15.27c0-.32-.28-.57-.61-.57h-.53Z"/>
            </g>
            <g>
              <rect class="cls-6" x="1.73" y="66.76" width="1.81" height="16.47" rx=".9" ry=".9"/>
              <path class="cls-4" d="M2.9,83.25h-.53c-.37,0-.67-.28-.67-.62v-15.27c0-.34.3-.62.67-.62h.53c.37,0,.67.28.67.62v15.27c0,.34-.3.62-.67.62ZM2.37,66.78c-.34,0-.61.26-.61.57v15.27c0,.32.28.57.61.57h.53c.34,0,.61-.26.61-.57v-15.27c0-.32-.28-.57-.61-.57h-.53Z"/>
            </g>
            <g>
              <rect class="cls-6" x="29.1" y="68.53" width="1.81" height="16.47" rx=".9" ry=".9"/>
              <path class="cls-4" d="M30.27,85.03h-.53c-.37,0-.67-.28-.67-.62v-15.27c0-.34.3-.62.67-.62h.53c.37,0,.67.28.67.62v15.27c0,.34-.3.62-.67.62ZM29.74,68.56c-.34,0-.61.26-.61.57v15.27c0,.32.28.57.61.57h.53c.34,0,.61-.26.61-.57v-15.27c0-.32-.28-.57-.61-.57h-.53Z"/>
            </g>
            <g>
              <rect class="cls-6" x="39.38" y="68.53" width="1.81" height="16.47" rx=".9" ry=".9"/>
              <path class="cls-4" d="M40.55,85.03h-.53c-.37,0-.67-.28-.67-.62v-15.27c0-.34.3-.62.67-.62h.53c.37,0,.67.28.67.62v15.27c0,.34-.3.62-.67.62ZM40.02,68.56c-.34,0-.61.26-.61.57v15.27c0,.32.28.57.61.57h.53c.34,0,.61-.26.61-.57v-15.27c0-.32-.28-.57-.61-.57h-.53Z"/>
            </g>
            <g>
              <polygon class="cls-6" points=".72 67.37 6.01 69.03 6.01 67.41 .15 65.55 .72 67.37"/>
              <path class="cls-4" d="M6.03,69.07l-5.34-1.68-.59-1.87.05.02,5.87,1.87v1.67ZM.74,67.35l5.24,1.65v-1.57l-5.79-1.84.55,1.75Z"/>
            </g>
            <g>
              <rect class="cls-6" x="6.01" y="67.41" width="35.25" height="1.62"/>
              <path class="cls-4" d="M41.29,69.06H5.98v-1.67h35.31v1.67ZM6.03,69.01h35.2v-1.57H6.03v1.57Z"/>
            </g>
            <g>
              <polygon class="cls-6" points="47.35 66.67 41.33 69.03 41.33 67.41 47.68 65.05 47.35 66.67"/>
              <path class="cls-4" d="M41.3,69.07v-1.67h.02s6.39-2.39,6.39-2.39l-.34,1.68-6.07,2.39ZM41.36,67.43v1.57l5.97-2.35.32-1.56-6.28,2.34Z"/>
            </g>
            <g>
              <polygon class="cls-1" points="47.2 82.63 41.19 85 41.19 83.38 47.53 81.01 47.2 82.63"/>
              <path class="cls-6" d="M41.16,85.04v-1.67h.02s6.39-2.39,6.39-2.39l-.34,1.68-6.07,2.39ZM41.21,83.4v1.57l5.97-2.35.32-1.56-6.28,2.34Z"/>
            </g>
            <g>
              <polygon class="cls-1" points=".72 83.3 6.01 84.97 6.01 83.35 .15 81.49 .72 83.3"/>
              <path class="cls-6" d="M6.03,85l-5.34-1.68-.59-1.87.05.02,5.87,1.87v1.67ZM.74,83.28l5.24,1.65v-1.57l-5.79-1.84.55,1.75Z"/>
            </g>
            <g>
              <rect class="cls-1" x="5.94" y="83.38" width="35.25" height="1.62"/>
              <path class="cls-6" d="M41.22,85.03H5.91v-1.67h35.31v1.67ZM5.96,84.98h35.2v-1.57H5.96v1.57Z"/>
            </g>
          </g>
          <g>
            <line class="cls-4" x1="11.3" y1="63.99" x2="11.42" y2="67.29"/>
            <polygon class="cls-6" points="11.4 67.29 11.28 63.99 11.33 63.99 11.45 67.29 11.4 67.29"/>
          </g>
          <g>
            <line class="cls-4" x1="15.62" y1="61.85" x2="15.93" y2="67.41"/>
            <polygon class="cls-6" points="15.9 67.42 15.59 61.86 15.64 61.85 15.95 67.41 15.9 67.42"/>
          </g>
          <g>
            <line class="cls-4" x1="19.4" y1="61.77" x2="19.71" y2="67.41"/>
            <polygon class="cls-6" points="19.69 67.42 19.37 61.77 19.42 61.76 19.74 67.41 19.69 67.42"/>
          </g>
          <g>
            <line class="cls-4" x1="23.18" y1="61.77" x2="23.5" y2="67.41"/>
            <polygon class="cls-6" points="23.47 67.42 23.16 61.77 23.21 61.76 23.52 67.41 23.47 67.42"/>
          </g>
          <g>
            <line class="cls-4" x1="26.97" y1="61.85" x2="27.28" y2="67.41"/>
            <polygon class="cls-6" points="27.26 67.42 26.95 61.86 27 61.85 27.31 67.41 27.26 67.42"/>
          </g>
          <g>
            <line class="cls-4" x1="30.76" y1="61.77" x2="31.07" y2="67.41"/>
            <polygon class="cls-6" points="31.04 67.42 30.73 61.77 30.78 61.77 31.09 67.41 31.04 67.42"/>
          </g>
          <g>
            <line class="cls-6" x1="34.67" y1="62.65" x2="43.62" y2="66.27"/>
            <polygon class="cls-6" points="43.61 66.29 34.66 62.68 34.68 62.63 43.63 66.24 43.61 66.29"/>
          </g>
          <g>
            <line class="cls-6" x1="38.19" y1="64.77" x2="42.02" y2="66.51"/>
            <polygon class="cls-6" points="42.01 66.54 38.18 64.79 38.21 64.75 42.03 66.49 42.01 66.54"/>
          </g>
          <g>
            <line class="cls-6" x1="36.91" y1="62.84" x2="43.66" y2="65.14"/>
            <polygon class="cls-6" points="43.65 65.16 36.9 62.87 36.92 62.82 43.66 65.12 43.65 65.16"/>
          </g>
          <g>
            <line class="cls-4" x1="34.63" y1="63.33" x2="34.85" y2="67.41"/>
            <polygon class="cls-6" points="34.83 67.42 34.6 63.33 34.65 63.32 34.88 67.41 34.83 67.42"/>
          </g>
          <g>
            <line class="cls-4" x1="38.55" y1="65.72" x2="38.64" y2="67.41"/>
            <polygon class="cls-6" points="38.61 67.42 38.52 65.72 38.57 65.72 38.67 67.41 38.61 67.42"/>
          </g>
          <g>
            <line class="cls-4" x1="3.08" y1="65.37" x2="10.8" y2="62.87"/>
            <polygon class="cls-6" points="3.09 65.39 3.07 65.35 10.79 62.85 10.8 62.89 3.09 65.39"/>
          </g>
          <g>
            <line class="cls-4" x1="5.14" y1="66.39" x2="7.71" y2="65.37"/>
            <polygon class="cls-6" points="5.15 66.41 5.13 66.37 7.7 65.35 7.72 65.39 5.15 66.41"/>
          </g>
          <g>
            <line class="cls-4" x1="3.85" y1="65.88" x2="9.44" y2="64.12"/>
            <polygon class="cls-6" points="3.86 65.9 3.84 65.86 9.43 64.1 9.44 64.14 3.86 65.9"/>
          </g>
        </g>
        <g>
          <rect class="cls-4" x="18.35" y="77.53" width="10.47" height="1.03" rx=".51" ry=".51"/>
          <path class="cls-6" d="M28.26,78.58h-9.36c-.32,0-.58-.24-.58-.54s.26-.54.58-.54h9.36c.32,0,.58.24.58.54s-.26.54-.58.54ZM18.9,77.55c-.29,0-.52.22-.52.49s.24.49.52.49h9.36c.29,0,.52-.22.52-.49s-.24-.49-.52-.49h-9.36Z"/>
        </g>
        <g>
          <rect class="cls-4" x="18.33" y="79.29" width="10.47" height="1.03" rx=".51" ry=".51"/>
          <path class="cls-6" d="M28.25,80.34h-9.36c-.32,0-.58-.24-.58-.54s.26-.54.58-.54h9.36c.32,0,.58.24.58.54s-.26.54-.58.54ZM18.88,79.31c-.29,0-.52.22-.52.49s.24.49.52.49h9.36c.29,0,.52-.22.52-.49s-.24-.49-.52-.49h-9.36Z"/>
        </g>
        <g>
          <rect class="cls-4" x="26.58" y="77.61" width="1.09" height="4.38" rx=".54" ry=".54"/>
          <path class="cls-6" d="M27.13,82.01c-.31,0-.57-.24-.57-.53v-3.36c0-.29.26-.53.57-.53s.57.24.57.53v3.36c0,.29-.26.53-.57.53ZM27.13,77.64c-.29,0-.52.22-.52.48v3.36c0,.27.23.48.52.48s.52-.22.52-.48v-3.36c0-.27-.23-.48-.52-.48Z"/>
        </g>
        <g>
          <rect class="cls-4" x="19.41" y="77.61" width="1.09" height="4.38" rx=".54" ry=".54"/>
          <path class="cls-6" d="M19.96,82.01c-.31,0-.57-.24-.57-.53v-3.36c0-.29.26-.53.57-.53s.57.24.57.53v3.36c0,.29-.26.53-.57.53ZM19.96,77.64c-.29,0-.52.22-.52.48v3.36c0,.27.23.48.52.48s.52-.22.52-.48v-3.36c0-.27-.23-.48-.52-.48Z"/>
        </g>
      </g>
    </g>
  </g>
</svg>