<?xml version="1.0" encoding="UTF-8"?>
<svg id="Layer_2" data-name="Layer 2" xmlns="http://www.w3.org/2000/svg" viewBox="0 0 2302.77 688.14">
  <defs>
    <style>
      .cls-1 {
        fill: #146c95;
      }

      .cls-1, .cls-2 {
        font-family: Sitka-Heading, Sitka;
        font-size: 30px;
        font-variation-settings: 'opsz' 21, 'wght' 400;
      }

      .cls-3 {
        letter-spacing: .02em;
      }

      .cls-3, .cls-4, .cls-2 {
        fill: #471f15;
      }

      .cls-5, .cls-6 {
        letter-spacing: 0em;
      }

      .cls-5, .cls-7, .cls-8, .cls-9 {
        fill: #225329;
      }

      .cls-4 {
        stroke: #f8f0e5;
      }

      .cls-4, .cls-10, .cls-11, .cls-12, .cls-13, .cls-14, .cls-15, .cls-8 {
        stroke-miterlimit: 10;
      }

      .cls-10, .cls-13, .cls-15 {
        stroke: #192d56;
      }

      .cls-10, .cls-16 {
        fill: #192d56;
      }

      .cls-11, .cls-15 {
        fill: none;
        stroke-width: 5px;
      }

      .cls-11, .cls-8 {
        stroke: #225329;
      }

      .cls-12 {
        fill: #dac0a3;
      }

      .cls-12, .cls-14 {
        stroke: #471f15;
      }

      .cls-13 {
        fill: #afd3e1;
      }

      .cls-7, .cls-17, .cls-16 {
        font-family: PinyonScript-Regular, 'Pinyon Script';
        font-size: 72px;
      }

      .cls-14 {
        fill: #f6f1f1;
      }

      .cls-18, .cls-9 {
        letter-spacing: .02em;
      }

      .cls-19 {
        letter-spacing: 0em;
      }
    </style>
  </defs>
  <g id="Layer_1-2" data-name="Layer 1">
    <g>
      <text transform="translate(0 643.41)"><tspan class="cls-7"><tspan class="cls-18" x="0" y="0">Maiso</tspan><tspan class="cls-6" x="167.97" y="0">n</tspan><tspan class="cls-18" x="204.99" y="0" xml:space="preserve"> de Rose </tspan></tspan><tspan class="cls-2"><tspan x="66.23" y="36">the </tspan><tspan class="cls-19" x="113.3" y="36">w</tspan><tspan x="135.5" y="36">orld blooms with us </tspan></tspan></text>
      <g id="Thorns">
        <polygon class="cls-8" points="112.89 564.76 137.83 495.85 145.55 499.15 112.89 564.76"/>
        <polygon class="cls-8" points="330.79 .18 312.66 71.19 304.66 68.65 330.79 .18"/>
        <path class="cls-11" d="M297.03,257.55c33.74,55.38,45.26,116.69,36.3,169.62-81.87,37.99-191.34-6.59-251.55-105.41-33.74-55.38-45.26-116.69-36.3-169.62,81.87-37.99,191.34,6.59,251.55,105.41Z"/>
        <path class="cls-11" d="M378.11,265.61c0,71.78-22.11,136.36-57.36,181.23-31.33,39.92-73.05,64.26-118.85,64.26-97.31,0-176.2-109.91-176.2-245.49S104.59,20.12,201.91,20.12c5.38,0,10.7.33,15.97.99,89.83,11.24,160.24,116.42,160.24,244.5Z"/>
      </g>
      <g>
        <path class="cls-12" d="M274.91,104.65l-17.39-7.61c-4.8-2.11-10.41-.36-13.17,4.09l-15.33,24.66,22.68-.09,23.2-21.05Z"/>
        <path class="cls-12" d="M235.24,269.04l-30.39-97.88c-.85-2.74-.47-5.7,1.04-8.14l23.13-37.23-23.44.09c-4.96.02-9.25,3.5-10.27,8.35l-16.91,80.34c-.53,2.57-.03,5.25,1.4,7.44l54.14,82.74c2.55,3.89,6.88,6.22,11.53,6.2l17.01-.07-.25-.13,29.94-11.59-49.33-21.61c-3.65-1.6-6.43-4.7-7.61-8.51Z"/>
        <path class="cls-12" d="M245.08,247.91l-11.29-100.42c-.36-3.15.82-6.29,3.18-8.42l14.74-13.37-22.68.09-23.13,37.23c-1.51,2.44-1.89,5.4-1.04,8.14l30.39,97.88c1.18,3.8,3.96,6.91,7.61,8.51l49.33,21.61,8.23-3.19-50.09-38.73c-2.93-2.27-4.82-5.64-5.24-9.32Z"/>
        <path class="cls-12" d="M362.59,140.96l-61.97-47.9c-4.03-3.13-9.73-2.91-13.5.53l-12.21,11.06,48.5,21.24c3.16,1.39,5.58,4.1,6.61,7.4l30.33,97.68c1.04,3.35.58,7.01-1.28,9.99l-26.42,42.54,26.76-10.37,15.1-13.69c2.88-2.61,4.33-6.46,3.9-10.34l-11.25-100.02c-.36-3.21-2.02-6.14-4.57-8.12Z"/>
        <path class="cls-12" d="M360.34,230.97l-30.33-97.68c-1.03-3.3-3.44-6.01-6.61-7.4l-48.5-21.24-23.2,21.05,18.85-.06c4.04-.02,7.83,2.01,10.04,5.41l54.17,82.75c1.76,2.69,2.38,5.99,1.71,9.13l-13.53,64.32,9.7-3.75,26.42-42.54c1.86-2.98,2.32-6.63,1.28-9.99Z"/>
        <path class="cls-12" d="M334.76,213.8l-54.17-82.75c-2.21-3.39-5.99-5.43-10.04-5.41l-18.85.06-14.74,13.37c-2.36,2.13-3.54,5.27-3.18,8.42l11.29,100.42c.42,3.69,2.31,7.05,5.24,9.32l50.09,38.73,22.53-8.72,13.53-64.32c.67-3.14.05-6.44-1.71-9.13Z"/>
        <path class="cls-8" d="M360.86,271.66l-23.66,68.21c-1.75,5.03-7.58,7.28-12.25,4.75l-63.19-34.37-.25-.13,29.94-11.59,8.23-3.19,22.53-8.72,9.7-3.75,26.76-10.37,2.17-.84Z"/>
      </g>
    </g>
    <g>
      <text transform="translate(615.28 643.41)"><tspan class="cls-16"><tspan class="cls-18" x="0" y="0">Maiso</tspan><tspan class="cls-6" x="167.97" y="0">n</tspan><tspan class="cls-18" x="204.99" y="0" xml:space="preserve"> de Rose </tspan></tspan><tspan class="cls-1"><tspan x="66.23" y="36">the </tspan><tspan class="cls-19" x="113.3" y="36">w</tspan><tspan x="135.5" y="36">orld blooms with us </tspan></tspan></text>
      <g id="Thorns-2" data-name="Thorns">
        <polygon class="cls-10" points="728.16 564.76 753.11 495.85 760.82 499.15 728.16 564.76"/>
        <polygon class="cls-10" points="946.07 .18 927.94 71.19 919.93 68.65 946.07 .18"/>
        <path class="cls-15" d="M912.31,257.55c33.74,55.38,45.26,116.69,36.3,169.62-81.87,37.99-191.34-6.59-251.55-105.41-33.74-55.38-45.26-116.69-36.3-169.62,81.87-37.99,191.34,6.59,251.55,105.41Z"/>
        <path class="cls-15" d="M993.39,265.61c0,71.78-22.11,136.36-57.36,181.23-31.33,39.92-73.05,64.26-118.85,64.26-97.31,0-176.2-109.91-176.2-245.49S719.87,20.12,817.18,20.12c5.38,0,10.7.33,15.97.99,89.83,11.24,160.24,116.42,160.24,244.5Z"/>
      </g>
      <g>
        <path class="cls-13" d="M890.18,104.65l-17.39-7.61c-4.8-2.11-10.41-.36-13.17,4.09l-15.33,24.66,22.68-.09,23.2-21.05Z"/>
        <path class="cls-13" d="M850.52,269.04l-30.39-97.88c-.85-2.74-.47-5.7,1.04-8.14l23.13-37.23-23.44.09c-4.96.02-9.25,3.5-10.27,8.35l-16.91,80.34c-.53,2.57-.03,5.25,1.4,7.44l54.14,82.74c2.55,3.89,6.88,6.22,11.53,6.2l17.01-.07-.25-.13,29.94-11.59-49.33-21.61c-3.65-1.6-6.43-4.7-7.61-8.51Z"/>
        <path class="cls-13" d="M860.35,247.91l-11.29-100.42c-.36-3.15.82-6.29,3.18-8.42l14.74-13.37-22.68.09-23.13,37.23c-1.51,2.44-1.89,5.4-1.04,8.14l30.39,97.88c1.18,3.8,3.96,6.91,7.61,8.51l49.33,21.61,8.23-3.19-50.09-38.73c-2.93-2.27-4.82-5.64-5.24-9.32Z"/>
        <path class="cls-13" d="M977.86,140.96l-61.97-47.9c-4.03-3.13-9.73-2.91-13.5.53l-12.21,11.06,48.5,21.24c3.16,1.39,5.58,4.1,6.61,7.4l30.33,97.68c1.04,3.35.58,7.01-1.28,9.99l-26.42,42.54,26.76-10.37,15.1-13.69c2.88-2.61,4.33-6.46,3.9-10.34l-11.25-100.02c-.36-3.21-2.02-6.14-4.57-8.12Z"/>
        <path class="cls-13" d="M975.62,230.97l-30.33-97.68c-1.03-3.3-3.44-6.01-6.61-7.4l-48.5-21.24-23.2,21.05,18.85-.06c4.04-.02,7.83,2.01,10.04,5.41l54.17,82.75c1.76,2.69,2.38,5.99,1.71,9.13l-13.53,64.32,9.7-3.75,26.42-42.54c1.86-2.98,2.32-6.63,1.28-9.99Z"/>
        <path class="cls-13" d="M950.03,213.8l-54.17-82.75c-2.21-3.39-5.99-5.43-10.04-5.41l-18.85.06-14.74,13.37c-2.36,2.13-3.54,5.27-3.18,8.42l11.29,100.42c.42,3.69,2.31,7.05,5.24,9.32l50.09,38.73,22.53-8.72,13.53-64.32c.67-3.14.05-6.44-1.71-9.13Z"/>
        <path class="cls-10" d="M976.14,271.66l-23.66,68.21c-1.75,5.03-7.58,7.28-12.25,4.75l-63.19-34.37-.25-.13,29.94-11.59,8.23-3.19,22.53-8.72,9.7-3.75,26.76-10.37,2.17-.84Z"/>
      </g>
    </g>
    <g>
      <text transform="translate(1230.55 643.41)"><tspan class="cls-17"><tspan class="cls-9" x="0" y="0">Maiso</tspan><tspan class="cls-5" x="167.97" y="0">n</tspan><tspan class="cls-9" x="204.99" y="0" xml:space="preserve"> de Rose</tspan><tspan class="cls-3" x="439.26" y="0"> </tspan></tspan><tspan class="cls-2"><tspan x="66.23" y="36">the </tspan><tspan class="cls-19" x="113.3" y="36">w</tspan><tspan x="135.5" y="36">orld blooms with us </tspan></tspan></text>
      <g id="Thorns-3" data-name="Thorns">
        <polygon class="cls-8" points="1343.44 564.76 1368.38 495.85 1376.1 499.15 1343.44 564.76"/>
        <polygon class="cls-8" points="1561.34 .18 1543.21 71.19 1535.21 68.65 1561.34 .18"/>
        <path class="cls-11" d="M1527.58,257.55c33.74,55.38,45.26,116.69,36.3,169.62-81.87,37.99-191.34-6.59-251.55-105.41-33.74-55.38-45.26-116.69-36.3-169.62,81.87-37.99,191.34,6.59,251.55,105.41Z"/>
        <path class="cls-11" d="M1608.66,265.61c0,71.78-22.11,136.36-57.36,181.23-31.33,39.92-73.05,64.26-118.85,64.26-97.31,0-176.2-109.91-176.2-245.49s78.89-245.49,176.2-245.49c5.38,0,10.7.33,15.97.99,89.83,11.24,160.24,116.42,160.24,244.5Z"/>
      </g>
      <g>
        <text transform="translate(1845.83 643.41)"><tspan class="cls-7"><tspan class="cls-18" x="0" y="0">Maiso</tspan><tspan class="cls-6" x="167.97" y="0">n</tspan><tspan class="cls-18" x="204.99" y="0" xml:space="preserve"> de Rose </tspan></tspan><tspan class="cls-2"><tspan x="66.23" y="36">the </tspan><tspan class="cls-19" x="113.3" y="36">w</tspan><tspan x="135.5" y="36">orld blooms with us </tspan></tspan></text>
        <g id="Thorns-4" data-name="Thorns">
          <polygon class="cls-8" points="1958.72 564.76 1983.66 495.85 1991.38 499.15 1958.72 564.76"/>
          <polygon class="cls-8" points="2176.62 .18 2158.49 71.19 2150.49 68.65 2176.62 .18"/>
          <path class="cls-11" d="M2142.86,257.55c33.74,55.38,45.26,116.69,36.3,169.62-81.87,37.99-191.34-6.59-251.55-105.41-33.74-55.38-45.26-116.69-36.3-169.62,81.87-37.99,191.34,6.59,251.55,105.41Z"/>
          <path class="cls-11" d="M2223.94,265.61c0,71.78-22.11,136.36-57.36,181.23-31.33,39.92-73.05,64.26-118.85,64.26-97.31,0-176.2-109.91-176.2-245.49s78.89-245.49,176.2-245.49c5.38,0,10.7.33,15.97.99,89.83,11.24,160.24,116.42,160.24,244.5Z"/>
        </g>
        <g>
          <path class="cls-4" d="M2120.73,104.65l-17.39-7.61c-4.8-2.11-10.41-.36-13.17,4.09l-15.33,24.66,22.68-.09,23.2-21.05Z"/>
          <path class="cls-4" d="M2081.07,269.04l-30.39-97.88c-.85-2.74-.47-5.7,1.04-8.14l23.13-37.23-23.44.09c-4.96.02-9.25,3.5-10.27,8.35l-16.91,80.34c-.53,2.57-.03,5.25,1.4,7.44l54.14,82.74c2.55,3.89,6.88,6.22,11.53,6.2l17.01-.07-.25-.13,29.94-11.59-49.33-21.61c-3.65-1.6-6.43-4.7-7.61-8.51Z"/>
          <path class="cls-4" d="M2090.91,247.91l-11.29-100.42c-.36-3.15.82-6.29,3.18-8.42l14.74-13.37-22.68.09-23.13,37.23c-1.51,2.44-1.89,5.4-1.04,8.14l30.39,97.88c1.18,3.8,3.96,6.91,7.61,8.51l49.33,21.61,8.23-3.19-50.09-38.73c-2.93-2.27-4.82-5.64-5.24-9.32Z"/>
          <path class="cls-4" d="M2208.42,140.96l-61.97-47.9c-4.03-3.13-9.73-2.91-13.5.53l-12.21,11.06,48.5,21.24c3.16,1.39,5.58,4.1,6.61,7.4l30.33,97.68c1.04,3.35.58,7.01-1.28,9.99l-26.42,42.54,26.76-10.37,15.1-13.69c2.88-2.61,4.33-6.46,3.9-10.34l-11.25-100.02c-.36-3.21-2.02-6.14-4.57-8.12Z"/>
          <path class="cls-4" d="M2206.17,230.97l-30.33-97.68c-1.03-3.3-3.44-6.01-6.61-7.4l-48.5-21.24-23.2,21.05,18.85-.06c4.04-.02,7.83,2.01,10.04,5.41l54.17,82.75c1.76,2.69,2.38,5.99,1.71,9.13l-13.53,64.32,9.7-3.75,26.42-42.54c1.86-2.98,2.32-6.63,1.28-9.99Z"/>
          <path class="cls-4" d="M2180.59,213.8l-54.17-82.75c-2.21-3.39-5.99-5.43-10.04-5.41l-18.85.06-14.74,13.37c-2.36,2.13-3.54,5.27-3.18,8.42l11.29,100.42c.42,3.69,2.31,7.05,5.24,9.32l50.09,38.73,22.53-8.72,13.53-64.32c.67-3.14.05-6.44-1.71-9.13Z"/>
          <path class="cls-8" d="M2206.69,271.66l-23.66,68.21c-1.75,5.03-7.58,7.28-12.25,4.75l-63.19-34.37-.25-.13,29.94-11.59,8.23-3.19,22.53-8.72,9.7-3.75,26.76-10.37,2.17-.84Z"/>
        </g>
      </g>
    </g>
    <g>
      <path class="cls-14" d="M1505.46,104.65l-17.39-7.61c-4.8-2.11-10.41-.36-13.17,4.09l-15.33,24.66,22.68-.09,23.2-21.05Z"/>
      <path class="cls-14" d="M1465.79,269.04l-30.39-97.88c-.85-2.74-.47-5.7,1.04-8.14l23.13-37.23-23.44.09c-4.96.02-9.25,3.5-10.27,8.35l-16.91,80.34c-.53,2.57-.03,5.25,1.4,7.44l54.14,82.74c2.55,3.89,6.88,6.22,11.53,6.2l17.01-.07-.25-.13,29.94-11.59-49.33-21.61c-3.65-1.6-6.43-4.7-7.61-8.51Z"/>
      <path class="cls-14" d="M1475.63,247.91l-11.29-100.42c-.36-3.15.82-6.29,3.18-8.42l14.74-13.37-22.68.09-23.13,37.23c-1.51,2.44-1.89,5.4-1.04,8.14l30.39,97.88c1.18,3.8,3.96,6.91,7.61,8.51l49.33,21.61,8.23-3.19-50.09-38.73c-2.93-2.27-4.82-5.64-5.24-9.32Z"/>
      <path class="cls-14" d="M1593.14,140.96l-61.97-47.9c-4.03-3.13-9.73-2.91-13.5.53l-12.21,11.06,48.5,21.24c3.16,1.39,5.58,4.1,6.61,7.4l30.33,97.68c1.04,3.35.58,7.01-1.28,9.99l-26.42,42.54,26.76-10.37,15.1-13.69c2.88-2.61,4.33-6.46,3.9-10.34l-11.25-100.02c-.36-3.21-2.02-6.14-4.57-8.12Z"/>
      <path class="cls-14" d="M1590.9,230.97l-30.33-97.68c-1.03-3.3-3.44-6.01-6.61-7.4l-48.5-21.24-23.2,21.05,18.85-.06c4.04-.02,7.83,2.01,10.04,5.41l54.17,82.75c1.76,2.69,2.38,5.99,1.71,9.13l-13.53,64.32,9.7-3.75,26.42-42.54c1.86-2.98,2.32-6.63,1.28-9.99Z"/>
      <path class="cls-14" d="M1565.31,213.8l-54.17-82.75c-2.21-3.39-5.99-5.43-10.04-5.41l-18.85.06-14.74,13.37c-2.36,2.13-3.54,5.27-3.18,8.42l11.29,100.42c.42,3.69,2.31,7.05,5.24,9.32l50.09,38.73,22.53-8.72,13.53-64.32c.67-3.14.05-6.44-1.71-9.13Z"/>
      <path class="cls-8" d="M1591.41,271.66l-23.66,68.21c-1.75,5.03-7.58,7.28-12.25,4.75l-63.19-34.37-.25-.13,29.94-11.59,8.23-3.19,22.53-8.72,9.7-3.75,26.76-10.37,2.17-.84Z"/>
    </g>
  </g>
</svg>