<?xml version="1.0" encoding="UTF-8"?>
<svg id="Layer_2" data-name="Layer 2" xmlns="http://www.w3.org/2000/svg" viewBox="0 0 2321.88 687.14">
  <defs>
    <style>
      .cls-1 {
        fill: #eadbc8;
      }

      .cls-1, .cls-2, .cls-3, .cls-4, .cls-5, .cls-6 {
        stroke-miterlimit: 10;
      }

      .cls-1, .cls-3, .cls-4 {
        stroke: #471f15;
      }

      .cls-7 {
        font-family: Sitka-Heading, Sitka;
        font-size: 30px;
        font-variation-settings: 'opsz' 21, 'wght' 400;
      }

      .cls-7, .cls-3 {
        fill: #dac0a3;
      }

      .cls-2 {
        fill: #471f15;
        stroke: #f6f1f1;
      }

      .cls-8 {
        letter-spacing: 0em;
      }

      .cls-9 {
        font-family: PinyonScript-Regular, 'Pinyon Script';
        font-size: 72px;
      }

      .cls-9, .cls-6 {
        fill: #225329;
      }

      .cls-4 {
        fill: #f6f1f1;
      }

      .cls-10 {
        letter-spacing: .02em;
      }

      .cls-5 {
        fill: none;
        stroke-width: 15px;
      }

      .cls-5, .cls-6 {
        stroke: #225329;
      }

      .cls-11 {
        letter-spacing: 0em;
      }
    </style>
  </defs>
  <g id="Layer_1-2" data-name="Layer 1">
    <text transform="translate(1845.83 642.41)"><tspan class="cls-9"><tspan class="cls-10" x="0" y="0">Maiso</tspan><tspan class="cls-8" x="167.97" y="0">n</tspan><tspan class="cls-10" x="204.99" y="0" xml:space="preserve"> de Rose </tspan></tspan><tspan class="cls-7"><tspan x="66.23" y="36">the </tspan><tspan class="cls-11" x="113.3" y="36">w</tspan><tspan x="135.5" y="36">orld blooms with us </tspan></tspan></text>
    <g id="Thorns">
      <polygon class="cls-6" points="1958.72 567.76 1983.66 498.85 1991.38 502.15 1958.72 567.76"/>
      <polygon class="cls-6" points="2176.62 .18 2158.49 71.19 2150.49 68.65 2176.62 .18"/>
      <path class="cls-5" d="M2167.89,156.01c47.93,41.14,77.04,94.47,84.68,146.2-64.4,59.83-179.23,51.49-264.75-21.93-47.93-41.14-77.04-94.47-84.68-146.2,64.4-59.83,179.23-51.49,264.75,21.93Z"/>
      <path class="cls-5" d="M2223.94,264.61c0,71.78-22.11,136.36-57.36,181.23-31.33,39.92-73.05,64.26-118.85,64.26-97.31,0-176.2-109.91-176.2-245.49s78.89-245.49,176.2-245.49c5.38,0,10.7.33,15.97.99,89.83,11.24,160.24,116.42,160.24,244.5Z"/>
    </g>
    <g id="Rose">
      <path class="cls-1" d="M2314.21,415.32l-135.44,127.87c-7.21,6.81-17.98,8.2-26.68,3.44l-163.47-89.29c-8.7-4.75-13.35-14.57-11.52-24.31l34.41-183.06c1.83-9.74,9.73-17.2,19.56-18.47l184.73-23.84c9.83-1.27,19.36,3.94,23.61,12.89l79.76,168.32c4.24,8.96,2.24,19.63-4.97,26.44Z"/>
      <path class="cls-1" d="M2299.43,360.09l-73.69,146.86c-4.45,8.86-14.09,13.85-23.89,12.36l-162.45-24.7c-9.8-1.49-17.53-9.12-19.14-18.9l-26.71-162.13c-1.61-9.78,3.26-19.49,12.06-24.04l145.94-75.5c8.8-4.55,19.54-2.92,26.59,4.04l116.9,115.47c7.05,6.97,8.82,17.68,4.37,26.54Z"/>
      <path class="cls-1" d="M2273.93,315.78l-16.73,143.59c-1.15,9.85-8.5,17.83-18.22,19.79l-141.73,28.46c-9.72,1.95-19.59-2.58-24.45-11.22l-70.86-126c-4.86-8.64-3.6-19.43,3.11-26.72l97.93-106.33c6.72-7.29,17.36-9.43,26.37-5.3l131.39,60.28c9.01,4.13,14.33,13.6,13.19,23.44Z"/>
      <path class="cls-1" d="M2236.72,283.53l29.28,123.35c2.29,9.64-1.89,19.67-10.36,24.82l-108.26,65.97c-8.47,5.16-19.29,4.28-26.81-2.18l-96.19-82.58c-7.52-6.46-10.03-17.02-6.21-26.17l48.81-117c3.82-9.15,13.09-14.8,22.97-14l126.36,10.27c9.88.8,18.12,7.88,20.41,17.52Z"/>
      <path class="cls-1" d="M2193.99,270.21l60.91,92.53c5.45,8.28,4.95,19.13-1.24,26.87l-69.18,86.52c-6.19,7.74-16.66,10.62-25.94,7.12l-103.66-39.06c-9.28-3.5-15.25-12.57-14.79-22.47l5.11-110.66c.46-9.9,7.24-18.38,16.8-21.01l106.82-29.33c9.56-2.62,19.72,1.2,25.17,9.48Z"/>
      <path class="cls-1" d="M2156.94,272.98l77.32,57.52c7.95,5.92,11.19,16.28,8.02,25.67l-30.81,91.31c-3.17,9.39-12.03,15.68-21.94,15.56l-96.37-1.09c-9.91-.11-18.63-6.59-21.58-16.05l-28.75-91.99c-2.96-9.46.52-19.75,8.6-25.49l78.6-55.76c8.08-5.74,18.94-5.61,26.9.3Z"/>
      <path class="cls-1" d="M2127.51,283.48l79.92,23.89c9.5,2.84,16.09,11.47,16.32,21.38l1.97,83.39c.23,9.91-5.94,18.84-15.29,22.13l-78.7,27.64c-9.35,3.29-19.76.17-25.77-7.71l-50.61-66.3c-6.01-7.88-6.27-18.74-.64-26.89l47.42-68.62c5.64-8.16,15.88-11.75,25.38-8.91Z"/>
      <path class="cls-1" d="M2103.44,300.69l71.62-4.2c9.9-.58,19.04,5.28,22.65,14.51l26.12,66.82c3.61,9.23.86,19.74-6.8,26.02l-55.48,45.49c-7.66,6.29-18.51,6.92-26.85,1.57l-60.41-38.7c-8.35-5.35-12.3-15.46-9.79-25.05l18.14-69.41c2.51-9.59,10.9-16.48,20.8-17.06Z"/>
      <path class="cls-1" d="M2088.48,324.08l56.23-24.28c9.1-3.93,19.7-1.55,26.25,5.89l40.47,45.97c6.55,7.44,7.56,18.25,2.51,26.78l-31.22,52.69c-5.05,8.53-15.02,12.83-24.69,10.66l-59.76-13.41c-9.67-2.17-16.85-10.32-17.77-20.19l-5.71-60.98c-.92-9.87,4.61-19.21,13.71-23.14Z"/>
      <path class="cls-1" d="M2084.2,347.57l37.66-35.56c7.21-6.81,17.98-8.2,26.68-3.44l45.46,24.83c8.7,4.75,13.35,14.57,11.52,24.31l-9.57,50.9c-1.83,9.74-9.73,17.2-19.56,18.47l-51.37,6.63c-9.83,1.27-19.36-3.94-23.61-12.89l-22.18-46.81c-4.24-8.96-2.24-19.63,4.97-26.44Z"/>
      <path class="cls-1" d="M2086.83,367.34l19.42-38.69c4.45-8.86,14.09-13.85,23.89-12.36l42.8,6.51c9.8,1.49,17.53,9.12,19.14,18.9l7.04,42.72c1.61,9.78-3.26,19.49-12.06,24.04l-38.45,19.89c-8.8,4.55-19.54,2.92-26.59-4.04l-30.8-30.42c-7.05-6.97-8.82-17.68-4.37-26.54Z"/>
      <path class="cls-1" d="M2093.83,383.64l4.12-35.4c1.15-9.85,8.5-17.83,18.22-19.79l34.94-7.02c9.72-1.95,19.59,2.58,24.45,11.22l17.47,31.06c4.86,8.64,3.6,19.43-3.11,26.72l-24.14,26.21c-6.72,7.29-17.36,9.43-26.37,5.3l-32.39-14.86c-9.01-4.13-14.33-13.6-13.19-23.44Z"/>
      <path class="cls-1" d="M2104.75,395.79l-6.64-27.97c-2.29-9.64,1.89-19.67,10.36-24.82l24.55-14.96c8.47-5.16,19.29-4.28,26.81,2.18l21.81,18.73c7.52,6.46,10.03,17.02,6.21,26.17l-11.07,26.53c-3.82,9.15-13.09,14.8-22.97,14l-28.65-2.33c-9.88-.8-18.12-7.88-20.41-17.52Z"/>
      <path class="cls-1" d="M2117.47,402.43l-12.4-18.84c-5.45-8.28-4.95-19.13,1.24-26.87l14.08-17.61c6.19-7.74,16.66-10.62,25.94-7.12l21.1,7.95c9.28,3.5,15.25,12.57,14.79,22.47l-1.04,22.53c-.46,9.9-7.24,18.38-16.8,21.01l-21.74,5.97c-9.56,2.62-19.72-1.2-25.17-9.48Z"/>
      <path class="cls-1" d="M2129.44,404.41l-13.62-10.13c-7.95-5.92-11.19-16.28-8.02-25.67l5.43-16.08c3.17-9.39,12.03-15.68,21.94-15.56l16.97.19c9.91.11,18.63,6.59,21.58,16.05l5.06,16.2c2.96,9.46-.52,19.75-8.6,25.49l-13.84,9.82c-8.08,5.74-18.94,5.61-26.9-.3Z"/>
      <path class="cls-1" d="M2139.91,403.2l-11.45-3.42c-9.5-2.84-16.09-11.47-16.32-21.38l-.28-11.94c-.23-9.91,5.94-18.84,15.29-22.13l11.27-3.96c9.35-3.29,19.76-.17,25.77,7.71l7.25,9.5c6.01,7.88,6.27,18.74.64,26.89l-6.79,9.83c-5.64,8.16-15.88,11.75-25.38,8.91Z"/>
      <path class="cls-1" d="M2149.56,399.39l-9.61.56c-9.24.54-17.78-4.93-21.15-13.55l-3.5-8.96c-3.37-8.62-.81-18.44,6.35-24.31l7.44-6.1c7.16-5.87,17.28-6.46,25.08-1.47l8.1,5.19c7.8,4.99,11.49,14.44,9.15,23.4l-2.43,9.31c-2.34,8.96-10.18,15.39-19.43,15.93Z"/>
      <path class="cls-1" d="M2157.08,393.14l-7.95,3.43c-7.65,3.3-16.56,1.3-22.06-4.95l-5.72-6.5c-5.51-6.25-6.36-15.34-2.11-22.51l4.41-7.45c4.25-7.17,12.63-10.79,20.76-8.96l8.45,1.9c8.13,1.82,14.16,8.68,14.94,16.97l.81,8.62c.78,8.3-3.88,16.15-11.53,19.45Z"/>
      <path class="cls-1" d="M2161.52,385.54l-5.67,5.35c-5.45,5.15-13.6,6.2-20.18,2.6l-6.84-3.74c-6.58-3.6-10.1-11.02-8.71-18.39l1.44-7.66c1.39-7.37,7.36-13.01,14.8-13.97l7.73-1c7.44-.96,14.65,2.98,17.86,9.76l3.34,7.04c3.21,6.78,1.69,14.85-3.76,20Z"/>
      <path class="cls-1" d="M2162.93,377.74l-3.15,6.27c-3.03,6.03-9.59,9.43-16.27,8.42l-6.94-1.05c-6.67-1.01-11.93-6.21-13.03-12.87l-1.14-6.92c-1.1-6.66,2.22-13.27,8.21-16.37l6.23-3.22c5.99-3.1,13.3-1.99,18.11,2.75l4.99,4.93c4.8,4.74,6,12.04,2.98,18.07Z"/>
      <path class="cls-1" d="M2161.73,370.71l-.73,6.27c-.7,6.03-5.21,10.93-11.17,12.12l-6.19,1.24c-5.96,1.2-12-1.58-14.98-6.87l-3.1-5.5c-2.98-5.29-2.21-11.9,1.91-16.37l4.28-4.64c4.12-4.47,10.64-5.78,16.16-3.25l5.74,2.63c5.52,2.53,8.78,8.33,8.08,14.37Z"/>
      <path class="cls-1" d="M2158.55,365.14l1.31,5.53c1.26,5.32-1.04,10.85-5.71,13.69l-4.85,2.96c-4.67,2.84-10.64,2.36-14.79-1.2l-4.31-3.7c-4.15-3.56-5.53-9.39-3.43-14.43l2.19-5.24c2.1-5.05,7.22-8.16,12.67-7.72l5.66.46c5.45.44,9.99,4.34,11.26,9.66Z"/>
      <path class="cls-1" d="M2154.14,361.41l2.81,4.27c2.71,4.11,2.46,9.49-.62,13.34l-3.19,3.99c-3.07,3.84-8.27,5.27-12.87,3.54l-4.79-1.8c-4.6-1.73-7.57-6.24-7.34-11.15l.24-5.11c.23-4.92,3.59-9.12,8.34-10.43l4.93-1.35c4.74-1.3,9.79.6,12.49,4.71Z"/>
      <path class="cls-1" d="M2149.27,359.61l3.69,2.75c3.55,2.64,5,7.27,3.58,11.47l-1.47,4.36c-1.42,4.2-5.37,7-9.8,6.95l-4.6-.05c-4.43-.05-8.32-2.95-9.64-7.17l-1.37-4.39c-1.32-4.23.23-8.82,3.84-11.39l3.75-2.66c3.61-2.56,8.46-2.51,12.02.14Z"/>
    </g>
    <text transform="translate(1230.55 642.41)"><tspan class="cls-9"><tspan class="cls-10" x="0" y="0">Maiso</tspan><tspan class="cls-8" x="167.97" y="0">n</tspan><tspan class="cls-10" x="204.99" y="0" xml:space="preserve"> de Rose </tspan></tspan><tspan class="cls-7"><tspan x="66.23" y="36">the </tspan><tspan class="cls-11" x="113.3" y="36">w</tspan><tspan x="135.5" y="36">orld blooms with us </tspan></tspan></text>
    <g id="Thorns-2" data-name="Thorns">
      <polygon class="cls-6" points="1343.44 567.76 1368.38 498.85 1376.1 502.15 1343.44 567.76"/>
      <polygon class="cls-6" points="1561.34 .18 1543.21 71.19 1535.21 68.65 1561.34 .18"/>
      <path class="cls-5" d="M1552.62,156.01c47.93,41.14,77.04,94.47,84.68,146.2-64.4,59.83-179.23,51.49-264.75-21.93-47.93-41.14-77.04-94.47-84.68-146.2,64.4-59.83,179.23-51.49,264.75,21.93Z"/>
      <path class="cls-5" d="M1608.66,264.61c0,71.78-22.11,136.36-57.36,181.23-31.33,39.92-73.05,64.26-118.85,64.26-97.31,0-176.2-109.91-176.2-245.49s78.89-245.49,176.2-245.49c5.38,0,10.7.33,15.97.99,89.83,11.24,160.24,116.42,160.24,244.5Z"/>
    </g>
    <g id="Rose-2" data-name="Rose">
      <path class="cls-4" d="M1698.93,415.32l-135.44,127.87c-7.21,6.81-17.98,8.2-26.68,3.44l-163.47-89.29c-8.7-4.75-13.35-14.57-11.52-24.31l34.41-183.06c1.83-9.74,9.73-17.2,19.56-18.47l184.73-23.84c9.83-1.27,19.36,3.94,23.61,12.89l79.76,168.32c4.24,8.96,2.24,19.63-4.97,26.44Z"/>
      <path class="cls-4" d="M1684.15,360.09l-73.69,146.86c-4.45,8.86-14.09,13.85-23.89,12.36l-162.45-24.7c-9.8-1.49-17.53-9.12-19.14-18.9l-26.71-162.13c-1.61-9.78,3.26-19.49,12.06-24.04l145.94-75.5c8.8-4.55,19.54-2.92,26.59,4.04l116.9,115.47c7.05,6.97,8.82,17.68,4.37,26.54Z"/>
      <path class="cls-4" d="M1658.66,315.78l-16.73,143.59c-1.15,9.85-8.5,17.83-18.22,19.79l-141.73,28.46c-9.72,1.95-19.59-2.58-24.45-11.22l-70.86-126c-4.86-8.64-3.6-19.43,3.11-26.72l97.93-106.33c6.72-7.29,17.36-9.43,26.37-5.3l131.39,60.28c9.01,4.13,14.33,13.6,13.19,23.44Z"/>
      <path class="cls-4" d="M1621.44,283.53l29.28,123.35c2.29,9.64-1.89,19.67-10.36,24.82l-108.26,65.97c-8.47,5.16-19.29,4.28-26.81-2.18l-96.19-82.58c-7.52-6.46-10.03-17.02-6.21-26.17l48.81-117c3.82-9.15,13.09-14.8,22.97-14l126.36,10.27c9.88.8,18.12,7.88,20.41,17.52Z"/>
      <path class="cls-4" d="M1578.71,270.21l60.91,92.53c5.45,8.28,4.95,19.13-1.24,26.87l-69.18,86.52c-6.19,7.74-16.66,10.62-25.94,7.12l-103.66-39.06c-9.28-3.5-15.25-12.57-14.79-22.47l5.11-110.66c.46-9.9,7.24-18.38,16.8-21.01l106.82-29.33c9.56-2.62,19.72,1.2,25.17,9.48Z"/>
      <path class="cls-4" d="M1541.66,272.98l77.32,57.52c7.95,5.92,11.19,16.28,8.02,25.67l-30.81,91.31c-3.17,9.39-12.03,15.68-21.94,15.56l-96.37-1.09c-9.91-.11-18.63-6.59-21.58-16.05l-28.75-91.99c-2.96-9.46.52-19.75,8.6-25.49l78.6-55.76c8.08-5.74,18.94-5.61,26.9.3Z"/>
      <path class="cls-4" d="M1512.24,283.48l79.92,23.89c9.5,2.84,16.09,11.47,16.32,21.38l1.97,83.39c.23,9.91-5.94,18.84-15.29,22.13l-78.7,27.64c-9.35,3.29-19.76.17-25.77-7.71l-50.61-66.3c-6.01-7.88-6.27-18.74-.64-26.89l47.42-68.62c5.64-8.16,15.88-11.75,25.38-8.91Z"/>
      <path class="cls-4" d="M1488.17,300.69l71.62-4.2c9.9-.58,19.04,5.28,22.65,14.51l26.12,66.82c3.61,9.23.86,19.74-6.8,26.02l-55.48,45.49c-7.66,6.29-18.51,6.92-26.85,1.57l-60.41-38.7c-8.35-5.35-12.3-15.46-9.79-25.05l18.14-69.41c2.51-9.59,10.9-16.48,20.8-17.06Z"/>
      <path class="cls-4" d="M1473.2,324.08l56.23-24.28c9.1-3.93,19.7-1.55,26.25,5.89l40.47,45.97c6.55,7.44,7.56,18.25,2.51,26.78l-31.22,52.69c-5.05,8.53-15.02,12.83-24.69,10.66l-59.76-13.41c-9.67-2.17-16.85-10.32-17.77-20.19l-5.71-60.98c-.92-9.87,4.61-19.21,13.71-23.14Z"/>
      <path class="cls-4" d="M1468.92,347.57l37.66-35.56c7.21-6.81,17.98-8.2,26.68-3.44l45.46,24.83c8.7,4.75,13.35,14.57,11.52,24.31l-9.57,50.9c-1.83,9.74-9.73,17.2-19.56,18.47l-51.37,6.63c-9.83,1.27-19.36-3.94-23.61-12.89l-22.18-46.81c-4.24-8.96-2.24-19.63,4.97-26.44Z"/>
      <path class="cls-4" d="M1471.55,367.34l19.42-38.69c4.45-8.86,14.09-13.85,23.89-12.36l42.8,6.51c9.8,1.49,17.53,9.12,19.14,18.9l7.04,42.72c1.61,9.78-3.26,19.49-12.06,24.04l-38.45,19.89c-8.8,4.55-19.54,2.92-26.59-4.04l-30.8-30.42c-7.05-6.97-8.82-17.68-4.37-26.54Z"/>
      <path class="cls-4" d="M1478.55,383.64l4.12-35.4c1.15-9.85,8.5-17.83,18.22-19.79l34.94-7.02c9.72-1.95,19.59,2.58,24.45,11.22l17.47,31.06c4.86,8.64,3.6,19.43-3.11,26.72l-24.14,26.21c-6.72,7.29-17.36,9.43-26.37,5.3l-32.39-14.86c-9.01-4.13-14.33-13.6-13.19-23.44Z"/>
      <path class="cls-4" d="M1489.47,395.79l-6.64-27.97c-2.29-9.64,1.89-19.67,10.36-24.82l24.55-14.96c8.47-5.16,19.29-4.28,26.81,2.18l21.81,18.73c7.52,6.46,10.03,17.02,6.21,26.17l-11.07,26.53c-3.82,9.15-13.09,14.8-22.97,14l-28.65-2.33c-9.88-.8-18.12-7.88-20.41-17.52Z"/>
      <path class="cls-4" d="M1502.2,402.43l-12.4-18.84c-5.45-8.28-4.95-19.13,1.24-26.87l14.08-17.61c6.19-7.74,16.66-10.62,25.94-7.12l21.1,7.95c9.28,3.5,15.25,12.57,14.79,22.47l-1.04,22.53c-.46,9.9-7.24,18.38-16.8,21.01l-21.74,5.97c-9.56,2.62-19.72-1.2-25.17-9.48Z"/>
      <path class="cls-4" d="M1514.17,404.41l-13.62-10.13c-7.95-5.92-11.19-16.28-8.02-25.67l5.43-16.08c3.17-9.39,12.03-15.68,21.94-15.56l16.97.19c9.91.11,18.63,6.59,21.58,16.05l5.06,16.2c2.96,9.46-.52,19.75-8.6,25.49l-13.84,9.82c-8.08,5.74-18.94,5.61-26.9-.3Z"/>
      <path class="cls-4" d="M1524.64,403.2l-11.45-3.42c-9.5-2.84-16.09-11.47-16.32-21.38l-.28-11.94c-.23-9.91,5.94-18.84,15.29-22.13l11.27-3.96c9.35-3.29,19.76-.17,25.77,7.71l7.25,9.5c6.01,7.88,6.27,18.74.64,26.89l-6.79,9.83c-5.64,8.16-15.88,11.75-25.38,8.91Z"/>
      <path class="cls-4" d="M1534.29,399.39l-9.61.56c-9.24.54-17.78-4.93-21.15-13.55l-3.5-8.96c-3.37-8.62-.81-18.44,6.35-24.31l7.44-6.1c7.16-5.87,17.28-6.46,25.08-1.47l8.1,5.19c7.8,4.99,11.49,14.44,9.15,23.4l-2.43,9.31c-2.34,8.96-10.18,15.39-19.43,15.93Z"/>
      <path class="cls-4" d="M1541.81,393.14l-7.95,3.43c-7.65,3.3-16.56,1.3-22.06-4.95l-5.72-6.5c-5.51-6.25-6.36-15.34-2.11-22.51l4.41-7.45c4.25-7.17,12.63-10.79,20.76-8.96l8.45,1.9c8.13,1.82,14.16,8.68,14.94,16.97l.81,8.62c.78,8.3-3.88,16.15-11.53,19.45Z"/>
      <path class="cls-4" d="M1546.25,385.54l-5.67,5.35c-5.45,5.15-13.6,6.2-20.18,2.6l-6.84-3.74c-6.58-3.6-10.1-11.02-8.71-18.39l1.44-7.66c1.39-7.37,7.36-13.01,14.8-13.97l7.73-1c7.44-.96,14.65,2.98,17.86,9.76l3.34,7.04c3.21,6.78,1.69,14.85-3.76,20Z"/>
      <path class="cls-4" d="M1547.66,377.74l-3.15,6.27c-3.03,6.03-9.59,9.43-16.27,8.42l-6.94-1.05c-6.67-1.01-11.93-6.21-13.03-12.87l-1.14-6.92c-1.1-6.66,2.22-13.27,8.21-16.37l6.23-3.22c5.99-3.1,13.3-1.99,18.11,2.75l4.99,4.93c4.8,4.74,6,12.04,2.98,18.07Z"/>
      <path class="cls-4" d="M1546.45,370.71l-.73,6.27c-.7,6.03-5.21,10.93-11.17,12.12l-6.19,1.24c-5.96,1.2-12-1.58-14.98-6.87l-3.1-5.5c-2.98-5.29-2.21-11.9,1.91-16.37l4.28-4.64c4.12-4.47,10.64-5.78,16.16-3.25l5.74,2.63c5.52,2.53,8.78,8.33,8.08,14.37Z"/>
      <path class="cls-4" d="M1543.27,365.14l1.31,5.53c1.26,5.32-1.04,10.85-5.71,13.69l-4.85,2.96c-4.67,2.84-10.64,2.36-14.79-1.2l-4.31-3.7c-4.15-3.56-5.53-9.39-3.43-14.43l2.19-5.24c2.1-5.05,7.22-8.16,12.67-7.72l5.66.46c5.45.44,9.99,4.34,11.26,9.66Z"/>
      <path class="cls-4" d="M1538.87,361.41l2.81,4.27c2.71,4.11,2.46,9.49-.62,13.34l-3.19,3.99c-3.07,3.84-8.27,5.27-12.87,3.54l-4.79-1.8c-4.6-1.73-7.57-6.24-7.34-11.15l.24-5.11c.23-4.92,3.59-9.12,8.34-10.43l4.93-1.35c4.74-1.3,9.79.6,12.49,4.71Z"/>
      <path class="cls-4" d="M1533.99,359.61l3.69,2.75c3.55,2.64,5,7.27,3.58,11.47l-1.47,4.36c-1.42,4.2-5.37,7-9.8,6.95l-4.6-.05c-4.43-.05-8.32-2.95-9.64-7.17l-1.37-4.39c-1.32-4.23.23-8.82,3.84-11.39l3.75-2.66c3.61-2.56,8.46-2.51,12.02.14Z"/>
    </g>
    <text transform="translate(615.28 642.41)"><tspan class="cls-9"><tspan class="cls-10" x="0" y="0">Maiso</tspan><tspan class="cls-8" x="167.97" y="0">n</tspan><tspan class="cls-10" x="204.99" y="0" xml:space="preserve"> de Rose </tspan></tspan><tspan class="cls-7"><tspan x="66.23" y="36">the </tspan><tspan class="cls-11" x="113.3" y="36">w</tspan><tspan x="135.5" y="36">orld blooms with us </tspan></tspan></text>
    <g id="Thorns-3" data-name="Thorns">
      <polygon class="cls-6" points="728.16 567.76 753.11 498.85 760.82 502.15 728.16 567.76"/>
      <polygon class="cls-6" points="946.07 .18 927.94 71.19 919.94 68.65 946.07 .18"/>
      <path class="cls-5" d="M937.34,156.01c47.93,41.14,77.04,94.47,84.68,146.2-64.4,59.83-179.23,51.49-264.75-21.93-47.93-41.14-77.04-94.47-84.68-146.2,64.4-59.83,179.23-51.49,264.75,21.93Z"/>
      <path class="cls-5" d="M993.39,264.61c0,71.78-22.11,136.36-57.36,181.23-31.33,39.92-73.05,64.26-118.85,64.26-97.31,0-176.2-109.91-176.2-245.49S719.87,19.12,817.18,19.12c5.38,0,10.7.33,15.97.99,89.83,11.24,160.24,116.42,160.24,244.5Z"/>
    </g>
    <g id="Rose-3" data-name="Rose">
      <path class="cls-2" d="M1083.65,415.32l-135.44,127.87c-7.21,6.81-17.98,8.2-26.68,3.44l-163.47-89.29c-8.7-4.75-13.35-14.57-11.52-24.31l34.41-183.06c1.83-9.74,9.73-17.2,19.56-18.47l184.73-23.84c9.83-1.27,19.36,3.94,23.61,12.89l79.76,168.32c4.24,8.96,2.24,19.63-4.97,26.44Z"/>
      <path class="cls-2" d="M1068.88,360.09l-73.69,146.86c-4.45,8.86-14.09,13.85-23.89,12.36l-162.45-24.7c-9.8-1.49-17.53-9.12-19.14-18.9l-26.71-162.13c-1.61-9.78,3.26-19.49,12.06-24.04l145.94-75.5c8.8-4.55,19.54-2.92,26.59,4.04l116.9,115.47c7.05,6.97,8.82,17.68,4.37,26.54Z"/>
      <path class="cls-2" d="M1043.38,315.78l-16.73,143.59c-1.15,9.85-8.5,17.83-18.22,19.79l-141.73,28.46c-9.72,1.95-19.59-2.58-24.45-11.22l-70.86-126c-4.86-8.64-3.6-19.43,3.11-26.72l97.93-106.33c6.72-7.29,17.36-9.43,26.37-5.3l131.39,60.28c9.01,4.13,14.33,13.6,13.19,23.44Z"/>
      <path class="cls-2" d="M1006.17,283.53l29.28,123.35c2.29,9.64-1.89,19.67-10.36,24.82l-108.26,65.97c-8.47,5.16-19.29,4.28-26.81-2.18l-96.19-82.58c-7.52-6.46-10.03-17.02-6.21-26.17l48.81-117c3.82-9.15,13.09-14.8,22.97-14l126.36,10.27c9.88.8,18.12,7.88,20.41,17.52Z"/>
      <path class="cls-2" d="M963.44,270.21l60.91,92.53c5.45,8.28,4.95,19.13-1.24,26.87l-69.18,86.52c-6.19,7.74-16.66,10.62-25.94,7.12l-103.66-39.06c-9.28-3.5-15.25-12.57-14.79-22.47l5.11-110.66c.46-9.9,7.24-18.38,16.8-21.01l106.82-29.33c9.56-2.62,19.72,1.2,25.17,9.48Z"/>
      <path class="cls-2" d="M926.38,272.98l77.32,57.52c7.95,5.92,11.19,16.28,8.02,25.67l-30.81,91.31c-3.17,9.39-12.03,15.68-21.94,15.56l-96.37-1.09c-9.91-.11-18.63-6.59-21.58-16.05l-28.75-91.99c-2.96-9.46.52-19.75,8.6-25.49l78.6-55.76c8.08-5.74,18.94-5.61,26.9.3Z"/>
      <path class="cls-2" d="M896.96,283.48l79.92,23.89c9.5,2.84,16.09,11.47,16.32,21.38l1.97,83.39c.23,9.91-5.94,18.84-15.29,22.13l-78.7,27.64c-9.35,3.29-19.76.17-25.77-7.71l-50.61-66.3c-6.01-7.88-6.27-18.74-.64-26.89l47.42-68.62c5.64-8.16,15.88-11.75,25.38-8.91Z"/>
      <path class="cls-2" d="M872.89,300.69l71.62-4.2c9.9-.58,19.04,5.28,22.65,14.51l26.12,66.82c3.61,9.23.86,19.74-6.8,26.02l-55.48,45.49c-7.66,6.29-18.51,6.92-26.85,1.57l-60.41-38.7c-8.35-5.35-12.3-15.46-9.79-25.05l18.14-69.41c2.51-9.59,10.9-16.48,20.8-17.06Z"/>
      <path class="cls-2" d="M857.93,324.08l56.23-24.28c9.1-3.93,19.7-1.55,26.25,5.89l40.47,45.97c6.55,7.44,7.56,18.25,2.51,26.78l-31.22,52.69c-5.05,8.53-15.02,12.83-24.69,10.66l-59.76-13.41c-9.67-2.17-16.85-10.32-17.77-20.19l-5.71-60.98c-.92-9.87,4.61-19.21,13.71-23.14Z"/>
      <path class="cls-2" d="M853.65,347.57l37.66-35.56c7.21-6.81,17.98-8.2,26.68-3.44l45.46,24.83c8.7,4.75,13.35,14.57,11.52,24.31l-9.57,50.9c-1.83,9.74-9.73,17.2-19.56,18.47l-51.37,6.63c-9.83,1.27-19.36-3.94-23.61-12.89l-22.18-46.81c-4.24-8.96-2.24-19.63,4.97-26.44Z"/>
      <path class="cls-2" d="M856.27,367.34l19.42-38.69c4.45-8.86,14.09-13.85,23.89-12.36l42.8,6.51c9.8,1.49,17.53,9.12,19.14,18.9l7.04,42.72c1.61,9.78-3.26,19.49-12.06,24.04l-38.45,19.89c-8.8,4.55-19.54,2.92-26.59-4.04l-30.8-30.42c-7.05-6.97-8.82-17.68-4.37-26.54Z"/>
      <path class="cls-2" d="M863.28,383.64l4.12-35.4c1.15-9.85,8.5-17.83,18.22-19.79l34.94-7.02c9.72-1.95,19.59,2.58,24.45,11.22l17.47,31.06c4.86,8.64,3.6,19.43-3.11,26.72l-24.14,26.21c-6.72,7.29-17.36,9.43-26.37,5.3l-32.39-14.86c-9.01-4.13-14.33-13.6-13.19-23.44Z"/>
      <path class="cls-2" d="M874.2,395.79l-6.64-27.97c-2.29-9.64,1.89-19.67,10.36-24.82l24.55-14.96c8.47-5.16,19.29-4.28,26.81,2.18l21.81,18.73c7.52,6.46,10.03,17.02,6.21,26.17l-11.07,26.53c-3.82,9.15-13.09,14.8-22.97,14l-28.65-2.33c-9.88-.8-18.12-7.88-20.41-17.52Z"/>
      <path class="cls-2" d="M886.92,402.43l-12.4-18.84c-5.45-8.28-4.95-19.13,1.24-26.87l14.08-17.61c6.19-7.74,16.66-10.62,25.94-7.12l21.1,7.95c9.28,3.5,15.25,12.57,14.79,22.47l-1.04,22.53c-.46,9.9-7.24,18.38-16.8,21.01l-21.74,5.97c-9.56,2.62-19.72-1.2-25.17-9.48Z"/>
      <path class="cls-2" d="M898.89,404.41l-13.62-10.13c-7.95-5.92-11.19-16.28-8.02-25.67l5.43-16.08c3.17-9.39,12.03-15.68,21.94-15.56l16.97.19c9.91.11,18.63,6.59,21.58,16.05l5.06,16.2c2.96,9.46-.52,19.75-8.6,25.49l-13.84,9.82c-8.08,5.74-18.94,5.61-26.9-.3Z"/>
      <path class="cls-2" d="M909.36,403.2l-11.45-3.42c-9.5-2.84-16.09-11.47-16.32-21.38l-.28-11.94c-.23-9.91,5.94-18.84,15.29-22.13l11.27-3.96c9.35-3.29,19.76-.17,25.77,7.71l7.25,9.5c6.01,7.88,6.27,18.74.64,26.89l-6.79,9.83c-5.64,8.16-15.88,11.75-25.38,8.91Z"/>
      <path class="cls-2" d="M919.01,399.39l-9.61.56c-9.24.54-17.78-4.93-21.15-13.55l-3.5-8.96c-3.37-8.62-.81-18.44,6.35-24.31l7.44-6.1c7.16-5.87,17.28-6.46,25.08-1.47l8.1,5.19c7.8,4.99,11.49,14.44,9.15,23.4l-2.43,9.31c-2.34,8.96-10.18,15.39-19.43,15.93Z"/>
      <path class="cls-2" d="M926.53,393.14l-7.95,3.43c-7.65,3.3-16.56,1.3-22.06-4.95l-5.72-6.5c-5.51-6.25-6.36-15.34-2.11-22.51l4.41-7.45c4.25-7.17,12.63-10.79,20.76-8.96l8.45,1.9c8.13,1.82,14.16,8.68,14.94,16.97l.81,8.62c.78,8.3-3.88,16.15-11.53,19.45Z"/>
      <path class="cls-2" d="M930.97,385.54l-5.67,5.35c-5.45,5.15-13.6,6.2-20.18,2.6l-6.84-3.74c-6.58-3.6-10.1-11.02-8.71-18.39l1.44-7.66c1.39-7.37,7.36-13.01,14.8-13.97l7.73-1c7.44-.96,14.65,2.98,17.86,9.76l3.34,7.04c3.21,6.78,1.69,14.85-3.76,20Z"/>
      <path class="cls-2" d="M932.38,377.74l-3.15,6.27c-3.03,6.03-9.59,9.43-16.27,8.42l-6.94-1.05c-6.67-1.01-11.93-6.21-13.03-12.87l-1.14-6.92c-1.1-6.66,2.22-13.27,8.21-16.37l6.23-3.22c5.99-3.1,13.3-1.99,18.11,2.75l4.99,4.93c4.8,4.74,6,12.04,2.98,18.07Z"/>
      <path class="cls-2" d="M931.18,370.71l-.73,6.27c-.7,6.03-5.21,10.93-11.17,12.12l-6.19,1.24c-5.96,1.2-12-1.58-14.98-6.87l-3.1-5.5c-2.98-5.29-2.21-11.9,1.91-16.37l4.28-4.64c4.12-4.47,10.64-5.78,16.16-3.25l5.74,2.63c5.52,2.53,8.78,8.33,8.08,14.37Z"/>
      <path class="cls-2" d="M928,365.14l1.31,5.53c1.26,5.32-1.04,10.85-5.71,13.69l-4.85,2.96c-4.67,2.84-10.64,2.36-14.79-1.2l-4.31-3.7c-4.15-3.56-5.53-9.39-3.43-14.43l2.19-5.24c2.1-5.05,7.22-8.16,12.67-7.72l5.66.46c5.45.44,9.99,4.34,11.26,9.66Z"/>
      <path class="cls-2" d="M923.59,361.41l2.81,4.27c2.71,4.11,2.46,9.49-.62,13.34l-3.19,3.99c-3.07,3.84-8.27,5.27-12.87,3.54l-4.79-1.8c-4.6-1.73-7.57-6.24-7.34-11.15l.24-5.11c.23-4.92,3.59-9.12,8.34-10.43l4.93-1.35c4.74-1.3,9.79.6,12.49,4.71Z"/>
      <path class="cls-2" d="M918.71,359.61l3.69,2.75c3.55,2.64,5,7.27,3.58,11.47l-1.47,4.36c-1.42,4.2-5.37,7-9.8,6.95l-4.6-.05c-4.43-.05-8.32-2.95-9.64-7.17l-1.37-4.39c-1.32-4.23.23-8.82,3.84-11.39l3.75-2.66c3.61-2.56,8.46-2.51,12.02.14Z"/>
    </g>
    <text/>
    <text transform="translate(0 642.41)"><tspan class="cls-9"><tspan class="cls-10" x="0" y="0">Maiso</tspan><tspan class="cls-8" x="167.97" y="0">n</tspan><tspan class="cls-10" x="204.99" y="0" xml:space="preserve"> de Rose </tspan></tspan><tspan class="cls-7"><tspan x="66.23" y="36">the </tspan><tspan class="cls-11" x="113.3" y="36">w</tspan><tspan x="135.5" y="36">orld blooms with us </tspan></tspan></text>
    <g id="Thorns-4" data-name="Thorns">
      <polygon class="cls-6" points="112.89 567.76 137.83 498.85 145.55 502.15 112.89 567.76"/>
      <polygon class="cls-6" points="330.79 .18 312.66 71.19 304.66 68.65 330.79 .18"/>
      <path class="cls-5" d="M322.07,156.01c47.93,41.14,77.04,94.47,84.68,146.2-64.4,59.83-179.23,51.49-264.75-21.93-47.93-41.14-77.04-94.47-84.68-146.2,64.4-59.83,179.23-51.49,264.75,21.93Z"/>
      <path class="cls-5" d="M378.11,264.61c0,71.78-22.11,136.36-57.36,181.23-31.33,39.92-73.05,64.26-118.85,64.26-97.31,0-176.2-109.91-176.2-245.49S104.59,19.12,201.91,19.12c5.38,0,10.7.33,15.97.99,89.83,11.24,160.24,116.42,160.24,244.5Z"/>
    </g>
    <g id="Rose-4" data-name="Rose">
      <path class="cls-3" d="M468.38,415.32l-135.44,127.87c-7.21,6.81-17.98,8.2-26.68,3.44l-163.47-89.29c-8.7-4.75-13.35-14.57-11.52-24.31l34.41-183.06c1.83-9.74,9.73-17.2,19.56-18.47l184.73-23.84c9.83-1.27,19.36,3.94,23.61,12.89l79.76,168.32c4.24,8.96,2.24,19.63-4.97,26.44Z"/>
      <path class="cls-3" d="M453.6,360.09l-73.69,146.86c-4.45,8.86-14.09,13.85-23.89,12.36l-162.45-24.7c-9.8-1.49-17.53-9.12-19.14-18.9l-26.71-162.13c-1.61-9.78,3.26-19.49,12.06-24.04l145.94-75.5c8.8-4.55,19.54-2.92,26.59,4.04l116.9,115.47c7.05,6.97,8.82,17.68,4.37,26.54Z"/>
      <path class="cls-3" d="M428.11,315.78l-16.73,143.59c-1.15,9.85-8.5,17.83-18.22,19.79l-141.73,28.46c-9.72,1.95-19.59-2.58-24.45-11.22l-70.86-126c-4.86-8.64-3.6-19.43,3.11-26.72l97.93-106.33c6.72-7.29,17.36-9.43,26.37-5.3l131.39,60.28c9.01,4.13,14.33,13.6,13.19,23.44Z"/>
      <path class="cls-3" d="M390.89,283.53l29.28,123.35c2.29,9.64-1.89,19.67-10.36,24.82l-108.26,65.97c-8.47,5.16-19.29,4.28-26.81-2.18l-96.19-82.58c-7.52-6.46-10.03-17.02-6.21-26.17l48.81-117c3.82-9.15,13.09-14.8,22.97-14l126.36,10.27c9.88.8,18.12,7.88,20.41,17.52Z"/>
      <path class="cls-3" d="M348.16,270.21l60.91,92.53c5.45,8.28,4.95,19.13-1.24,26.87l-69.18,86.52c-6.19,7.74-16.66,10.62-25.94,7.12l-103.66-39.06c-9.28-3.5-15.25-12.57-14.79-22.47l5.11-110.66c.46-9.9,7.24-18.38,16.8-21.01l106.82-29.33c9.56-2.62,19.72,1.2,25.17,9.48Z"/>
      <path class="cls-3" d="M311.11,272.98l77.32,57.52c7.95,5.92,11.19,16.28,8.02,25.67l-30.81,91.31c-3.17,9.39-12.03,15.68-21.94,15.56l-96.37-1.09c-9.91-.11-18.63-6.59-21.58-16.05l-28.75-91.99c-2.96-9.46.52-19.75,8.6-25.49l78.6-55.76c8.08-5.74,18.94-5.61,26.9.3Z"/>
      <path class="cls-3" d="M281.68,283.48l79.92,23.89c9.5,2.84,16.09,11.47,16.32,21.38l1.97,83.39c.23,9.91-5.94,18.84-15.29,22.13l-78.7,27.64c-9.35,3.29-19.76.17-25.77-7.71l-50.61-66.3c-6.01-7.88-6.27-18.74-.64-26.89l47.42-68.62c5.64-8.16,15.88-11.75,25.38-8.91Z"/>
      <path class="cls-3" d="M257.62,300.69l71.62-4.2c9.9-.58,19.04,5.28,22.65,14.51l26.12,66.82c3.61,9.23.86,19.74-6.8,26.02l-55.48,45.49c-7.66,6.29-18.51,6.92-26.85,1.57l-60.41-38.7c-8.35-5.35-12.3-15.46-9.79-25.05l18.14-69.41c2.51-9.59,10.9-16.48,20.8-17.06Z"/>
      <path class="cls-3" d="M242.65,324.08l56.23-24.28c9.1-3.93,19.7-1.55,26.25,5.89l40.47,45.97c6.55,7.44,7.56,18.25,2.51,26.78l-31.22,52.69c-5.05,8.53-15.02,12.83-24.69,10.66l-59.76-13.41c-9.67-2.17-16.85-10.32-17.77-20.19l-5.71-60.98c-.92-9.87,4.61-19.21,13.71-23.14Z"/>
      <path class="cls-3" d="M238.37,347.57l37.66-35.56c7.21-6.81,17.98-8.2,26.68-3.44l45.46,24.83c8.7,4.75,13.35,14.57,11.52,24.31l-9.57,50.9c-1.83,9.74-9.73,17.2-19.56,18.47l-51.37,6.63c-9.83,1.27-19.36-3.94-23.61-12.89l-22.18-46.81c-4.24-8.96-2.24-19.63,4.97-26.44Z"/>
      <path class="cls-3" d="M241,367.34l19.42-38.69c4.45-8.86,14.09-13.85,23.89-12.36l42.8,6.51c9.8,1.49,17.53,9.12,19.14,18.9l7.04,42.72c1.61,9.78-3.26,19.49-12.06,24.04l-38.45,19.89c-8.8,4.55-19.54,2.92-26.59-4.04l-30.8-30.42c-7.05-6.97-8.82-17.68-4.37-26.54Z"/>
      <path class="cls-3" d="M248,383.64l4.12-35.4c1.15-9.85,8.5-17.83,18.22-19.79l34.94-7.02c9.72-1.95,19.59,2.58,24.45,11.22l17.47,31.06c4.86,8.64,3.6,19.43-3.11,26.72l-24.14,26.21c-6.72,7.29-17.36,9.43-26.37,5.3l-32.39-14.86c-9.01-4.13-14.33-13.6-13.19-23.44Z"/>
      <path class="cls-3" d="M258.92,395.79l-6.64-27.97c-2.29-9.64,1.89-19.67,10.36-24.82l24.55-14.96c8.47-5.16,19.29-4.28,26.81,2.18l21.81,18.73c7.52,6.46,10.03,17.02,6.21,26.17l-11.07,26.53c-3.82,9.15-13.09,14.8-22.97,14l-28.65-2.33c-9.88-.8-18.12-7.88-20.41-17.52Z"/>
      <path class="cls-3" d="M271.65,402.43l-12.4-18.84c-5.45-8.28-4.95-19.13,1.24-26.87l14.08-17.61c6.19-7.74,16.66-10.62,25.94-7.12l21.1,7.95c9.28,3.5,15.25,12.57,14.79,22.47l-1.04,22.53c-.46,9.9-7.24,18.38-16.8,21.01l-21.74,5.97c-9.56,2.62-19.72-1.2-25.17-9.48Z"/>
      <path class="cls-3" d="M283.62,404.41l-13.62-10.13c-7.95-5.92-11.19-16.28-8.02-25.67l5.43-16.08c3.17-9.39,12.03-15.68,21.94-15.56l16.97.19c9.91.11,18.63,6.59,21.58,16.05l5.06,16.2c2.96,9.46-.52,19.75-8.6,25.49l-13.84,9.82c-8.08,5.74-18.94,5.61-26.9-.3Z"/>
      <path class="cls-3" d="M294.09,403.2l-11.45-3.42c-9.5-2.84-16.09-11.47-16.32-21.38l-.28-11.94c-.23-9.91,5.94-18.84,15.29-22.13l11.27-3.96c9.35-3.29,19.76-.17,25.77,7.71l7.25,9.5c6.01,7.88,6.27,18.74.64,26.89l-6.79,9.83c-5.64,8.16-15.88,11.75-25.38,8.91Z"/>
      <path class="cls-3" d="M303.73,399.39l-9.61.56c-9.24.54-17.78-4.93-21.15-13.55l-3.5-8.96c-3.37-8.62-.81-18.44,6.35-24.31l7.44-6.1c7.16-5.87,17.28-6.46,25.08-1.47l8.1,5.19c7.8,4.99,11.49,14.44,9.15,23.4l-2.43,9.31c-2.34,8.96-10.18,15.39-19.43,15.93Z"/>
      <path class="cls-3" d="M311.26,393.14l-7.95,3.43c-7.65,3.3-16.56,1.3-22.06-4.95l-5.72-6.5c-5.51-6.25-6.36-15.34-2.11-22.51l4.41-7.45c4.25-7.17,12.63-10.79,20.76-8.96l8.45,1.9c8.13,1.82,14.16,8.68,14.94,16.97l.81,8.62c.78,8.3-3.88,16.15-11.53,19.45Z"/>
      <path class="cls-3" d="M315.69,385.54l-5.67,5.35c-5.45,5.15-13.6,6.2-20.18,2.6l-6.84-3.74c-6.58-3.6-10.1-11.02-8.71-18.39l1.44-7.66c1.39-7.37,7.36-13.01,14.8-13.97l7.73-1c7.44-.96,14.65,2.98,17.86,9.76l3.34,7.04c3.21,6.78,1.69,14.85-3.76,20Z"/>
      <path class="cls-3" d="M317.11,377.74l-3.15,6.27c-3.03,6.03-9.59,9.43-16.27,8.42l-6.94-1.05c-6.67-1.01-11.93-6.21-13.03-12.87l-1.14-6.92c-1.1-6.66,2.22-13.27,8.21-16.37l6.23-3.22c5.99-3.1,13.3-1.99,18.11,2.75l4.99,4.93c4.8,4.74,6,12.04,2.98,18.07Z"/>
      <path class="cls-3" d="M315.9,370.71l-.73,6.27c-.7,6.03-5.21,10.93-11.17,12.12l-6.19,1.24c-5.96,1.2-12-1.58-14.98-6.87l-3.1-5.5c-2.98-5.29-2.21-11.9,1.91-16.37l4.28-4.64c4.12-4.47,10.64-5.78,16.16-3.25l5.74,2.63c5.52,2.53,8.78,8.33,8.08,14.37Z"/>
      <path class="cls-3" d="M312.72,365.14l1.31,5.53c1.26,5.32-1.04,10.85-5.71,13.69l-4.85,2.96c-4.67,2.84-10.64,2.36-14.79-1.2l-4.31-3.7c-4.15-3.56-5.53-9.39-3.43-14.43l2.19-5.24c2.1-5.05,7.22-8.16,12.67-7.72l5.66.46c5.45.44,9.99,4.34,11.26,9.66Z"/>
      <path class="cls-3" d="M308.31,361.41l2.81,4.27c2.71,4.11,2.46,9.49-.62,13.34l-3.19,3.99c-3.07,3.84-8.27,5.27-12.87,3.54l-4.79-1.8c-4.6-1.73-7.57-6.24-7.34-11.15l.24-5.11c.23-4.92,3.59-9.12,8.34-10.43l4.93-1.35c4.74-1.3,9.79.6,12.49,4.71Z"/>
      <path class="cls-3" d="M303.44,359.61l3.69,2.75c3.55,2.64,5,7.27,3.58,11.47l-1.47,4.36c-1.42,4.2-5.37,7-9.8,6.95l-4.6-.05c-4.43-.05-8.32-2.95-9.64-7.17l-1.37-4.39c-1.32-4.23.23-8.82,3.84-11.39l3.75-2.66c3.61-2.56,8.46-2.51,12.02.14Z"/>
    </g>
  </g>
</svg>