<?xml version="1.0" encoding="UTF-8"?>
<svg id="Layer_2" data-name="Layer 2" xmlns="http://www.w3.org/2000/svg" viewBox="0 0 512.51 549.25">
  <defs>
    <style>
      .cls-1 {
        fill: #f26522;
        stroke: #ed1c24;
      }

      .cls-1, .cls-2, .cls-3, .cls-4, .cls-5, .cls-6, .cls-7, .cls-8, .cls-9, .cls-10, .cls-11, .cls-12, .cls-13, .cls-14, .cls-15, .cls-16, .cls-17, .cls-18, .cls-19, .cls-20, .cls-21, .cls-22, .cls-23, .cls-24, .cls-25, .cls-26, .cls-27, .cls-28, .cls-29, .cls-30 {
        stroke-miterlimit: 10;
      }

      .cls-1, .cls-15, .cls-16, .cls-29, .cls-30 {
        stroke-width: 3px;
      }

      .cls-31, .cls-14 {
        fill: #7b1d1c;
      }

      .cls-32 {
        fill: #cea28b;
      }

      .cls-33, .cls-5, .cls-7, .cls-24 {
        fill: #efc7b0;
      }

      .cls-34 {
        fill: gray;
      }

      .cls-35 {
        fill: #926d5a;
      }

      .cls-36 {
        fill: #231f20;
      }

      .cls-2, .cls-3, .cls-14, .cls-18, .cls-29 {
        stroke: #bcbec0;
      }

      .cls-2, .cls-15, .cls-20 {
        fill: #939598;
      }

      .cls-3, .cls-9, .cls-11, .cls-30 {
        fill: #e6e7e8;
      }

      .cls-4 {
        fill: #594a42;
      }

      .cls-4, .cls-12, .cls-17 {
        stroke: #603913;
      }

      .cls-5, .cls-26, .cls-27, .cls-28 {
        stroke: #b5917c;
      }

      .cls-6, .cls-13 {
        stroke: #a71e22;
      }

      .cls-6, .cls-17, .cls-18, .cls-19, .cls-26, .cls-28 {
        fill: none;
      }

      .cls-37 {
        fill: #e4b69d;
      }

      .cls-38 {
        fill: #ed1c24;
      }

      .cls-39 {
        fill: #ccc;
      }

      .cls-40 {
        fill: #3c2415;
      }

      .cls-7 {
        stroke: #8d7266;
      }

      .cls-8, .cls-9, .cls-15, .cls-23 {
        stroke: #d1d3d4;
      }

      .cls-8, .cls-21, .cls-22 {
        fill: #d1d3d4;
      }

      .cls-10 {
        fill: #6d6e71;
        stroke: #58595b;
      }

      .cls-11, .cls-16, .cls-21, .cls-30 {
        stroke: #6d6e71;
      }

      .cls-12 {
        fill: #754c29;
      }

      .cls-13, .cls-41 {
        fill: #a71e22;
      }

      .cls-16, .cls-23 {
        fill: #808285;
      }

      .cls-42 {
        fill: #f1dbcb;
      }

      .cls-19, .cls-24 {
        stroke: #9c7761;
      }

      .cls-19, .cls-26 {
        stroke-width: 2px;
      }

      .cls-20 {
        stroke: #e6e7e8;
      }

      .cls-43 {
        fill: #cb8c84;
      }

      .cls-44 {
        fill: #f0beb4;
      }

      .cls-22 {
        stroke: #939598;
      }

      .cls-25 {
        fill: #e0ada6;
        stroke: #e4b69d;
      }

      .cls-45 {
        fill: #006838;
      }

      .cls-27 {
        fill: #39b54a;
      }

      .cls-46 {
        fill: #bcbec0;
      }

      .cls-29 {
        fill: #a7a9ac;
      }

      .cls-47 {
        fill: #414042;
      }
    </style>
  </defs>
  <g id="Layer_1-2" data-name="Layer 1">
    <g id="_Full_image_" data-name="&amp;lt;Full image&amp;gt;">
      <path class="cls-1" d="M248.39,316.77l81.32-5.12s1.71,12.01,6.28,13.39c4.57,1.38,21.54,25.17,21.54,25.17l33.94,97.74s-4.27,69.71-11.31,87.59c-7.04,17.89-67.11,12.84-65.73,5.5,0,0-33.94-92.64-19.26-117.86,0,0,14.68-7.34,19.26-12.84-8.14,9.56-20.34,13.62-30.9,10.32-8.84-2.77-13.51-9.75-14.96-12.15,2.77,3.06,6.5,7.36,10.67,12.71,0,0,4.5,5.77,8.03,10.97,6.33,9.33,6.03,51.26-2.97,106.56-5.42,2.52-13.31,4.77-22.95,6.42-12.71,2.18-27.88,2.29-37.74-5.96-2.51-.45-54.59-97.09,22.07-207.6l2.69-14.84Z"/>
      <path class="cls-38" d="M323.05,317.85c6.11,12.84,22.3,33.94,22.3,33.94l30.36,101.35-6.91,81.63,6.91-2.29s14.8-64.23,12.12-87.95-38.19-105.58-38.19-105.58l-20.56-21.1h-4.05"/>
      <path class="cls-38" d="M279.07,421.5c-1.36.19.34,15.44.11,45.86-.05,6.13-.15,10.57-.26,14.75-.68,28.01-2.38,52.66-2.38,52.66l5.33-1.83c8.86-38.46,6.89-67.74,3.73-86.68-1.92-11.47-5.24-24.94-6.53-24.76Z"/>
      <path class="cls-27" d="M237.9,153.98l29.82-10.23,58.69,11.61,30.88,81.85-23.62,44.57c-16.98,2.46-37.29,4.04-60.15,3.11-15.2-.62-29.07-2.26-41.37-4.35-.89-1.63-1.77-3.25-2.66-4.88,0,0-18.04-6.71-18.65-11.61-.61-4.89-15.59-18.65-15.59-18.65l42.65-91.41Z"/>
      <path class="cls-24" d="M276.88,165.46c-4.72-.14-4.81-3.13-16.05-9.28,0,0-.64-.35-12.69-6.24-4.85,12.41-8.18,22.98-10.39,30.71-4.76,16.57-5.05,22.26-4.74,27.03.42,6.48,1.03,16.01,7.53,22.69,7.36,7.56,18,7.09,29.61,6.57,11.76-.52,21.24-.94,29.96-8,14.36-11.62,15.1-31.91,15.29-36.94.02-.42,0,.02-2.98-24.28-1.26-10.3-1.66-13.71-4.22-15.1-4.66-2.52-13.31,4.18-18.49,6.91-7.79,4.1-9,6.03-12.84,5.92Z"/>
      <g id="_Neck_" data-name="&amp;lt;Neck&amp;gt;">
        <path class="cls-24" d="M249.94,134.25c6.08-4.04,4.38-4.56,11.81-10.84,9.84-8.32,25.08-20.46,30.1-27.46.37,5.24,5.52,19.95,9.18,25.93,5.9,9.63,6.34,16.2,34.09,22.62-10.15,7.04-18.85,10.04-24.99,11.46-3.77.87-10.54,2.08-19.49,5.5-1.94.74-10.77,4.12-10.4,5.62.04.17.19.28.31.35-1.96.27-4.79.38-7.8-.69-3.62-1.28-4.79-3.3-8.03-5.96-2.09-1.72-6.47-3.69-15.13-7.57-2.9-1.3-5.2-1.34-10.01-3.34,6.49-1.92,11.19-13.23,11.01-14.24-.46-2.52,8.08,12.71,8.08,12.71l-8.73-14.09Z"/>
        <path class="cls-37" d="M268.94,122.04c-1.03,6.08-14.52,25.16-10.39,25.73l-5.98-11.97,16.38-13.76Z"/>
        <path class="cls-37" d="M274.02,157.8c-3.55,1.61-4.13,2.64,0,8.14h2.52v-16.62l-1.95-11.12-.57,19.61Z"/>
        <path class="cls-37" d="M281.58,148.74c-.22-3.25,0,13.64,0,13.64l6.88-2.52s-6.76-9.4-6.88-11.12Z"/>
        <path class="cls-37" d="M289.54,117.03c.87,4.59,3.28,30.15,3.28,30.73s2.29-14.79,2.29-14.79h2.87l7.57,8.37-7.11-17.89-4.36-15.94-5.62-4.36,1.08,13.87Z"/>
        <path class="cls-37" d="M309.13,135.8c.2,2.58,1.05,4.13,1.75,5.05,1.73,2.28,3.55,2.04,9.38,5.05,3.26,1.68,3.41,2.13,4.8,2.35,3.46.55,6.62-1.57,8.61-3.29"/>
      </g>
      <path class="cls-19" d="M261.9,208.1c1.38,1.53,13.11,9.48,9.23,27.97,0,0-1.43-14.22,12.32-27.97"/>
      <path class="cls-5" d="M243.56,152.07c-11.62-2.98-51.67-17.04-51.97,33.1l-8.56,14.68s4.59,30.27-10.09,49.53-42.19,26.29-42.19,26.29c0,0,18.04,19.26,21.1,19.87s14.68,16.2,14.68,16.2l11.62,1.53,32.71-49.22s-18.34-15.29,8.25-57.17c26.6-41.89,24.46-54.8,24.46-54.8Z"/>
      <path class="cls-26" d="M210.85,195.56c1.22,4.89,8.25,11.31,8.25,11.31"/>
      <path class="cls-26" d="M172.94,249.37c10.09,11.62,11.01,11.31,12.84,27.21"/>
      <path class="cls-37" d="M139.95,272.53c5.77,10.78,27.18,34.01,28.09,34.01s8.25,1.59,8.25,1.59l28.43-48.07,1.22,7.03-26.6,44.33-14.37-3.29-26.6-31.56,1.56-4.05Z"/>
      <path class="cls-5" d="M334.06,292.77c-.9,6.31-2.25,11.85-3.67,16.5-17.81,11.73-36.02,16.99-48.9,15.23-6.8-.93-29.08-1.02-33.95-11.25-1.08-2.26-1.04-4.67-3.67-10.39-2.29-5-4.48-7.85-6.11-10.4-1.82-2.82-3.89-6.71-5.6-11.93l.77.62c9.53,1.8,21.29,3.35,34.79,3.67,5.62.14,11.54.06,17.73-.31,20.05-1.18,36.92-5,49.68-8.86.08,4.92-.16,10.71-1.07,17.12Z"/>
      <line class="cls-28" x1="258.85" y1="296.76" x2="267.72" y2="286.98"/>
      <path class="cls-28" d="M285.08,288.81c6.78,3.06,13.82,7.95,13.82,7.95"/>
      <path class="cls-28" d="M276.54,296.76c-1.98,7.07,7.29,33.21,4.95,26.29"/>
      <path class="cls-37" d="M328.86,281.17c-1.22,10.39-5.81,30.26-5.81,30.26l5.81-3.29,6.27-28.5-6.27,1.53Z"/>
      <path class="cls-5" d="M415.39,360.35c20.79,10.92,30.65,17.84,29.58,20.76-1.17,3.2-15.52,1.59-43.04-4.86,0,0-11.92-34.55-34.24-35.16l-26.9-39.75c-.8-1.34-1.88-3.42-2.65-6.11-1.61-5.63-.6-9.38-.72-14.98-.06-3.17-.51-7.68-2.28-13.15,3.88-2.86,14.89-11.78,15.91-25.13.51-6.62-1.59-12.3-4.15-19.2-3.06-8.25-6.89-14.52-9.78-18.65-4.76-4.71-11.61-12.65-16.82-24.15-4.38-9.69-6.05-18.46-6.72-24.61l21.55-10.86s64.97-11,46.01,51.06c0,0,6.42,37.6-6.11,76.43,12.85,15.77,19.51,29.57,23.23,39.44,1.82,4.82,3.11,9.17,8.87,25.68,3.44,9.86,6.33,17.92,8.26,23.24Z"/>
      <path class="cls-28" d="M349.65,199.84c-3.97-2.45,0,1.38,0,1.38l-8.6,9.09"/>
      <path class="cls-37" d="M360.66,149.95c-7.8-1.05,19.57,9.12,14.98,49.07,0,0,11.33,21-7.02,72.36l7.66-3.49s9.45-38.79,5.17-70.24c0,0,6.11-44.1-20.79-47.71Z"/>
      <path class="cls-45" d="M210.85,254.57s27.82,20.18,58.09,8.41c0,0,64.82,20.03,78.57-26.9.44,3.89.06,7.13-.54,9.67-4.26,18.01-25.62,25.13-28.2,25.95-5.31,1.31-12.78,2.55-21.71,2.14-10.46-.48-18.85-3.03-24.38-5.2-14.87,3.72-26.99,3.82-34.97,3.28-10.58-.71-15.6-2.66-19.53-6.03-4.32-3.71-6.35-8.31-7.34-11.31Z"/>
      <g id="_Glass2_" data-name="&amp;lt;Glass2&amp;gt;">
        <g>
          <g>
            <path class="cls-39" d="M200.61,116.06c1.51,4.03,1.61,7.23.28,8.56-.11.1-.23.2-.36.28-.19.12-.41.23-.66.31-4.04,1.35-15.55-2.66-24.55-11.66s-12.49-20.1-10.99-24c.08-.21.18-.4.29-.57.07-.12.17-.24.28-.35,1.17-1.17,3.93-1.07,7.47.14,5.11,1.74,11.84,5.8,17.71,11.67,5.3,5.3,8.83,11.01,10.53,15.62Z"/>
            <path class="cls-41" d="M153.9,125.46c3.62,0,7.12.09,10.45.25,6.96.34,13.17,1,18.08,1.9,6.06,1.11,10.12,2.57,11.15,4.2-.46.62-.92,1.28-1.39,1.98-.31.46-.61.91-.9,1.36-1.24.59-2.89,1.14-4.9,1.64-2.61.66-5.81,1.23-9.47,1.69-6.51.83-14.45,1.31-23.02,1.31-22.07,0-39.96-3.21-39.96-7.16,0-.06,0-.12,0-.19.55-3.87,18.22-6.98,39.95-6.98Z"/>
            <path class="cls-39" d="M175.32,113.55c9,9,20.51,13.01,24.55,11.66-1.95,1.38-3.98,3.43-6.29,6.6-1.03-1.63-5.09-3.09-11.15-4.2-4.91-.9-11.12-1.56-18.08-1.9-3.33-.16-6.83-.25-10.45-.25-21.73,0-39.4,3.11-39.95,6.98l-.32-.07c1.35-6.86,4.68-13.4,9.98-18.7,5.38-5.38,12.02-8.73,19-10.05l-.15-.15c4-.81,7.61-2.01,14.06-6.65,3.38-2.43,5.94-5.03,7.81-7.27-1.5,3.9,1.91,14.92,10.99,24Z"/>
            <path class="cls-31" d="M153.9,139.79c8.57,0,16.51-.48,23.02-1.31,3.66-.46,6.86-1.03,9.47-1.69,2.01-.5,3.66-1.05,4.9-1.64-2.64,4.09-4.36,7.56-5.15,10.27-.01.05-.01.09-.02.14-1.12,7.46-4.54,14.62-10.27,20.35-12.9,12.89-33.09,14.12-47.51,3.71.83-.56,1.64-1.09,2.44-1.59-3.36-3.35-6.71-6.71-10.06-10.06-.48.74-.97,1.48-1.49,2.24-5.61-8.31-7.49-18.38-5.6-27.84l.32.07c0,.07,0,.13,0,.19,0,3.95,17.89,7.16,39.96,7.16Z"/>
            <path class="cls-39" d="M123.79,165.73c1.43,1.44,2.96,2.73,4.55,3.89-4.45,2.97-9.27,6.71-14.1,11.38-2.68,2.58-5.04,5.15-7.12,7.62-.93-.07-2.28-.29-3.75-.98-2.41-1.11-3.79-2.84-4.42-3.73,3.06-2.86,6.24-6.09,9.45-9.72,4.26-4.83,7.84-9.56,10.83-13.98,1.32,1.95,2.84,3.8,4.56,5.52Z"/>
            <path class="cls-34" d="M120.72,157.97c3.35,3.35,6.7,6.71,10.06,10.06-.8.5-1.61,1.03-2.44,1.59-1.59-1.16-3.12-2.45-4.55-3.89-1.72-1.72-3.24-3.57-4.56-5.52.52-.76,1.01-1.5,1.49-2.24Z"/>
          </g>
          <g>
            <path class="cls-18" d="M119.23,160.21c-2.99,4.42-6.57,9.15-10.83,13.98-3.21,3.63-6.39,6.86-9.45,9.72.63.89,2.01,2.62,4.42,3.73,1.47.69,2.82.91,3.75.98,2.08-2.47,4.44-5.04,7.12-7.62,4.83-4.67,9.65-8.41,14.1-11.38"/>
            <path class="cls-18" d="M193.58,131.81c2.31-3.17,4.34-5.22,6.29-6.6"/>
            <path class="cls-18" d="M164.33,89.55c-1.87,2.24-4.43,4.84-7.81,7.27-6.45,4.64-10.06,5.84-14.06,6.65l.15.15c-6.98,1.32-13.62,4.67-19,10.05-5.3,5.3-8.63,11.84-9.98,18.7-1.89,9.46-.01,19.53,5.6,27.84.52-.76,1.01-1.5,1.49-2.24,3.35,3.35,6.7,6.71,10.06,10.06-.8.5-1.61,1.03-2.44,1.59,14.42,10.41,34.61,9.18,47.51-3.71,5.73-5.73,9.15-12.89,10.27-20.35.01-.05.01-.09.02-.14.79-2.71,2.51-6.18,5.15-10.27"/>
            <path class="cls-18" d="M199.87,125.21c.25-.08.47-.19.66-.31.13-.08.25-.18.36-.28,1.33-1.33,1.23-4.53-.28-8.56-1.7-4.61-5.23-10.32-10.53-15.62-5.87-5.87-12.6-9.93-17.71-11.67-3.54-1.21-6.3-1.31-7.47-.14-.11.11-.21.23-.28.35-.11.17-.21.36-.29.57-1.5,3.9,1.91,14.92,10.99,24s20.51,13.01,24.55,11.66Z"/>
            <path class="cls-6" d="M193.58,131.81c-1.03-1.63-5.09-3.09-11.15-4.2-4.91-.9-11.12-1.56-18.08-1.9-3.33-.16-6.83-.25-10.45-.25-21.73,0-39.4,3.11-39.95,6.98,0,.07,0,.13,0,.19,0,3.95,17.89,7.16,39.96,7.16,8.57,0,16.51-.48,23.02-1.31,3.66-.46,6.86-1.03,9.47-1.69,2.01-.5,3.66-1.05,4.9-1.64.29-.45.59-.9.9-1.36.47-.7.93-1.36,1.39-1.98Z"/>
          </g>
        </g>
      </g>
      <g id="_Weight2_" data-name="&amp;lt;Weight2&amp;gt;">
        <g>
          <ellipse class="cls-21" cx="44.9" cy="146.46" rx="52.35" ry="40.78" transform="translate(-102.88 106.11) rotate(-57.68)"/>
          <ellipse class="cls-20" cx="53.5" cy="151.9" rx="52.35" ry="40.78" transform="translate(-103.48 115.91) rotate(-57.68)"/>
          <ellipse class="cls-10" cx="50.61" cy="156.47" rx="33.77" ry="26.31" transform="translate(-108.68 115.6) rotate(-57.68)"/>
          <path class="cls-22" d="M88.38,182.8l-9.43,9.33-30.51-30.82c-.06-.4-.54-4.17,2.35-7.03,2.9-2.88,6.68-2.36,7.08-2.3,10.17,10.27,20.34,20.55,30.51,30.82Z"/>
        </g>
        <ellipse class="cls-21" cx="129.18" cy="223.67" rx="52.35" ry="40.78" transform="translate(-128.9 213.27) rotate(-57.68)"/>
        <ellipse class="cls-23" cx="140.26" cy="227.61" rx="52.35" ry="40.78" transform="translate(-127.08 224.48) rotate(-57.68)"/>
        <ellipse class="cls-10" cx="138.88" cy="229.8" rx="33.77" ry="26.31" transform="translate(-129.57 224.32) rotate(-57.68)"/>
        <ellipse class="cls-23" cx="138.88" cy="235.03" rx="9.77" ry="6.87" transform="translate(-133.99 226.76) rotate(-57.68)"/>
        <ellipse class="cls-8" cx="143.5" cy="237.95" rx="9.77" ry="6.87" transform="translate(-134.31 232.02) rotate(-57.68)"/>
      </g>
      <g id="_Weight1_" data-name="&amp;lt;Weight1&amp;gt;">
        <ellipse class="cls-30" cx="480.15" cy="368.1" rx="29.32" ry="50.63" transform="translate(-72.27 121.38) rotate(-13.41)"/>
        <ellipse class="cls-15" cx="475.13" cy="372.2" rx="29.32" ry="50.63" transform="translate(-73.36 120.33) rotate(-13.41)"/>
        <ellipse class="cls-16" cx="473.77" cy="372.2" rx="19.57" ry="33.9" transform="translate(-46.18 67.83) rotate(-7.81)"/>
        <path class="cls-29" d="M472.35,378.65l-23.05,4.82,1.37-11.04c6.27-1.44,12.55-2.89,18.82-4.33.46.25,4.12,2.32,4.28,6.14.09,2.09-.91,3.7-1.42,4.41Z"/>
      </g>
      <g id="_Left_" data-name="&amp;lt;Left&amp;gt;">
        <path class="cls-5" d="M415.38,360.35c4.36.15,36.96,4.27,36.92,8.41-.12,10.3,3.47,25.49,1.15,24.31-4.45.86-4.2,1.27-3.21.23-1.22-.29-2.83-.95-4.59-2.52-.31-4.54-2.14-6.62-2.45-11.16,0,0-12.23-14.75-17.27-7.41,0,0-9.86.46-8.71,2.29,1.15,1.83-9.86-.64-9.86,2.66s3.36-1.89-5.43-.9l2.9,34.7s6.42,2.52,13.99,0c0,0,8.03.69,12.61-2.52,0,0,6.19,2.06,8.71-.69,2.52-2.75,5.73-7.8,5.73-7.8.06,1.2-.63-13.05-1-20.65"/>
        <path class="cls-28" d="M418.13,402.24c-.69-13.07-5.35-24.19-10.78-25.09"/>
        <path class="cls-28" d="M428.49,402.24c.15.67-5.48-24.55-11.51-25.99-5.86-1.39-18.57.81-18.57.9"/>
        <path class="cls-28" d="M438.54,398.57c-2.68,0-1.44-15.06-12.61-26.37"/>
      </g>
      <g id="Right">
        <path class="cls-5" d="M101.01,175.46l2.98-6.42c-8.03-1.91-16.05-3.82-24.08-5.73-1.29,1.34-14.77,15.42-16.05,19.95-.32,1.12-.13,2.15-.13,2.15.4,2.16,2.42,4.5,4.48,4.5s-1.15,6.42,6.42,8.94c0,0-2.49,7.57,9.19,5.96,0,0,2.96,7.34,5.95,5.73,2.98-1.61,15.82-28.2,18.57-26.83,2.75,1.38-9.4-.92-9.4-.92l6.19-5.73-4.13-1.61Z"/>
        <path class="cls-5" d="M73.04,184.86c3.29-4.28,6.57-8.56,9.86-12.84,1.55-.26,16.44-2.68,18.12,1.62.18.46.23,1.05,0,1.82-.92-.12-2.32-.21-3.96.09-4.24.76-7.01,3.51-8.66,5.19-2.32,2.37-2.17,3.2-5.27,6.88-1.74,2.07-3.32,3.62-4.36,4.59"/>
        <path class="cls-5" d="M86.21,197.93c2.88-1.83,12.74-15.13,12.74-15.13"/>
      </g>
      <g id="_Weight1_-2" data-name="&amp;lt;Weight1&amp;gt;">
        <ellipse class="cls-11" cx="375.71" cy="393.67" rx="29.21" ry="52.28" transform="translate(-81.05 97.86) rotate(-13.41)"/>
        <ellipse class="cls-2" cx="368.8" cy="397.54" rx="29.21" ry="52.28" transform="translate(-82.14 96.36) rotate(-13.41)"/>
        <ellipse class="cls-16" cx="368.3" cy="395.44" rx="19.57" ry="33.9" transform="translate(-81.66 96.19) rotate(-13.41)"/>
        <ellipse class="cls-30" cx="364.89" cy="393.64" rx="7.41" ry="10.37" transform="translate(-81.34 95.35) rotate(-13.41)"/>
        <ellipse class="cls-30" cx="361.57" cy="395.44" rx="5.5" ry="8.67" transform="translate(-81.84 94.63) rotate(-13.41)"/>
      </g>
      <g id="_Glass1_" data-name="&amp;lt;Glass1&amp;gt;">
        <path class="cls-3" d="M429.5,369.32c-.71.6-1.82,1.4-3.34,1.96-2.49.91-4.7.67-5.77.48.14-4.18.11-8.71-.19-13.55-.47-7.52-1.51-14.28-2.75-20.18h14.22c-1.33,5.86-2.39,12.89-2.52,20.87-.06,3.72.08,7.21.36,10.42Z"/>
        <path class="cls-14" d="M462.04,304.66c0,20.26-16.54,36.69-36.94,36.69s-36.94-16.43-36.94-36.69c0-8.1,2.64-15.58,7.12-21.65,1.8-2.45,3.91-4.67,6.26-6.61,5.69-2.8,14.64-5.02,24.39-5.02,8.8,0,16.47,1.81,21.72,4.23,2.76,2.11,5.21,4.6,7.27,7.4,4.48,6.07,7.12,13.55,7.12,21.65Z"/>
        <path class="cls-3" d="M455.91,284.6l-61.64-.49c2.26-3.4,3.96-6.8,5.24-14.63.72-4.43.63-8.31.32-11.32,16.96,0,33.44.74,50.4.74-.47,2.81-.36,6.4.64,11.5,1.35,6.86,3.12,11.69,5.04,14.21Z"/>
        <path class="cls-9" d="M450.54,257.76c0,.15-.02.31-.05.45-.81,3.82-12.33,9.8-25.86,9.8s-24.13-5.98-24.93-9.8c-.03-.14-.05-.3-.05-.45,0-1.65,2.03-3.53,5.38-5.18,4.85-2.38,12.47-4.28,20.77-4.28,7.49,0,14.03,1.54,18.5,3.6,3.91,1.78,6.24,3.97,6.24,5.85Z"/>
        <path class="cls-13" d="M454.98,285.86c0,.18-.02.36-.06.53-.95,4.49-14.48,11.51-30.36,11.51s-28.33-7.02-29.28-11.51c-.04-.17-.06-.35-.06-.53,0-1.94,2.38-4.15,6.32-6.08,5.69-2.8,14.64-5.02,24.39-5.02,8.8,0,16.47,1.81,21.72,4.23,4.59,2.09,7.33,4.66,7.33,6.87Z"/>
      </g>
      <g id="_Hair_" data-name="&amp;lt;Hair&amp;gt;">
        <path class="cls-12" d="M203.65,27.73c4.4-17.61,30.56-24.77,33.36-25.5,26.7-6.97,47.61,9.2,49.97,11.1,1.28-.41,3.21-1.08,5.5-2.05,5.67-2.42,6.48-3.75,9.86-5.04,5.78-2.22,11.21-1.33,13.53-.92,2.82.5,6.65,1.18,10.14,4.01,2.8,2.28,1.74,3.82,7.29,10.77,2.83,3.54,4.54,5.64,5.32,8.19,1.04,3.39.52,6.3-.19,10.49-.39,2.27-1.22,7.18-3.03,10.57-5.87,11.01-21.89,5.65-29.38,16.49-3.09,4.47-.69,5.84-4.68,16.22-.76,1.98-5.22,13.56-9.71,16.94-16.42,12.37-96.53-37-87.96-71.29Z"/>
        <path class="cls-46" d="M217.95,16.32s14.1-6.42,16.22-6.19,16.22,0,16.22,0l-17.47,5.05,17.47-.92-16.22,5.4,20.24,3.32-18.23,3.21,18.23,5.96-14.83,3.9s11.62,10.32,17.58,6.19-4.36,10.96-10.55,7.77-14.68-37.35-28.66-33.68Z"/>
        <path class="cls-17" d="M231.75,32.26c12.65-5.31,19.07-18.49,57.35-1.22"/>
        <path class="cls-17" d="M238.34,47c12.66-4.18,19.09-14.55,57.39-.96"/>
        <path class="cls-17" d="M234.37,42.98c13.23-5.09,19.94-17.71,59.97-1.17"/>
        <path class="cls-17" d="M230.21,36.69c13.47-5.75,20.31-19.99,61.08-1.32"/>
        <path class="cls-17" d="M230.69,26.03c12.92-4.42,19.48-15.39,58.57-1.02"/>
        <path class="cls-17" d="M227.92,21.02c13.35-4.16,20.13-14.46,60.53-.96"/>
        <path class="cls-17" d="M219.8,15.5c14.37-5.36,21.67-18.66,65.17-1.24"/>
        <path class="cls-17" d="M291.88,76.86c9.31-13.53,12.06-30.68,12.06-30.68,0,0-3.67-31.92-15.48-31.92,0,0,15.04,46.63,3.42,48.38"/>
        <path class="cls-4" d="M311.21,61.13c-.84,9.31-1.53,10.83,4.2,11.45s8.48-2.93,7.11-3.11-13.68,3.91-11.31-8.34"/>
        <path class="cls-17" d="M297.01,10.54c6.25,6.25,21.18,32.3,12.13,46.37-6.34,9.86-11.99,29.01-14.79,29.07"/>
        <path class="cls-17" d="M301.83,9.07c6.25,6.25,20.3,39.95,12.13,46.37"/>
        <path class="cls-17" d="M309.13,8.19c6.25,6.25,20.3,39.95,12.13,46.37"/>
        <path class="cls-17" d="M315.56,7.1c6.25,6.25,20.3,39.95,12.13,46.37"/>
      </g>
      <g id="_Face_" data-name="&amp;lt;Face&amp;gt;">
        <path class="cls-32" d="M195.25,92.38c2.6-2.29,6.56-2.83,6.56-2.83,0,0,4.75.69,4.44,2.83,0,0-4.74-2.14-6.04-.61-1.3,1.53-2.83,2.75-2.98,3.36,0,0-.01.04-.05.07-.25.23-1.38-.2-1.79-.99,0,0-.13-.25-.15-1.83h0Z"/>
        <path class="cls-7" d="M257.93,47.89s-16.2,21.4-30.57-12.23c0,0,6.42-20.79-16.51-14.98,0,0-18.94,13.45-17.27,37.91.75,2.89,1.43,6.07,1.96,9.51.3,1.96.52,3.84.68,5.64-1.12,3.53-2.25,6.23-3.1,8.09-.84,1.83-1.33,2.68-1.83,4.43-.69,2.42-.41,3.11-1.22,5.04-.93,2.21-1.6,2.03-1.99,3.67-.03.12-.67,3.08,1.07,5.38.37.49.97.92,2.14,1.81,1.55,1.17,2.39,1.81,3.52,2.14,1.06.31,1.31.04,4.28-.15,3.02-.19,4.54-.28,5.02.45.39.6.23,1.24-.59,3.45-2.29,6.19,3.44,6.19,3.44,6.19-2.21,3.15-2.16,4.82-1.71,5.76.57,1.2,1.83,1.32,3.62,2.8,1.65,1.37,2.6,2.96,3.13,4.05-.07,1.05-.74,8.17,4.09,11.72,3.55,2.61,10.08,2.92,22.05-3.66,0,0,10.2-4.01,11.81-.66s41.67-35.23,41.67-35.23c1.11-10.89.75-19.68.18-25.83-.82-8.81-2.11-12.52-4.59-13.3-1.87-.59-3.97.63-5.5,1.83,2.01-10.23-4.03-18.84-10.96-19.92-6.96-1.08-12.58,5.79-12.81,6.08Z"/>
        <path class="cls-43" d="M216.27,108.04c-2.76,1.67-5.53,3.34-8.29,5.02-1.2,1.46-1.74,2.82-2,3.72-.3,1.01-.84,2.89-.03,3.49.66.49,1.86-.1,2.18-.27,1.52-1.76,2.53-3.32,3.17-4.39.78-1.33,1.07-2.07,1.99-3.59.98-1.64,1.91-2.89,2.52-3.67l-.46.02c-2.14.08-4.27.15-6.41.23-1.63-.17-4.79-2.13-4.88-.5-.1,1.93-2.33,5.27,3.48,5.51"/>
        <path class="cls-47" d="M213.9,57.37c-1.08-.25-5.13-1.62-6.21-1.88-.62-.25-1.38-.5-2.28-.66-1.59-.28-2.96-.17-3.9-.01-.86.19-1.99.54-3.21,1.21-1.78.98-2.94,2.22-3.59,3.05-.09.08-1.69,1.55-1.53,2.68.04.26.14.57.14.57.03.09.23.67.64,1.17.69.83,1.67,1.1,1.97,1.17l2.22-.99s-3.75-3.75,4.59-6.65c1.47-.86,2.64-1.01,3.44-.99.56.01.86.11,1.7.2,1.3.14,5.33,1.2,6.03,1.14Z"/>
        <path class="cls-35" d="M206.34,93.98c1.2,1.35,1.55,3.15.89,4.57-.5,1.07-1.41,1.59-1.8,1.78h-3.6c-1.6.1-2.51.62-3.05,1.07-.48.4-1.61,1.55-2.6,1.76-.04,0-.13.03-.2-.02-.43-.25-.1-2.19.89-3.38,1.06-1.27,2.67-1.46,3.21-1.49.74.15,1.7.33,2.83.54,1.02.18,1.53.26,1.99-.03.4-.26.55-.69.73-1.28.24-.82.53-2,.72-3.5Z"/>
        <path class="cls-42" d="M206.22,81.61c1.46-.03,2.82-1.92,5.57-3.9,1.91-1.38,1.3,2.6,1.3,2.6,0,0-2.45,4.51-4.43,4.51,0,0-7.36,3.9-8.84-2.6-.87-3.8-.3-5.72.31-6.66.29-.44.93-.36,1.13.12.33.77,1.74,3.02,1.74,3.02,0,0,1.78,2.94,3.22,2.9Z"/>
        <path class="cls-37" d="M283.05,61.13c-.82.21-1.89-.95-2.17,2.15-.51,5.56-3.58,13.37-15.59,22.47,3.63,1.73,5.58,3.96,6.57,5.35,4.78,6.69,3.67,16.68,1.59,20.48-.11.19-.33.59-.22.7.8.78,16.97-14.78,16.97-14.78,0,0-3.18-8.67-4.38-16.2-1.81-11.32-1.11-20.6-2.78-20.18Z"/>
        <path class="cls-43" d="M266.64,61.65c-4.45-9.6-4.48-10.5-4.24-11.29.93-3.01,6.17-5,10.35-3.85,3.47.96,5.23,3.8,5.5,4.25,4.23,7.05-1.48,19.13-5.65,19.27-.51.02-.93-.14-1.22-.29,5.93-6.18,7.62-13.39,4.89-17.32-.56-.8-1.7-2.05-4.12-2.85-.82.19-1.75.47-2.75.92-2.22.99-3.77,2.35-4.74,3.36,0,0,12.69,3.51,4.28,13.68,0,0-1.7,2.57-6.66,4.77-1.11.49-1.68.52-1.9.28-.42-.46,2.8-2.35,2.74-5.05,0-.28-.04-.51-.08-.66l-.54-4.61c2.2,1.89,4.79,3.91,5.42,3.38.42-.36-.24-1.72-1.29-4Z"/>
        <path class="cls-37" d="M218.96,135.5c0-3.17,7.11-2.61,14.29-8.57,5.94-1.76,25.99.31,14.83,1.53s-11.16,8.71-16.66,8.25c0,0-12.46,1.96-12.46-1.21Z"/>
        <path class="cls-42" d="M203.57,31.38c3.8-1.87,11.87.92,5.29,3.21s-7.8,4.28-8.25,7.95-3.82,4.74-3.82,1.22,1.49-9.78,6.78-12.38Z"/>
        <path class="cls-42" d="M191.74,88.17c1.53.69,1.24,3.06,1.24,3.06l-1.86,2.75s-.76.84-1.38,2.06l-.99-.79,2.98-7.09Z"/>
        <path class="cls-44" d="M219.33,78.46c-7.98,4.43-10.89,12.47-8.83,17.48,2.04,4.96,8.46,6.69,12.27,7.22,7.09,1,12.41-.01,16.53-1.97,1.99-.95,12.56-4.93,17.23-15.52.82-1.87,1.28-3.52,1.55-4.69-1.36-10.14-4.19-13.2-6.68-13.99-3.99-1.26-7.46,3.67-16.25,7.57-6.26,2.77-11.35.71-15.82,3.9Z"/>
        <path class="cls-25" d="M260.75,75.28l2.61,1.12s-3.53,5.27-1.3,7.11-1.71,2.47-1.71,2.47l.4-10.7Z"/>
        <path class="cls-33" d="M250.17,133.08c.42,2.56,2.39,1.83,2.39,1.83,5.55-4.08,11.33-8.62,17.22-13.68,8.32-7.14,15.63-14.23,22.01-20.98-.12-.78-.42-1.22-.69-1.49-.35-.34-.96-.68-.93-.73,0,0,.02,0,.03,0,.22.02.55-.29.55-.29,0,0-19.59,17.06-40.59,35.35Z"/>
      </g>
      <g id="_Eye_" data-name="&amp;lt;Eye&amp;gt;">
        <path class="cls-37" d="M201.22,63.79c.54-.88,1.14-1.51,1.73-1.99,5.25-4.21,14.46.47,15.01.76l4.82,2.1-20.1,5.62c-.44-.75-1-1.92-1.3-3.44-.24-1.22-.22-2.28-.15-3.06Z"/>
        <path class="cls-32" d="M202.67,70.29s-5.19-7.41,10.51-5.04l4.78.69-5.73,1.6-9.55,2.76Z"/>
        <path class="cls-47" d="M195.25,69.9c-1.3-1.22-2.8-1.83-2.09-2.52s1.48-1.45,1.48-1.45l.61,3.97Z"/>
        <path class="cls-47" d="M199.15,70.78c.83.06,6.72-.94,18.11-3.78-2.86,1.39-4.77,2.93-5.99,4.09-1.31,1.24-2.14,2.34-3.53,2.45-1.5.12-2.82-1.01-3.68-1.95-3.09.2-5.19-.82-4.92-.8Z"/>
        <ellipse class="cls-40" cx="207.55" cy="72.06" rx=".97" ry="1.43" transform="translate(-11.01 94.47) rotate(-25)"/>
        <path class="cls-46" d="M209.52,70.9c2.52-.38,2.17-.69,2.17-.69l-2.98,2.37c.02-.15.07-.53-.13-.93-.3-.62-.92-.8-1.02-.83.65.03,1.31.05,1.96.08Z"/>
        <ellipse class="cls-36" cx="207.41" cy="72.22" rx=".44" ry=".62" transform="translate(-11.09 94.42) rotate(-25)"/>
      </g>
    </g>
  </g>
</svg>