<?xml version="1.0" encoding="UTF-8"?>
<svg xmlns="http://www.w3.org/2000/svg" version="1.1" viewBox="0 0 719.72 841.39">
  <defs>
    <style>
      .cls-1 {
        fill: #f9c3d2;
      }

      .cls-2 {
        fill: #f1f2f2;
      }

      .cls-3 {
        fill: #231f20;
      }

      .cls-4 {
        fill: #fff;
      }

      .cls-5 {
        fill: #f7941d;
      }

      .cls-6 {
        fill: #fffac0;
      }

      .cls-7 {
        fill: #d71920;
      }

      .cls-8 {
        fill: #f15a22;
      }
    </style>
  </defs>
  <!-- Generator: Adobe Illustrator 28.7.1, SVG Export Plug-In . SVG Version: 1.2.0 Build 142)  -->
  <g>
    <g id="Layer_1">
      <g>
        <path class="cls-3" d="M384.31,518.16l6.16-67.71c35.14,0,65.49-7.35,91.05-22.06,25.55-14.7,46.6-34.54,63.15-59.5,16.54-24.96,28.86-53.11,36.97-84.46,8.1-31.34,12.15-63.77,12.15-97.28h70.51c0,43.09-6.28,84.46-18.83,124.13-12.55,39.67-30.81,75.06-54.77,106.18s-53.28,55.68-87.97,73.69c-34.69,18.01-74.16,27.01-118.43,27.01ZM604.74,672.72l-123.22-236.63,61.61-34.88,144.44,271.51h-82.83Z"/>
        <path class="cls-3" d="M98.92,673.47V187.9h71.19v485.57h-71.19ZM113.3,464.2v-64.97h287.86v64.97H113.3ZM342.62,673.47V187.9h71.19v485.57h-71.19Z"/>
        <g>
          <g>
            <rect class="cls-1" x="70.95" y="353.4" width="430.61" height="279.59" rx="25" ry="25"/>
            <path class="cls-8" d="M476.56,634.49H95.95c-14.61,0-26.5-11.89-26.5-26.5v-229.59c0-14.61,11.89-26.5,26.5-26.5h380.61c14.61,0,26.5,11.89,26.5,26.5v229.59c0,14.61-11.89,26.5-26.5,26.5ZM95.95,354.9c-12.96,0-23.5,10.54-23.5,23.5v229.59c0,12.96,10.54,23.5,23.5,23.5h380.61c12.96,0,23.5-10.54,23.5-23.5v-229.59c0-12.96-10.54-23.5-23.5-23.5H95.95Z"/>
          </g>
          <rect class="cls-5" x="107.68" y="381.98" width="357.14" height="158.16" rx="26.88" ry="26.88"/>
          <rect class="cls-6" x="107.68" y="502.97" width="357.14" height="7"/>
          <g>
            <rect class="cls-7" x="178.31" y="429.94" width="216.33" height="57.14" rx="12" ry="12"/>
            <path class="cls-7" d="M382.64,487.58h-192.33c-6.89,0-12.5-5.61-12.5-12.5v-33.14c0-6.89,5.61-12.5,12.5-12.5h192.33c6.89,0,12.5,5.61,12.5,12.5v33.14c0,6.89-5.61,12.5-12.5,12.5ZM190.31,430.44c-6.34,0-11.5,5.16-11.5,11.5v33.14c0,6.34,5.16,11.5,11.5,11.5h192.33c6.34,0,11.5-5.16,11.5-11.5v-33.14c0-6.34-5.16-11.5-11.5-11.5h-192.33Z"/>
          </g>
          <g>
            <circle class="cls-2" cx="209.48" cy="458.51" r="20.83"/>
            <path class="cls-3" d="M209.48,480.84c-12.31,0-22.33-10.02-22.33-22.33s10.02-22.33,22.33-22.33,22.33,10.02,22.33,22.33-10.02,22.33-22.33,22.33ZM209.48,439.17c-10.66,0-19.33,8.67-19.33,19.33s8.67,19.33,19.33,19.33,19.33-8.67,19.33-19.33-8.67-19.33-19.33-19.33Z"/>
          </g>
          <g>
            <circle class="cls-2" cx="363.48" cy="458.01" r="20.83"/>
            <path class="cls-3" d="M363.48,480.34c-12.31,0-22.33-10.02-22.33-22.33s10.02-22.33,22.33-22.33,22.33,10.02,22.33,22.33-10.02,22.33-22.33,22.33ZM363.48,438.67c-10.66,0-19.33,8.67-19.33,19.33s8.67,19.33,19.33,19.33,19.33-8.67,19.33-19.33-8.67-19.33-19.33-19.33Z"/>
          </g>
          <g>
            <rect class="cls-3" x="205.06" y="437.67" width="8.83" height="8.83"/>
            <path class="cls-3" d="M214.39,447.01h-9.83v-9.83h9.83v9.83ZM205.56,446.01h7.83v-7.83h-7.83v7.83Z"/>
          </g>
          <g>
            <rect class="cls-3" x="205.06" y="469.19" width="8.83" height="8.83"/>
            <path class="cls-3" d="M214.39,478.53h-9.83v-9.83h9.83v9.83ZM205.56,477.53h7.83v-7.83h-7.83v7.83Z"/>
          </g>
          <g>
            <rect class="cls-3" x="188.64" y="454.59" width="8.83" height="8.83" transform="translate(-265.95 652.07) rotate(-90)"/>
            <path class="cls-3" d="M197.98,463.92h-9.83v-9.83h9.83v9.83ZM189.14,462.92h7.83v-7.83h-7.83v7.83Z"/>
          </g>
          <g>
            <rect class="cls-3" x="220.98" y="454.59" width="8.83" height="8.83"/>
            <path class="cls-3" d="M230.31,463.92h-9.83v-9.83h9.83v9.83ZM221.48,462.92h7.83v-7.83h-7.83v7.83Z"/>
          </g>
          <g>
            <rect class="cls-3" x="359.06" y="437.67" width="8.83" height="8.83"/>
            <path class="cls-3" d="M368.39,447.01h-9.83v-9.83h9.83v9.83ZM359.56,446.01h7.83v-7.83h-7.83v7.83Z"/>
          </g>
          <g>
            <rect class="cls-3" x="359.06" y="469.19" width="8.83" height="8.83"/>
            <path class="cls-3" d="M368.39,478.53h-9.83v-9.83h9.83v9.83ZM359.56,477.53h7.83v-7.83h-7.83v7.83Z"/>
          </g>
          <g>
            <rect class="cls-3" x="343.49" y="454.09" width="8.83" height="8.83"/>
            <path class="cls-3" d="M352.83,463.42h-9.83v-9.83h9.83v9.83ZM343.99,462.42h7.83v-7.83h-7.83v7.83Z"/>
          </g>
          <g>
            <rect class="cls-3" x="373.79" y="453.46" width="8.83" height="8.83"/>
            <path class="cls-3" d="M383.12,462.79h-9.83v-9.83h9.83v9.83ZM374.29,461.79h7.83v-7.83h-7.83v7.83Z"/>
          </g>
          <g>
            <path class="cls-3" d="M330.05,435.69v44.94h-33.62c-7.23-6.35-11.8-15.67-11.8-26.05,0-6.97,2.06-13.46,5.6-18.89h39.82Z"/>
            <path class="cls-3" d="M330.55,481.13h-34.31l-.14-.12c-7.61-6.68-11.97-16.31-11.97-26.43,0-6.84,1.96-13.46,5.68-19.16l.15-.23h40.59v45.94ZM296.62,480.13h32.93v-43.94h-39.05c-3.52,5.49-5.37,11.84-5.37,18.39,0,9.76,4.19,19.06,11.49,25.55Z"/>
          </g>
          <g>
            <path class="cls-3" d="M274.33,456.08c0,9.61-3.91,18.29-10.22,24.55h-22.8v-44.94h26.38c4.17,5.72,6.64,12.76,6.64,20.39Z"/>
            <path class="cls-3" d="M264.32,481.13h-23.51v-45.94h27.13l.15.21c4.41,6.04,6.74,13.2,6.74,20.68,0,9.43-3.68,18.27-10.37,24.9l-.15.15ZM241.81,480.13h22.09c6.4-6.43,9.93-14.96,9.93-24.05,0-7.19-2.21-14.06-6.4-19.89h-25.62v43.94Z"/>
          </g>
          <g>
            <path class="cls-4" d="M264.11,480.63c6.31-6.26,10.22-14.94,10.22-24.55,0-7.63-2.47-14.67-6.64-20.39h22.54c-3.54,5.43-5.6,11.92-5.6,18.89,0,10.38,4.57,19.7,11.8,26.05h-32.32Z"/>
            <path class="cls-3" d="M297.76,481.13h-34.86l.86-.85c6.5-6.44,10.07-15.04,10.07-24.2,0-7.27-2.26-14.22-6.54-20.09l-.58-.79h24.45l-.5.77c-3.61,5.54-5.52,11.97-5.52,18.62,0,9.83,4.24,19.18,11.63,25.67l1,.88ZM265.3,480.13h29.84c-7.01-6.63-11.01-15.87-11.01-25.55,0-6.53,1.79-12.87,5.19-18.39h-20.66c4.04,5.87,6.17,12.73,6.17,19.89,0,9.03-3.38,17.52-9.53,24.05Z"/>
          </g>
          <g>
            <path class="cls-3" d="M183.5,413.24l2.56-14.56h2.73l-2.56,14.56h-2.73ZM185.37,407.24l.34-2.5h8.32l-.34,2.5h-8.32ZM190.56,413.24l2.56-14.56h2.73l-2.56,14.56h-2.73Z"/>
            <path class="cls-3" d="M199.05,413.45c-1.03,0-1.82-.27-2.38-.8s-.84-1.29-.84-2.26c0-1.23.27-2.35.82-3.35.55-1,1.31-1.86,2.3-2.57s2.15-1.26,3.47-1.64,2.77-.57,4.33-.57h.26l-1.3,7.48c-.08.48-.03.81.14.98s.55.27,1.11.27h.49l-.41,2.35h-1.12c-.75,0-1.32-.08-1.72-.24-.4-.16-.67-.37-.83-.64-.15-.26-.23-.55-.23-.86,0-.31.02-.62.06-.93l.68.27h-1.19l.65-1.38c-.36,1.24-.91,2.2-1.66,2.88s-1.63,1.02-2.62,1.02ZM199.71,410.82c.9,0,1.68-.38,2.36-1.15.68-.77,1.14-1.86,1.39-3.27l.52-2.97.98,1.48c-.88.03-1.71.18-2.47.45-.77.26-1.44.62-2.01,1.06-.57.44-1.02.95-1.34,1.54-.32.58-.48,1.21-.48,1.89,0,.33.09.58.26.74.17.16.43.24.79.24Z"/>
            <path class="cls-3" d="M215.49,413.44c-1.37,0-2.4-.31-3.09-.93s-1.04-1.55-1.04-2.79c0-.22.03-.54.1-.97s.2-1.04.42-1.81l1.36-5.04c.14-.52.1-.92-.1-1.19s-.53-.41-.98-.41c-.33,0-.66.02-.99.06-.33.04-.66.1-.99.18l-.42-2.58c.51-.12,1.01-.19,1.52-.23s1.01-.06,1.52-.06c1.39,0,2.38.36,2.97,1.08.59.72.7,1.77.31,3.16l-1.37,5.04c-.2.73-.33,1.29-.39,1.67-.07.38-.1.65-.1.81-.01.93.62,1.39,1.9,1.39.38,0,.71-.04.99-.13.29-.08.63-.23,1.03-.44l.71,2.44c-.48.21-.98.39-1.51.54-.53.15-1.14.22-1.82.22Z"/>
            <path class="cls-3" d="M220.14,418.08l-1.23-2.41c1.59-.63,2.96-1.36,4.14-2.18,1.17-.82,2.17-1.77,3-2.85s1.51-2.29,2.04-3.66.95-2.91,1.26-4.61h2.84c-.52,2.73-1.29,5.09-2.3,7.09-1.01,2-2.32,3.7-3.91,5.1s-3.54,2.57-5.84,3.52ZM223.67,402.16c.96,3.97,2.25,6.98,3.85,9.01l-2.33,1.44c-.86-1.28-1.65-2.77-2.37-4.47s-1.38-3.62-1.99-5.78l2.84-.21Z"/>
            <path class="cls-3" d="M233.01,413.24l1.92-10.87h2.43l-.07,2.59-1.46,8.27h-2.82ZM239.39,413.24l1.16-6.56c.11-.62.06-1.08-.15-1.4-.21-.32-.56-.48-1.04-.48-.39,0-.76.1-1.11.3s-.65.53-.91,1-.45,1.1-.58,1.9l.49-3.66h.36c.23-.69.6-1.23,1.11-1.6.51-.38,1.14-.57,1.91-.57,1.16,0,1.98.38,2.45,1.13s.57,1.86.31,3.32l-1.17,6.62h-2.82Z"/>
            <path class="cls-3" d="M248.27,413.45c-1.03,0-1.82-.27-2.38-.8s-.84-1.29-.84-2.26c0-1.23.27-2.35.82-3.35.55-1,1.31-1.86,2.3-2.57s2.15-1.26,3.47-1.64,2.77-.57,4.33-.57h.26l-1.3,7.48c-.08.48-.03.81.14.98s.55.27,1.11.27h.49l-.41,2.35h-1.12c-.75,0-1.32-.08-1.72-.24-.4-.16-.67-.37-.83-.64-.15-.26-.23-.55-.23-.86,0-.31.02-.62.06-.93l.68.27h-1.19l.65-1.38c-.36,1.24-.91,2.2-1.66,2.88s-1.63,1.02-2.62,1.02ZM248.93,410.82c.9,0,1.68-.38,2.36-1.15.68-.77,1.14-1.86,1.39-3.27l.52-2.97.98,1.48c-.88.03-1.71.18-2.47.45-.77.26-1.44.62-2.01,1.06-.57.44-1.02.95-1.34,1.54-.32.58-.48,1.21-.48,1.89,0,.33.09.58.26.74.17.16.43.24.79.24Z"/>
            <path class="cls-3" d="M269.74,413.24l2.56-14.56h2.73l-2.56,14.56h-2.73ZM271.51,409.83l.13-2.65c1.66-.23,3.05-.75,4.16-1.55,1.11-.8,1.99-1.8,2.63-3,.65-1.2,1.1-2.52,1.35-3.96h2.75c-.33,1.94-.98,3.71-1.92,5.31s-2.18,2.91-3.71,3.94-3.32,1.67-5.39,1.91ZM277.37,413.24l-1.95-6.38,2.59-1.05,2.45,7.42h-3.1Z"/>
            <path class="cls-3" d="M281.66,418.08l-1.23-2.41c1.59-.63,2.96-1.36,4.14-2.18,1.17-.82,2.17-1.77,3-2.85s1.51-2.29,2.04-3.66.95-2.91,1.26-4.61h2.84c-.52,2.73-1.29,5.09-2.3,7.09-1.01,2-2.32,3.7-3.91,5.1s-3.54,2.57-5.84,3.52ZM285.19,402.16c.96,3.97,2.25,6.98,3.85,9.01l-2.33,1.44c-.86-1.28-1.65-2.77-2.37-4.47s-1.38-3.62-1.99-5.78l2.84-.21Z"/>
            <path class="cls-3" d="M305.24,404.92l-8.62,7.05-1.65-1.61,8.38-7.1,1.9,1.65ZM304.12,410.68l-.45,2.55h-8.49l-.22-2.87.64.32h8.52ZM305.24,404.92h-9.04l.45-2.55h8.37l.23,2.55Z"/>
            <path class="cls-3" d="M310.6,402.37l-.14,2.8-1.42,8.07h-2.78l1.94-10.87h2.4ZM310.45,413.24l1.33-7.55c.11-.63-.05-.94-.49-.94-.25,0-.46.13-.63.38-.17.26-.3.64-.4,1.16l-.04-2.57h.62c.21-.56.45-.96.74-1.2.29-.24.66-.36,1.11-.36.55,0,.92.23,1.12.69.2.46.22,1.19.06,2.18l-1.45,8.2h-1.97ZM318.06,405.03l-1.47,8.2h-2.78l1.34-7.55c.05-.3.04-.53-.04-.7-.08-.16-.21-.25-.39-.25-.25,0-.48.13-.67.38-.19.26-.34.64-.43,1.16l-.04-2.57h.66c.22-.57.5-.97.84-1.21.34-.24.76-.35,1.28-.35,1.48,0,2.04.96,1.7,2.87Z"/>
            <path class="cls-3" d="M328.45,410.24l.71,2.34c-.42.24-.86.44-1.32.61-.46.17-1,.25-1.6.25-1.31,0-2.29-.29-2.92-.87-.63-.58-.92-1.43-.85-2.55.03-.49.11-.96.24-1.43.13-.46.27-.92.42-1.35.15-.44.28-.85.37-1.25.1-.39.06-.69-.12-.89-.18-.2-.51-.3-.96-.3-.65,0-1.28.08-1.88.24l-.22-2.58c.4-.12.81-.19,1.21-.23s.81-.06,1.21-.06c1.5,0,2.55.32,3.15.96.6.64.74,1.6.44,2.86-.1.44-.23.86-.37,1.25-.15.39-.28.77-.4,1.15-.12.38-.2.79-.23,1.23-.05.79.38,1.19,1.3,1.19.34,0,.64-.04.9-.13.26-.08.56-.23.92-.44ZM326.11,400.9c-.53,0-.95-.16-1.28-.49s-.49-.76-.49-1.28.16-.95.49-1.28.76-.49,1.28-.49.95.16,1.28.49.49.76.49,1.28-.16.95-.49,1.28-.76.49-1.28.49Z"/>
            <path class="cls-3" d="M331.45,413.24l1.92-10.87h2.43l-.07,2.59-1.46,8.27h-2.82ZM337.82,413.24l1.16-6.56c.11-.62.06-1.08-.15-1.4-.21-.32-.56-.48-1.04-.48-.39,0-.76.1-1.11.3-.35.2-.65.53-.91,1s-.46,1.1-.58,1.9l.49-3.66h.36c.23-.69.6-1.23,1.11-1.6.51-.38,1.14-.57,1.91-.57,1.16,0,1.98.38,2.45,1.13.47.75.57,1.86.31,3.32l-1.17,6.62h-2.82Z"/>
            <path class="cls-3" d="M349.4,410.81c.62,0,1.22-.1,1.81-.29.59-.19,1.12-.44,1.57-.76l1.04,2.26c-.64.43-1.38.78-2.2,1.04-.82.26-1.67.39-2.53.39-1.57,0-2.79-.38-3.66-1.15-.87-.77-1.3-1.85-1.3-3.25s.27-2.6.81-3.62c.54-1.03,1.29-1.83,2.27-2.4.97-.57,2.11-.86,3.42-.86,1.02,0,1.86.15,2.54.46.67.31,1.24.8,1.71,1.49l-1.9,1.84c-.34-.4-.71-.7-1.13-.88s-.92-.27-1.51-.27c-.68,0-1.27.16-1.77.48-.5.32-.89.76-1.17,1.33-.28.57-.42,1.24-.43,2,0,.7.22,1.24.64,1.62.42.38,1.01.57,1.77.57Z"/>
            <path class="cls-3" d="M356.02,413.24l1.96-11.15c.12-.63.1-1.09-.06-1.38-.15-.29-.42-.44-.82-.44-.13,0-.26,0-.4.03-.14.02-.27.05-.41.09l-.3-2.58c.26-.06.52-.1.78-.13.26-.02.52-.04.78-.04,1.42,0,2.38.33,2.91.98.52.66.65,1.71.4,3.16l-2.02,11.45h-2.82ZM362.42,413.24l1.16-6.56c.11-.62.06-1.08-.15-1.4-.21-.32-.55-.48-1.03-.48-.4,0-.77.1-1.12.3-.35.2-.66.53-.92,1-.26.47-.46,1.1-.6,1.9l.49-3.66h.51c.22-.69.57-1.23,1.06-1.6.49-.38,1.1-.57,1.85-.57,1.16,0,1.97.38,2.44,1.13.47.75.57,1.86.31,3.32l-1.17,6.62h-2.82Z"/>
            <path class="cls-3" d="M371.69,413.45c-1.01,0-1.79-.32-2.34-.96-.55-.64-.83-1.54-.83-2.71,0-1,.16-2.1.48-3.3s.84-2.64,1.56-4.32l2.79.4c-.69,1.71-1.19,3.11-1.51,4.21-.32,1.1-.48,2.02-.48,2.75,0,.41.11.73.34.95s.55.34.96.34c.76,0,1.37-.38,1.84-1.14.47-.76.84-1.85,1.11-3.28l-.1,4.54h-.68l.4-1.08c-.22.74-.46,1.38-.72,1.91-.26.54-.61.95-1.05,1.24-.44.29-1.03.44-1.78.44ZM377.61,413.34c-.58,0-1.05-.1-1.41-.3-.36-.2-.61-.49-.75-.89-.14-.39-.17-.89-.1-1.48l-.07-2.37,1.06-5.94h2.81l-1.29,7.37c-.08.48-.07.81.05.98s.36.27.74.27h.49l-.41,2.35h-1.12Z"/>
            <path class="cls-3" d="M380.58,413.24l1.96-11.15c.12-.63.1-1.09-.06-1.38-.15-.29-.43-.44-.82-.44-.13,0-.26,0-.4.03-.14.02-.27.05-.41.09l-.3-2.58c.26-.06.52-.1.78-.13.26-.02.52-.04.78-.04,1.42,0,2.38.33,2.91.98.52.66.65,1.71.39,3.16l-2.02,11.45h-2.82ZM390.16,413.44c-1.44,0-2.55-.43-3.36-1.28-.8-.85-1.26-2.08-1.38-3.69,1.24-.49,2.1-.97,2.56-1.44.46-.47.69-.92.69-1.33,0-.6-.36-.9-1.08-.9-.31,0-.64.06-.98.17-.34.11-.67.29-.97.53-.31.24-.57.55-.8.92-.22.37-.38.82-.47,1.35l.45-3.44h.5c.13-.44.35-.82.67-1.14.31-.32.7-.58,1.15-.76.45-.18.95-.27,1.49-.27.88,0,1.58.27,2.1.79.53.53.79,1.23.79,2.11,0,1.03-.33,1.96-.99,2.78-.66.82-1.6,1.47-2.8,1.94l.21-1.88c-.01,1.07.21,1.81.66,2.25s1.13.65,2.03.65c.1,0,.18,0,.24,0,.05,0,.12,0,.18-.02l.2,2.54c-.16.03-.32.05-.49.08-.17.02-.36.04-.58.04Z"/>
          </g>
          <path class="cls-8" d="M416.53,634.49H159.11l38.43-66.94c3.82-6.66,10.97-10.8,18.65-10.8h.05l143.25.36c7.63.02,14.75,4.14,18.56,10.75l38.47,66.63ZM164.29,631.49h247.04l-35.87-62.13c-3.29-5.69-9.41-9.23-15.97-9.25l-143.25-.36h-.04c-6.61,0-12.75,3.56-16.05,9.29l-35.85,62.45Z"/>
        </g>
      </g>
    </g>
  </g>
</svg>