<?xml version="1.0" encoding="UTF-8"?>
<svg id="Layer_2" data-name="Layer 2" xmlns="http://www.w3.org/2000/svg" viewBox="0 0 168.45 127.64">
  <defs>
    <style>
      .cls-1 {
        fill: #58291e;
      }
    </style>
  </defs>
  <g id="Layer_1-2" data-name="Layer 1">
    <g>
      <g>
        <path class="cls-1" d="M76.09,28.85c14.86.9,10.54,18.52,30.62,22.79-4.67,6.31-15.24,6-23.53-.19-8.29-6.19-11.77-16.3-7.1-22.61Z"/>
        <path class="cls-1" d="M107.51,50.83c-14.82-1.47-9.84-18.91-29.74-23.95,4.9-6.12,15.45-5.42,23.51,1.08,8.05,6.5,11.14,16.74,6.23,22.86Z"/>
      </g>
      <g>
        <path class="cls-1" d="M2.1,6.18c14.86.9,10.54,18.52,30.62,22.79-4.67,6.31-15.24,6-23.53-.19C.9,22.6-2.58,12.49,2.1,6.18Z"/>
        <path class="cls-1" d="M33.51,28.16c-14.82-1.47-9.84-18.91-29.74-23.95,4.9-6.12,15.45-5.42,23.51,1.08,8.05,6.5,11.14,16.74,6.23,22.86Z"/>
      </g>
      <g>
        <path class="cls-1" d="M67.93,100.25c14.86.9,10.54,18.52,30.62,22.79-4.67,6.31-15.24,6-23.53-.19-8.29-6.19-11.77-16.3-7.1-22.61Z"/>
        <path class="cls-1" d="M99.34,122.23c-14.82-1.47-9.84-18.91-29.74-23.95,4.9-6.12,15.45-5.42,23.51,1.08,8.05,6.5,11.14,16.74,6.23,22.86Z"/>
      </g>
      <g>
        <path class="cls-1" d="M134.68,18.24c14.86.9,10.54,18.52,30.62,22.79-4.67,6.31-15.24,6-23.53-.19-8.29-6.19-11.77-16.3-7.1-22.61Z"/>
        <path class="cls-1" d="M166.1,40.23c-14.82-1.47-9.84-18.91-29.74-23.95,4.9-6.12,15.45-5.42,23.51,1.08,8.05,6.5,11.14,16.74,6.23,22.86Z"/>
      </g>
      <g>
        <path class="cls-1" d="M131.15,83.46c14.86.9,10.54,18.52,30.62,22.79-4.67,6.31-15.24,6-23.53-.19-8.29-6.19-11.77-16.3-7.1-22.61Z"/>
        <path class="cls-1" d="M162.56,105.45c-14.82-1.47-9.84-18.91-29.74-23.95,4.9-6.12,15.45-5.42,23.51,1.08,8.05,6.5,11.14,16.74,6.23,22.86Z"/>
      </g>
    </g>
  </g>
</svg>