<?xml version="1.0" encoding="UTF-8"?>
<svg id="Layer_2" data-name="Layer 2" xmlns="http://www.w3.org/2000/svg" xmlns:xlink="http://www.w3.org/1999/xlink" viewBox="0 0 831.25 579.67">
  <defs>
    <style>
      .cls-1 {
        fill: url(#linear-gradient-2);
      }

      .cls-2 {
        fill: #f7d0c6;
      }

      .cls-3 {
        fill: url(#linear-gradient-4);
      }

      .cls-4 {
        fill: url(#radial-gradient);
      }

      .cls-5 {
        fill: url(#linear-gradient-3);
      }

      .cls-6 {
        fill: url(#radial-gradient-2);
      }

      .cls-7 {
        fill: #edd0c6;
      }

      .cls-8 {
        fill: #fff;
        opacity: .6;
      }

      .cls-9 {
        fill: #401d19;
      }

      .cls-10 {
        fill: url(#linear-gradient);
      }
    </style>
    <linearGradient id="linear-gradient" x1="336" y1="579.67" x2="336" y2="559.7" gradientUnits="userSpaceOnUse">
      <stop offset="0" stop-color="#f7d0c6"/>
      <stop offset="1" stop-color="#9a382e"/>
    </linearGradient>
    <radialGradient id="radial-gradient" cx="335.93" cy="551.13" fx="335.93" fy="551.13" r="258.26" gradientTransform="translate(0 522.25) scale(1 .05)" gradientUnits="userSpaceOnUse">
      <stop offset=".07" stop-color="#9a382e"/>
      <stop offset="1" stop-color="#f7d0c6"/>
    </radialGradient>
    <linearGradient id="linear-gradient-2" x1="770.67" y1="277.93" x2="677.4" y2="439.47" gradientUnits="userSpaceOnUse">
      <stop offset=".34" stop-color="#9a382e"/>
      <stop offset="1" stop-color="#f7d0c6"/>
    </linearGradient>
    <radialGradient id="radial-gradient-2" cx="334.89" cy="235.07" fx="334.89" fy="235.07" r="309.44" gradientTransform="translate(0 194.07) scale(1 .17)" gradientUnits="userSpaceOnUse">
      <stop offset=".55" stop-color="#f7d0c6"/>
      <stop offset="1" stop-color="#9a382e"/>
    </radialGradient>
    <linearGradient id="linear-gradient-3" x1="309.34" y1="235.07" x2="309.34" y2="532.99" gradientUnits="userSpaceOnUse">
      <stop offset=".11" stop-color="#f7d0c6"/>
      <stop offset=".7" stop-color="#9a382e"/>
    </linearGradient>
    <linearGradient id="linear-gradient-4" x1="636.24" y1="420.17" x2="811.83" y2="297.22" gradientUnits="userSpaceOnUse">
      <stop offset=".4" stop-color="#f7d0c6"/>
      <stop offset=".91" stop-color="#9a382e"/>
    </linearGradient>
  </defs>
  <g id="Layer_1-2" data-name="Layer 1">
    <g id="Plate">
      <path class="cls-10" d="M521.86,579.67H150.13c-1.16,0-1.89-1.26-1.29-2.26.98-1.65,2-4.06,2.13-7.08.15-3.59-1.03-6.46-2.13-8.34-.6-1.01.11-2.28,1.28-2.28h371.71c1.14,0,1.89,1.23,1.34,2.23-1.01,1.82-2.08,4.56-2.03,7.99.05,3.22,1.07,5.8,2.04,7.54.55.99-.19,2.21-1.32,2.21Z"/>
      <path class="cls-4" d="M604.06,561.7H67.81c-7.93,0-14.36-6.43-14.36-14.36s6.43-14.36,14.36-14.36h536.25c7.93,0,14.36,6.43,14.36,14.36s-6.43,14.36-14.36,14.36Z"/>
    </g>
    <g id="Cup">
      <path class="cls-1" d="M724.04,451.98c-51.44,0-93.28-41.85-93.28-93.28s41.85-93.28,93.28-93.28,93.28,41.85,93.28,93.28-41.85,93.28-93.28,93.28ZM724.04,298.23c-33.34,0-60.47,27.12-60.47,60.47s27.13,60.47,60.47,60.47,60.47-27.12,60.47-60.47-27.13-60.47-60.47-60.47Z"/>
      <g>
        <path class="cls-6" d="M334.89,269.76c-89.28,0-173.2-4.07-236.28-11.45C7.06,247.6,4.5,235.19,4.5,235.07s2.56-12.53,94.11-23.24c63.08-7.38,147-11.45,236.28-11.45s173.2,4.07,236.28,11.45c91.55,10.71,94.11,23.12,94.11,23.24s-2.56,12.53-94.11,23.24c-63.08,7.38-147,11.45-236.28,11.45Z"/>
        <path class="cls-7" d="M334.89,204.88c83.92,0,164.08,3.65,225.71,10.29,69.82,7.52,91.61,16.13,98.1,19.9-6.49,3.77-28.27,12.38-98.1,19.9-61.63,6.64-141.79,10.29-225.71,10.29s-164.08-3.65-225.71-10.29c-69.82-7.52-91.61-16.13-98.1-19.9,6.49-3.77,28.27-12.38,98.1-19.9,61.63-6.64,141.79-10.29,225.71-10.29M334.89,195.88C149.94,195.88,0,213.43,0,235.07s149.94,39.19,334.89,39.19,334.89-17.55,334.89-39.19-149.94-39.19-334.89-39.19h0Z"/>
      </g>
      <path class="cls-5" d="M334.89,274.26C149.94,274.26,0,256.72,0,235.07c.81,142.17,97.35,261.64,228.43,297.23h160.14v.69c125.9-33.02,220.46-143.3,230.12-277.12-59.23,11.04-164.15,18.39-283.79,18.39Z"/>
      <path class="cls-2" d="M334.89,274.26c-119.64,0-224.56-7.35-283.79-18.39,9.59,132.88,102.9,242.57,227.47,276.43h162.78c131.08-35.59,227.62-155.06,228.43-297.23,0,21.64-149.94,39.19-334.89,39.19Z"/>
      <path class="cls-3" d="M724.04,465.91c-59.12,0-107.22-48.1-107.22-107.22s48.1-107.22,107.22-107.22,107.22,48.1,107.22,107.22-48.1,107.22-107.22,107.22ZM724.04,284.3c-41.02,0-74.4,33.38-74.4,74.4s33.38,74.4,74.4,74.4,74.4-33.38,74.4-74.4-33.38-74.4-74.4-74.4Z"/>
      <path class="cls-9" d="M637.4,241.87c.15,8.68-152.29,21.44-300.24,21.51-149.33.07-302.72-12.79-302.57-21.51.16-9.56,185.08-14.11,301.4-14.11,116.67,0,301.24,4.56,301.4,14.11Z"/>
    </g>
    <g id="Smoke">
      <path class="cls-8" d="M334.76,198.15c8.79-21.78,26.17-33.81,40.96-40.05,16.4-6.92,25.65-3.17,31.94-11.67,10.84-14.64-4.19-14.89-13.28-15.45-5.89-.34-28.51-.56-24.9-13.77,2.38-8.69,18.83-16.01,24.9-18.71,9.66-4.25,20.11-8.42,28.84-15.62,7.41-6.13,11.86-15.77,6.92-25.92-4.35-8.92-20.28-9.07-26.28-15.17,18.81.36,55.92,13.74,59.32,39.76,2.66,20.25-14.33,21.34-27.5,26.7-5.05,2.05-14.84,7.62-14.64,15.91.2,8.28,18.7,4.94,22.98,15.24,5.43,13.08-1.77,27.3-12.34,29.89-26.41,6.49-30.13-7.86-68.64,7.08-25.55,9.9-28.26,21.78-28.26,21.78Z"/>
      <path class="cls-8" d="M314.48,249.17c-15.64-1.63-38.31-8.89-50.57-22.45-16.19-17.88,1.53-30.08,14.66-35.1,16.35-6.22,32.55-11.61,48.84-16.91,12.74-4.13,33.08-10.64,42.21-22.95,15.73-21.27-6.08-21.61-19.26-22.4-8.54-.51-41.35-.83-36.13-19.99,3.46-12.62,27.32-23.23,36.13-27.11,14-6.2,29.17-12.21,41.82-22.7,10.75-8.87,17.22-22.87,10.05-37.6-6.31-12.91-29.44-13.13-38.11-21.96,27.3.53,81.09,19.9,86.03,57.62,3.35,25.54-14.81,30.08-32.15,35.91-10.3,3.48-30.75,14.28-28.97,25.89,1.78,11.64,24.9.7,31.1,15.64,7.88,18.97-3.27,41.23-15.7,49.81-10.77,7.45-20.78,12.13-33.04,15.58-17.17,4.87-37.4,4.35-53.67,12.99-24.75,13.17-1.26,42.13,18.86,37.15l.66-.31-22.76-1.11Z"/>
    </g>
  </g>
</svg>