<?xml version="1.0" encoding="UTF-8"?>
<svg id="Layer_2" data-name="Layer 2" xmlns="http://www.w3.org/2000/svg" xmlns:xlink="http://www.w3.org/1999/xlink" viewBox="0 0 1180.37 605.35">
  <defs>
    <style>
      .cls-1, .cls-2 {
        stroke: #401d18;
      }

      .cls-1, .cls-2, .cls-3 {
        stroke-miterlimit: 10;
      }

      .cls-4 {
        fill: url(#linear-gradient-2);
      }

      .cls-5 {
        fill: #401d18;
      }

      .cls-2, .cls-6, .cls-3 {
        fill: #edd0c6;
      }

      .cls-3 {
        stroke: url(#linear-gradient);
      }
    </style>
    <linearGradient id="linear-gradient" x1="0" y1="423.07" x2="995.47" y2="423.07" gradientUnits="userSpaceOnUse">
      <stop offset="0" stop-color="#401d18"/>
      <stop offset="1" stop-color="#edd0c6"/>
    </linearGradient>
    <linearGradient id="linear-gradient-2" x1="9.7" y1="286.06" x2="1180.37" y2="286.06" gradientUnits="userSpaceOnUse">
      <stop offset="0" stop-color="#edd0c6"/>
      <stop offset="1" stop-color="#401d18"/>
    </linearGradient>
  </defs>
  <g id="Layer_1-2" data-name="Layer 1">
    <path class="cls-5" d="M103.62,379.74c-1.17-1.56-2.58-3.02-3.69-4.54-3.48-4.73-6.48-9.67-9.57-14.65-4.34-6.99-9.52-13.32-13.69-20.45-4.81-8.25-8.77-16.07-12.46-24.86-2.43-5.79-5.03-13.36-10.16-17.38-2.27-1.78-5.27.15-5.64,2.66-1.3,8.72,2.29,17.92,4.93,26.06,2.96,9.14,6.54,18.26,9.92,27.25,2.21,5.87,4.75,11.52,7.53,17.04-5.94-4.93-12.3-9.4-18.56-13.67-9.67-6.59-19.96-13.02-28.66-20.84-4.96-4.45-12.29-11.09-19.33-11.66-2.97-.24-4.37,2.59-3.6,5.1,2.33,7.55,10.97,15.01,16.2,20.73,7.4,8.09,15.46,15.22,22.65,23.56,7.25,8.42,16.26,14.71,23.24,23.47.71.89,1.45,1.86,2.2,2.85,6.63-3.51,13.22-7.07,19.8-10.52,6.21-3.26,12.59-6.65,18.9-10.15Z"/>
    <path class="cls-5" d="M213.9,306.09c-6.61-4-13.77-7.25-19.97-11.77-4.4-3.21-8.54-7.18-12.29-11.13-3.14-3.3-5.69-8.14-9.55-10.6-1.79-1.14-4.85-.61-5.45,1.75-2.55,10.15,1.84,21.52,4.68,31.32,2.36,8.13,5.41,18.01,11.02,25.02,6.64-4.83,13.06-9.98,19.6-15.27,3.94-3.19,7.95-6.24,11.94-9.32Z"/>
    <path class="cls-5" d="M135.54,317.03c1.78,7.89,4.27,15.61,7.07,23.19.25.67.53,1.35.82,2.03-.46-.41-.91-.82-1.37-1.2-8.15-6.77-17.74-12.16-24.6-20.33-5.87-6.99-10.39-14.12-15.22-21.78-2.46-3.91-7.67-11.55-13.09-10.23-1.66.4-2.72,1.55-2.99,3.24-2.28,14.38,12.73,30.39,19.4,41.73,4.21,7.16,8.79,14.56,14.59,20.51,3.16,3.24,6.47,6.35,9.62,9.6,10.45-6.88,20.88-13.85,31.86-19.84,2.64-1.44,5.14-3.01,7.65-4.57-5.45-5.56-8.98-12.34-12.46-19.29-7.45-14.87-7.53-33.41-16.65-47.58-1.54-2.39-5.32-1.22-6.16,1.1-4.67,12.9-1.38,30.52,1.52,43.4Z"/>
    <path class="cls-5" d="M285.62,253.56c10.37-10.17,21.19-19.81,33.51-27.77,8.6-5.56,16.72-12.23,25.63-17.28,9.64-5.47,19.04-10.4,28.06-17.13,8.78-6.55,17.21-14.4,27.22-19.09,11.13-5.21,21.94-11.16,33.5-15.4,12.2-4.48,24.51-7.53,37.03-9.34,7.04-1.85,14.15-3.29,21.6-4.76,28.3-5.58,56.86-7.48,85.57-3.83,14.1,1.79,27.82,4.82,41.67,7.85,2.27.5,4.55.94,6.83,1.39-1.19-.33-2.23-1.34-2.11-2.78l.02-.2.26-.96c2.14-8.28,4.65-16.36,7.41-24.46,2.52-7.42,7.24-15.39,7.97-23.31.2-2.14,2.32-2.77,3.84-2.13-3.46-6.81-8.3-13.36-11.99-18.93-3.74-5.63-8.07-10.86-11.94-16.4-3.18-4.56-5.57-8.92-9.72-12.64-9.89-8.87-18.63-18.95-28.37-28.04-4.63-4.32-9.98-7.71-14.61-12.05-3.46-3.24-6.35-6.42-11.42-6.31-10.83.26-22.49,11.72-30.5,17.86-10.42,8-19.71,17.36-29.47,26.12-9.86,8.85-20.89,16.73-29.68,26.75-3.12,3.56-6.29,7.87-8.44,12.06-1.65,3.2-2.68,6.79-4.12,10.13.64-.16,1.35-.08,2.05.39,4.71,3.13,8.89,6.98,13.66,10.07,4.23,2.74,8.61,6.01,11.95,9.82,6.31,7.2,14.19,16.2,16.13,25.79.69,3.41-4.65,4.33-5.34.91-1.72-8.51-10.23-18.78-16.45-24.8-3.52-3.41-7.89-5.96-11.86-8.77-3.8-2.69-7.3-6-11.16-8.56-1.88-1.25-1.24-3.54.22-4.49-5.04-2.41-10.34-4.43-15.27-7.22-8.72-4.93-18.51-7.62-27.58-11.86-10.87-5.09-21.7-10.24-32.44-15.59-5-2.49-10.36-3.68-15.72-5.16-3-.83-7.09-2.4-10.23-1.52-7.2,2.01-10.28,13.96-11.97,20.15-3.07,11.2-4.12,22.55-5.56,34.04-2.28,18.16-1.6,36.37-2,54.58,1.23.24,2.37,1.17,2.36,2.76-.02,8.29,1.78,16.54,2.31,24.8.41,6.41.59,14.25,3.47,20.16,1.53,3.13-3.4,5.39-4.92,2.25-2.76-5.66-3.5-12.96-3.84-19.18-.53-9.49-2.43-19-2.41-28.51,0-1.1.56-1.76,1.3-2.1-4.3-2.43-8.31-5.22-12.32-8.13-6.93-5.02-14.71-9.81-22.39-13.6-9.24-4.56-18.7-7.75-28.4-11.09-6.04-2.08-13.39-5.03-18.92-.4-5.4,4.52-7.17,13.22-7.45,19.83-.4,9.68-.46,19.87.56,29.51,1.68,15.78,4.23,31.57,6.08,47.34.66-.2,1.42-.13,2.16.42,11.88,8.68,27.57,14.87,41.79,18.03,3.4.76,1.53,5.84-1.82,5.1-14.8-3.29-30.72-9.67-43.04-18.67-1.55-1.13-1.29-2.97-.29-4.06l-.55-.16c-9.5-3.02-17.53-7.09-26.44-11.34-1.96-.94-4.86.89-4.81,3.09.26,11.12,2.32,22.04,2.34,33.26.02,9.83-.84,19.59-.5,29.46.27,7.67,1.99,14.57,4.26,21.63,6.56-5,13.15-9.96,19.73-14.99,14.82-11.33,30.61-21.39,45.59-32.54Z"/>
    <path class="cls-5" d="M637.94,118.45c-3.14,9.3-6.15,18.62-8.59,28.13-.37,1.44-1.62,1.9-2.81,1.7,11.05,2.19,22.11,4.02,33.05,6.94,25.44,6.8,49.05,20.72,73.29,30.76,8.86,3.67,18.37,7.91,26.98,12.97.8-9.4,1.28-19.05.41-28.26-1.18-12.42-6.1-23.28-10.78-34.65-10.16-24.74-19.7-49.4-32.64-72.89-3.53-6.41-8.43-20.65-16.82-21.47-3.6-.35-6.13,1.84-8.91,3.75-5.4,3.71-10.45,7.53-15.4,11.83-9.41,8.16-17.62,17.31-24.86,27.45-2.37,3.32-4.41,6.81-6.3,10.36.41.47.67,1.1.59,1.92-.71,7.68-4.79,14.27-7.22,21.47Z"/>
    <path class="cls-2" d="M752.82,549.4c.72.4.32,6.49.43,7.51.32,2.88.96,5.76,1.49,8.6.97,5.13,3.27,9.14,4.78,13.92.3.95.09,1.82-.37,2.5-.04.65-.28,1.23-.69,1.67,5.83-1.37,11.27-3.8,14.38-8.02,5.73-7.78-1.73-17.55-8.18-21.75-2.69-1.75-5.54-3.36-8.24-5.19-.82.96-2.21,1.52-3.6.76Z"/>
    <path class="cls-3" d="M976.88,369.88c-6.92-1.79-13.74-4.28-20.29-7.08-5.09-2.18-10.92-6.64-16.34-6.88-9.78-.43-7.9,7.58-9.87,14.56-2.45,8.67-12.89,13.04-21.4,11.43-11.26-2.12-13.99-16.25-15.26-25.6-.16-1.17-.65-8.8-1.57-8.99-1.36-.28-3.21,4.97-3.79,6.16-3,6.07-6.54,11.54-10.8,16.79-6.32,7.79-15.29,18.85-25.57,21.31-9.34,2.23-15.88-7.6-17.28-15.71-.99-5.71-1.24-11.56-.87-17.33.24-3.81.71-7.55,1.25-11.33.06-.43.61-3.83.84-6.91-5.65-.7-12.08.51-16.28,1.98-7.99,2.78-15.69,6.4-22.78,11.05-9.21,6.04-20.14,17.91-32.64,12.97-11.62-4.59-6.75-22.19-4.46-30.92,3.09-11.8,8.16-23.99,7.51-35.4-5.7-1.26-11.88-1.89-12.84-1.72-8.56,1.55-15.08,9.01-18.38,16.58-5.36,12.31-6.24,25.64-15.03,36.45-5.75,7.08-17.57,8.62-25.15,2.98-7.59-5.66-8.84-16.98-9.13-25.67-.52-15.36-.71-30.98-.67-46.32.02-8.4-.07-17.57-2.8-25.63-4.01-11.81-14.95-3.45-20.58,2.94-11.2,12.72-15.64,29.58-24.18,43.95-5.28,8.88-16.39,20.05-27.94,16.94-13.97-3.76-18.99-24.06-21.84-36.08-2.09-8.82-3.33-17.49-3.67-26.55-.09-2.29-.23-4.79-.53-7.31-1.16-2.36-2.62-4.53-4.51-6.33-8.1-7.75-16.82,1.79-22.19,8.31-9.33,11.33-13.56,25.48-20.34,38.28-5.58,10.56-13.33,22.51-26.39,23.14-12.87.62-21.4-2.38-29.44-12.7-8.91-11.46-13.23-24.95-19.58-37.8-3.39-6.86-9.11-16.23-16.93-18.25-8.02-2.07-19.77,3.37-26.65,7.42-11.89,7-21.53,18.41-28.45,30.17-7.74,13.17-10.76,28.54-21.14,40.18-8.22,9.23-21.52,14.21-33.16,8.01-5.67-3.02-8.92-8.53-12.13-13.86-2.77-4.59-8.14-15.33-14.12-17.66-1.93.9-3.61,2.2-4.85,3.99-3.94,5.69-2.65,16.28-3.07,22.94-.37,5.81-.58,12.58-4.65,17.19-4.85,5.5-13.29,7.52-20.31,7.76-6.8.24-10.42-2.4-16.03-6.03-7.72-5-21.43-18.07-24.2-1.89-2.4,14.02,1.15,32.01-17.58,33.58-7.95.67-14.77-1.66-21.88-5.13-4.04-1.97-7.74-4.16-12.1-5.4-2.89-.82-7.39-2.39-10.34-.85-3.17,1.65-3.75,6.75-4.18,9.77-1.4,10.04-2.79,22.78-15.43,23.81-7.25.59-11.83-4.62-17.57-8.14-4.39-2.69-9.25-5.21-13.42-1.25-2.4,2.28-3.47,6.52-4.5,9.61-2.92,8.79-6.53,27.76-18.6,28.58-9.07.61-11.14-11.27-21.36-8.1-9.68,3.01-18.06,8.79-28.25,10.58-14.65,2.57-28.56-.32-41.51-6.21-1.89.54-3.75,1.14-5.66,1.61-5.3,1.31-4.27,9.27.58,9.03l.46.27c11.78,5.38,25.58,3.83,38.26,4.53,13.87.77,27.89,1.07,41.73-.38,16.11-1.69,31.38-5.73,47.13-9.07,7.33-1.55,13.58-5.29,20.47-8.1,6.99-2.85,14.25-5.1,20.95-8.57,29.01-15.02,59.41-31.05,93.07-29.34,15.57.79,30.35,3,44.62,9.63,10.84,5.04,19.84,13.26,29.74,19.87,3.26,8.15,7.72,15.77,11.03,23.92,7.68,18.95,6.25,40.65-1.71,59.29-3.9,9.13-9.8,17.39-13.98,26.45-3.54,7.69-5.76,15.52-7.88,23.68-3.82,14.69-6.74,33.17-2.46,48.01,1.49,5.15,2.83,7.58,8.03,8.68,8.01,1.7,16.84.96,24.96.57,16.39-.79,32.76-3.78,48.78-7.05,6.04-1.23,14.87-2.26,22.62-4.79-.94.02-1.91-.35-2.52-1.36-1.93-3.21-2.51-7.26-4.35-10.67-1.99-3.67-3.4-8.66-6.43-11.58-6.09-5.87-7.23,5.56-7.47,9.37-.29,4.7.91,8.97,1.27,13.55.27,3.45-5.06,4.39-5.34.91-.22-2.73-.56-5.33-.83-7.9-.51-.24-.95-.66-1.22-1.36-1.51-3.85-3.89-7.83-6.67-10.94-1.1-1.23-5.76-5.61-7.88-3.88-1.01.82-1.23,4.3-1.32,5.6-.27,3.56-.15,7.66.39,11.27l.1.22c.27.58.33,1.13.23,1.63.73,3.16,2.13,6.19,2.69,9.42.59,3.43-4.74,4.35-5.34.91-.54-3.15-1.32-6.07-2.02-9l-.49-.71c-2.96-6.29-13.9-28.42-21.61-15.11-4.21,7.27.81,19.97,2.38,27.52.71,3.41-4.63,4.33-5.34.91-1.98-9.55-9.38-31.67,3.55-37.15,8.77-3.71,15.21,2.5,19.87,9.91.16-3.64.91-7.52,3.52-9.72,6.63-5.58,14.38,2.48,19.08,9.77.09-.67.18-1.35.31-2.04.84-4.3,2.64-10.21,7.85-10.73,5.5-.55,9.2,4.68,11.54,8.85,1.75,3.11,3.32,6.34,4.97,9.5,1.5,2.87,1.86,6.5,3.48,9.19.74,1.23.31,2.3-.54,2.96,5.93-2.2,11.01-5.43,13.33-10.55,5.16-11.44-6.92-23.84-13.52-31.83-14.47-17.51,1.24-36.19,11.9-50.86,4.92-6.77,10.18-13.24,14.77-20.26,1.4-2.15,2.98-4.33,4.53-6.55-1.52-1.06-1.96-3.7.24-4.72,4.65-2.14,8.4-11.01,10.46-15.08,2.05-4.06,4.28-8,6.34-12.05,6.47-12.7,4.64-27.15,4.64-41.02,0-3.49,5.39-2.99,5.39.47,0,15.31,1.53,29.72-5.57,43.62-.7,1.37-1.42,2.93-2.16,4.58,23.9,10,48.18,10.58,73.85,9.77,2.38-.08,2.86,2.41,1.84,4.03,7.53.61,15.03,1.05,22.82,1.05,12.24,0,24.34-.35,36.56-.04,11.98.31,23.98,1.22,35.95,1.23,8.66,0,17.08-.59,25.55-1.13-.39-.46-.67-1.04-.67-1.78-.02-13.36-.94-26.43-6.43-38.77-4.35-9.77-7.57-20.06-8.47-30.82-.78-9.41-.93-18.54-.48-27.96.24-5.02.5-9.94,1.3-14.89.73-4.54,3.96-14.67,2.59-18.85-1.07-3.27,3.84-5.57,4.92-2.26,1.3,3.99-.27,8.73-.83,12.85-.81,6-1.93,11.8-2.19,17.84-.47,10.62-.67,20.78.02,31.4.43,6.68,1.97,13.34,3.78,19.8,1.74,6.22,5.25,11.7,7.17,17.87,3.47,11.18,4.01,22.65,4.03,34.26,0,2.03-1.82,2.68-3.35,2.2-.07,1.79-.17,3.58-.35,5.4-.86,8.44-3.01,16.59-4.06,24.97-1.17,9.32.07,18.95.26,28.29.24,11.88,2.65,23.9,7.03,34.98,4.11,10.4,8.39,21.27,19.64,25.35,4.36,1.58,8.69,2.4,13.04,2.82l-.36-.4c-2.37-4.02-2.95-10.38-3.63-14.92-.55-3.67-.71-9.39,1.72-12.56,2.69-3.5,8.15-2.06,11.57-.63,1.13.47,2.17,1.02,3.15,1.65-.36-3.9.35-8.16,4.22-9.8,4.87-2.07,10.72,2.24,15.02,7.61-.07-.92-.16-1.85-.19-2.78-.13-3.59.76-7.97,3.51-9.11l-1.14-1.11c-4.59-5.4-7.76-13.33-8.82-20.22-1.65-10.76.81-20.56,4.83-29.93-1.46-.62-2.43-2.27-1.14-3.8,5.49-6.53,12.56-11.39,17.91-18.12,5.1-6.42,9.35-14.73,12.41-22.3,3.91-9.65,5.72-20.58,7.28-30.86.75-4.95-2.35-13.7.3-18.06,1.81-2.98,6.26.11,4.46,3.07-.2.33,1.21,7.82,1.25,9.12.15,4.15-.96,8.08-1.72,12.16-1.81,9.72-3.37,19.81-7.54,28.86-3.02,6.55-6.4,13.45-10.57,19.34-5.37,7.59-13.09,12.6-19.04,19.55,1.64,9.34,4.33,18.54,7.4,26.67,6.56,17.33,16.38,31.84,29.22,45.05,5.84,6.02,10.31,10.31,19.03,10.1,7.87-.19,16.04-1.26,23.79-2.5.9-.14,1.78-.33,2.68-.49-.48-.4-.85-.91-1.04-1.6-.84-2.99-2.97-5.88-5.1-8.82-.5,0-1.02-.19-1.53-.64-1.67-1.49-3.61-3.32-5.84-3.87-.75-.19-2.04-.32-2.88-.27-1.22.06-.47-.42-1.23.7-2.67,3.94,1.86,9.94,2.87,13.84.88,3.37-4.46,4.27-5.34.91-1-3.83-3.25-7.01-3.58-11.08-.25-3.07.55-5.93,2.73-8.16,2.53-2.58,6.18-2.22,9.57-.82-.48-1.86-.54-3.78.09-5.81,1.13-3.57,4.12-4.68,7.65-4.8,1.98-.07,3.91.09,5.82.54l-.36-1.13c-.77-2.93-.32-6.29,1.56-8.74.76-.99,1.51-1.56,2.3-1.88-8.94-2.12-19.45-5.26-19.16-14.82.55-17.73,1.9-34.64,6.15-51.91,2.34-9.53,5.36-20.09,14.1-25.62,5.22-3.3,10.33-5.87,16.32-7.57,18.27-5.18,37.78-6.81,56.64-7.9,19.19-1.11,38.14-2.24,57.38-2.24,8.77,0,17.24-.13,25.64.24-8.57-13.87-11.05-31.62-11.26-48.46-2.13-.2-4.26-.52-6.4-1.08ZM335.7,408.66c-.36-7.51-2.93-14.98-3.55-22.52-.58-7.06,1.42-14.11,2.62-21.03.59-3.41,5.99-2.97,5.39.47-1.29,7.47-3.3,14.76-2.35,22.37.82,6.57,2.91,13.22,3.22,19.8.17,3.44-5.17,4.39-5.34.91Z"/>
    <path class="cls-6" d="M753.58,581.84c-1.63-5.4-4.49-11.6-7.56-16.34-1.54-2.38-3.18-4.89-5.43-6.64-1-.78-2.82-2.47-4.06-2.55-2.15-.14-1.04-.22-2.05,1.43l-.22.28-.14.86c-.36,2.62,2.33,7.93,3.18,10.49,1.42,4.3,3.01,8.52,4.91,12.62.65,1.39.03,2.67-1.01,3.32h.49c4.06-.03,9.22-.31,14.3-1.25-1.31-.29-2.02-.95-2.41-2.23Z"/>
    <path class="cls-6" d="M842.1,534.53c-7.6-.92-.12,9.21,1.99,11.57,3.55,3.95,7.45,7.57,10.97,11.55,1.53,1.73,0,4.73-2.31,4.44l-.27-.04c-1.08-.13-1.77-.75-2.12-1.52-3.29-3.57-7.7-7.22-11.24-11.28-3.18-.91-5.1-3.15-8.72-3.41-4.61-.34-5.44,2.18-3.6,6.09,2.48,5.28,6.73,9.46,8.76,14.96.79.81.97,2.08.6,3.08,6.5-1.41,12.83-3.4,18.69-6.65,4.04-2.23,7.77-3.99,9.96-7.37,3.36-2.17,4.2-6.07-.49-12.68-4.43-6.25-12.29-10.17-19.51-12.26.47,1.66-.5,3.76-2.71,3.49Z"/>
    <path class="cls-6" d="M556.05,462.79c-26.31.82-51.19.1-75.6-10.24-3.6,7.88-8.06,16.46-14.62,19.48-.65.3-1.25.28-1.78.13,1.19,2,2.36,3.99,3.48,5.88,4.11,6.88,7.47,13.98,10.75,21.27,7.07,15.7,11.8,32.45,13.18,49.65.67,8.32.38,16.8.3,25.14-.03,4.02-1.16,10.11,1.82,13.53,4,4.58,11.38,2.68,16.6,2.97,4.5.25,8.91.23,13.34.17-.53-.23-1.01-.65-1.27-1.4-1.9-5.31-1.71-12.46-2.03-18.09-.3-5.24,1.04-12.1,4.75-16.06,7.26-7.75,14.75-1.23,19.63,6.06.29-2.07.83-4.07,1.8-5.86,4.35-8,12.49-4.24,18.2,1.47.6-5.1,3.31-10.27,7.69-9.96-7.83-3.06-15.5-6.04-17.72-15.32-3.85-16.09,4.41-30.44,5.17-46.12.31-6.36.54-13.16-.53-19.45-.26-1.51-.58-3-.9-4.49-.48.7-1.21,1.23-2.25,1.26Z"/>
    <path class="cls-6" d="M544.62,572.31c-.29-.24-.54-.57-.72-1-1.61-3.82-3.82-8.07-6.74-11.08-6.24-6.43-9.47-.68-10.89,4.82-1.17,4.54-.23,9.01.11,13.58.19,2.54-.07,6.04.8,8.47.6,1.69-.44,3.1-1.74,3.62,1.65-.03,3.28-.05,4.96-.07,5.92-.08,11.86-.28,17.79-.48-2.3-4.89-3.18-12.35-3.54-17.53l-.02-.33Z"/>
    <path class="cls-6" d="M737.39,584.55c-.45-.51-.65-1.05-.67-1.57-2.06-4.57-3.95-9.4-5.52-14.26-.37-.24-.71-.57-.97-1.03-1.49-2.7-3.76-4.69-6.6-5.87-4.21-1.75-6.18-.95-6.3,3.61-.08,3.23.73,6.45,1.41,9.59.53,2.42.69,5.38,1.98,7.56.71,1.2.31,2.27-.5,2.94,5.95.26,11.95-.04,18.09-.16l-.65-.51-.27-.31Z"/>
    <path class="cls-6" d="M573.25,553.01c-4.28-3.1-2.53,11.63-2.37,12.53.4,2.27.73,4.58,1.25,6.83.98,4.25,3.04,8.33,3.52,12.7.38,3.45-4.96,4.39-5.34.91-.68-6.23-3.31-12.23-4.81-18.41-1.3-3.54-5.21-8.99-8.76-10.43-6.67-2.7-6.89,5.84-6.81,10.02.12,6.31.43,15.44,3.4,21.29.29.57.31,1.09.22,1.58,5.74-.19,11.47-.39,17.2-.48,8.63-.14,20.33-.23,22.54-10.34,1.99-9.11-1.65-20.64-9.09-26.34-2.37-1.82-5.12-3.17-7.95-4.37l.07.05c2.82,2.04-.25,6.51-3.07,4.46Z"/>
    <path class="cls-4" d="M129.78,363.8c-1.93,1.27-3.85,2.54-5.78,3.8-6.49,4.22-13.4,8.26-20.38,12.13-6.31,3.5-12.69,6.89-18.9,10.15-6.58,3.45-13.17,7.01-19.8,10.52-17.77,9.4-35.92,18.33-55.22,23.85,12.95,5.9,26.86,8.78,41.51,6.21,10.19-1.79,18.58-7.57,28.25-10.58,10.22-3.17,12.29,8.71,21.36,8.1,12.08-.82,15.68-19.79,18.6-28.58,1.03-3.09,2.1-7.33,4.5-9.61,4.17-3.96,9.03-1.44,13.42,1.25,5.74,3.51,10.33,8.73,17.57,8.14,12.64-1.03,14.03-13.77,15.43-23.81.42-3.02,1.01-8.12,4.18-9.77,2.95-1.53,7.45.03,10.34.85,4.36,1.24,8.06,3.43,12.1,5.4,7.11,3.46,13.93,5.8,21.88,5.13,18.73-1.58,15.18-19.56,17.58-33.58,2.76-16.17,16.48-3.1,24.2,1.89,5.61,3.64,9.23,6.27,16.03,6.03,7.02-.24,15.47-2.26,20.31-7.76,4.06-4.61,4.27-11.38,4.65-17.19.43-6.66-.87-17.25,3.07-22.94,1.24-1.79,2.92-3.09,4.85-3.99,5.98,2.33,11.35,13.07,14.12,17.66,3.21,5.33,6.46,10.84,12.13,13.86,11.64,6.21,24.94,1.23,33.16-8.01,10.38-11.65,13.39-27.02,21.14-40.18,6.92-11.76,16.56-23.17,28.45-30.17,6.88-4.06,18.63-9.49,26.65-7.42,7.82,2.02,13.54,11.39,16.93,18.25,6.35,12.84,10.67,26.34,19.58,37.8,8.03,10.33,16.57,13.33,29.44,12.7,13.06-.63,20.81-12.59,26.39-23.14,6.77-12.8,11.01-26.95,20.34-38.28,5.37-6.53,14.09-16.07,22.19-8.31,1.89,1.8,3.35,3.98,4.51,6.33.3,2.52.45,5.02.53,7.31.35,9.06,1.58,17.73,3.67,26.55,2.85,12.03,7.87,32.33,21.84,36.08,11.55,3.11,22.66-8.05,27.94-16.94,8.54-14.37,12.98-31.23,24.18-43.95,5.63-6.39,16.57-14.75,20.58-2.94,2.73,8.05,2.82,17.23,2.8,25.63-.04,15.34.15,30.97.67,46.32.29,8.69,1.54,20.01,9.13,25.67,7.58,5.65,19.4,4.11,25.15-2.98,8.78-10.81,9.67-24.15,15.03-36.45,3.3-7.57,9.81-15.04,18.38-16.58.96-.17,7.14.47,12.84,1.72.65,11.41-4.42,23.6-7.51,35.4-2.29,8.74-7.15,26.34,4.46,30.92,12.5,4.94,23.43-6.93,32.64-12.97,7.09-4.65,14.79-8.27,22.78-11.05,4.21-1.47,10.63-2.68,16.28-1.98-.23,3.08-.77,6.48-.84,6.91-.54,3.77-1.01,7.52-1.25,11.33-.37,5.76-.12,11.61.87,17.33,1.4,8.11,7.94,17.94,17.28,15.71,10.28-2.46,19.26-13.53,25.57-21.31,4.26-5.25,7.8-10.72,10.8-16.79.58-1.18,2.43-6.44,3.79-6.16.92.19,1.41,7.82,1.57,8.99,1.27,9.35,4,23.48,15.26,25.6,8.51,1.61,18.95-2.76,21.4-11.43,1.97-6.98.09-14.99,9.87-14.56,5.42.24,11.25,4.7,16.34,6.88,6.56,2.81,13.38,5.3,20.29,7.08,2.14.55,4.27.87,6.4,1.08.21,16.84,2.69,34.59,11.26,48.46,9.65.43,19.18,1.52,28.92,4.34,8.66,2.5,16.83,3.63,25.79,4.27,8.74.63,17.22,2.42,25.9,3.51,10.37,1.3,20.63,1.72,31.04,2.27,7.7.41,15.62,2.07,23.32.63,7.53-1.4,15.86-3.98,22.7-8.35-15.18-.01-30.5-1.67-44.33-8.7-13.05-6.63-27.83-11.39-35.35-24.75-1.7-3.03,3.22-5.28,4.92-2.25,6.64,11.81,22.58,17.45,34.48,22.86,13.1,5.96,26.77,7.45,40.9,7.45,2.25,0,2.82,2.24,2.03,3.83,7.23.22,14.4-1.87,19.02-8.09,6.72-9.05,7.29-19.96,5.83-30.65-.82-6.01-1.61-12.78-4.91-18.08-.76-1.23-1.72-2.41-2.75-3.6-3.49-6.66-8.03-13.18-11.61-19.11-6.56-10.89-12.4-22.38-18.39-33.59-10.76-20.16-25.67-39.34-44.55-52.34-19.77-13.62-45.54-13.21-68.54-13.11-14.54.06-28.87,3.08-43.02,6.19-12.08,2.65-21.63,7.92-32.19,14.35-11.49,7-22.4,15.05-35.42,18.77-8.18,2.34-15.51,3.91-24.12,2.97-1.63-.18-3.26-.39-4.88-.62-5.3-1.38-11.01-4.43-15.94-6.52-5.29-2.24-10.46-4.59-15.38-7.52-8.4-4.99-15.91-11.2-23.32-17.53-5.78-4.94-12.29-8.59-18.37-13.03-7.46-5.47-13.22-13.01-20.95-18.24l-.65-.42c-3.01-3.14-6.9-5.29-10.72-7.7-5.5-3.47-9.93-8.01-15.13-11.84-2.83-2.08-5.87-4.02-9.02-5.87-8.62-5.05-18.12-9.3-26.98-12.97-24.25-10.04-47.85-23.97-73.29-30.76-10.94-2.92-22-4.76-33.05-6.94l-.32-.07c-2.28-.45-4.55-.89-6.83-1.39-13.86-3.03-27.57-6.06-41.67-7.85-28.71-3.64-57.27-1.75-85.57,3.83-7.44,1.47-14.55,2.9-21.6,4.76-12.52,1.81-24.82,4.86-37.03,9.34-11.56,4.25-22.37,10.2-33.5,15.4-10,4.68-18.43,12.54-27.22,19.09-9.01,6.72-18.41,11.66-28.06,17.13-8.91,5.05-17.02,11.72-25.63,17.28-12.31,7.96-23.13,17.6-33.51,27.77-14.98,11.15-30.77,21.21-45.59,32.54-6.58,5.03-13.17,9.99-19.73,14.99-2.15,1.64-4.27,3.35-6.41,5-3.99,3.08-8,6.14-11.94,9.32-6.54,5.29-12.97,10.44-19.6,15.27-4.21,3.07-8.58,5.95-13.06,8.71-2.51,1.56-5.01,3.12-7.65,4.57-10.99,5.99-21.41,12.96-31.86,19.84ZM1147.49,387.37c0-1.46,1.56-2.58,2.93-2.46,1.56.14,2.46,1.46,2.46,2.93,0,1.75-.04,3.39-.3,5.11-.22,1.45-1.41,2.6-2.93,2.46-1.39-.13-2.68-1.48-2.46-2.93.26-1.73.3-3.37.3-5.11ZM1052.82,332.36c.46-2.54,1.27-6.02,4.23-6.64,2.02-.42,3.42.49,4.32,1.89,2.15,2.62,1.37,8.02.1,10.69-1.25,2.62-4.12,3.38-6.47,1.62-2.32-1.74-2.67-4.89-2.18-7.55ZM1010.32,350.39c9.28-3.98,26.59-4.96,35.3,1.2,6.18,4.37,9.66,13.76,3.06,18.99-5.1,4.03-12.91,5.36-19.87,4.36-10.1.56-20.86-1.17-24.94-6.12-.64-.41-1.24-.84-1.76-1.33-6.82-6.47,1.84-14.36,8.22-17.1Z"/>
    <path d="M1061.47,338.29c1.27-2.66,2.05-8.07-.1-10.69-.91-1.39-2.3-2.31-4.32-1.89-2.96.62-3.77,4.1-4.23,6.64-.48,2.66-.14,5.81,2.18,7.55,2.35,1.76,5.22,1,6.47-1.62Z"/>
    <path class="cls-5" d="M747.65,553.41c.03.92.12,1.85.19,2.78-4.3-5.37-10.14-9.68-15.02-7.61-3.87,1.64-4.58,5.9-4.22,9.8-.98-.62-2.03-1.18-3.15-1.65-3.42-1.42-8.88-2.87-11.57.63-2.43,3.16-2.27,8.89-1.72,12.56.68,4.54,1.27,10.9,3.63,14.92l.36.4c1.13,1.3,2.97,1.18,4.06.28.82-.67,1.21-1.74.5-2.94-1.28-2.18-1.45-5.14-1.98-7.56-.68-3.14-1.49-6.36-1.41-9.59.11-4.56,2.09-5.36,6.3-3.61,2.85,1.18,5.12,3.17,6.6,5.87.26.47.6.8.97,1.03,1.57,4.86,3.45,9.69,5.52,14.26.02.52.22,1.06.67,1.57l.27.31.65.51c.93.57,2.04.48,2.88-.05,1.03-.65,1.65-1.93,1.01-3.32-1.9-4.11-3.49-8.32-4.91-12.62-.84-2.56-3.54-7.88-3.18-10.49l.14-.86.22-.28c1.02-1.65-.09-1.57,2.05-1.43,1.24.08,3.06,1.78,4.06,2.55,2.25,1.75,3.88,4.26,5.43,6.64,3.07,4.74,5.93,10.94,7.56,16.34.39,1.28,1.1,1.94,2.41,2.23h.03s.36.09.36.09c.93.2,1.61-.07,2.08-.56.41-.43.66-1.02.69-1.67.47-.67.68-1.54.37-2.5-1.51-4.78-3.81-8.78-4.78-13.92-.54-2.84-1.18-5.73-1.49-8.6-.11-1.02.29-7.12-.43-7.51,1.4.77,2.79.21,3.6-.76.95-1.12,1.12-2.8-.53-3.7-2.01-1.09-3.53-1.14-4.73-.64-2.75,1.15-3.63,5.52-3.51,9.11Z"/>
    <path class="cls-5" d="M835.18,531.09c-1.88,2.45-2.33,5.81-1.56,8.74l.36,1.13c-1.91-.45-3.84-.61-5.82-.54-3.52.12-6.52,1.23-7.65,4.8-.64,2.03-.57,3.95-.09,5.81-3.38-1.4-7.04-1.75-9.57.82-2.18,2.23-2.98,5.09-2.73,8.16.33,4.06,2.58,7.25,3.58,11.08.88,3.35,6.22,2.46,5.34-.91-1.02-3.9-5.54-9.91-2.87-13.84.76-1.12.01-.63,1.23-.7.84-.05,2.13.09,2.88.27,2.23.55,4.17,2.38,5.84,3.87.51.45,1.03.64,1.53.64,2.13,2.94,4.26,5.83,5.1,8.82.19.68.56,1.2,1.04,1.6.38.31.82.56,1.39.64l.36.05c1.38.2,2.28-.54,2.64-1.54.37-1.01.19-2.27-.6-3.08-2.03-5.51-6.28-9.68-8.76-14.96-1.84-3.92-1.02-6.44,3.6-6.09,3.62.26,5.54,2.5,8.72,3.41,3.54,4.06,7.95,7.7,11.24,11.28.34.77,1.04,1.39,2.12,1.52l.27.04c2.32.29,3.84-2.71,2.31-4.44-3.52-3.98-7.42-7.6-10.97-11.55-2.11-2.36-9.59-12.49-1.99-11.57,2.21.27,3.19-1.83,2.71-3.49-.27-.94-.99-1.74-2.24-1.9-2.05-.24-3.63-.52-5.09.08-.79.33-1.54.89-2.3,1.88Z"/>
    <path class="cls-1" d="M768.68,472.46c4.16-5.9,7.54-12.79,10.57-19.34,4.18-9.05,5.74-19.14,7.54-28.86.76-4.08,1.87-8.02,1.72-12.16-.05-1.31-1.46-8.79-1.25-9.12,1.8-2.97-2.65-6.06-4.46-3.07-2.64,4.36.45,13.11-.3,18.06-1.56,10.28-3.37,21.2-7.28,30.86-3.06,7.57-7.32,15.88-12.41,22.3-5.35,6.74-12.42,11.6-17.91,18.12-1.3,1.54-.33,3.18,1.14,3.8,1.07.45,2.39.38,3.32-.73l.28-.29c5.95-6.95,13.67-11.96,19.04-19.55Z"/>
    <path class="cls-1" d="M683.96,461.23c-.02-11.61-.56-23.08-4.03-34.26-1.92-6.17-5.43-11.65-7.17-17.87-1.8-6.46-3.34-13.12-3.78-19.8-.69-10.62-.49-20.78-.02-31.4.27-6.04,1.39-11.84,2.19-17.84.56-4.11,2.13-8.86.83-12.85-1.09-3.31-5.99-1.01-4.92,2.26,1.37,4.18-1.86,14.31-2.59,18.85-.8,4.96-1.06,9.87-1.3,14.89-.45,9.42-.3,18.55.48,27.96.89,10.75,4.12,21.04,8.47,30.82,5.49,12.34,6.41,25.41,6.43,38.77,0,.75.28,1.32.67,1.78.37.43.84.73,1.37.89,1.53.48,3.36-.17,3.35-2.2Z"/>
    <path class="cls-1" d="M556.52,457.4c-25.67.8-49.96.22-73.85-9.77.75-1.65,1.46-3.21,2.16-4.58,7.1-13.9,5.57-28.32,5.57-43.62,0-3.47-5.39-3.96-5.39-.47,0,13.88,1.83,28.33-4.64,41.02-2.06,4.05-4.29,8-6.34,12.05-2.06,4.07-5.81,12.94-10.46,15.08-2.2,1.01-1.76,3.66-.24,4.72l.71.34c.54.15,1.13.17,1.78-.13,6.56-3.02,11.02-11.6,14.62-19.48,24.42,10.34,49.3,11.05,75.6,10.24,1.04-.03,1.77-.57,2.25-1.26l.06-.1c1.02-1.62.54-4.11-1.84-4.03Z"/>
    <path class="cls-5" d="M432.87,588.91c-1.61-2.69-1.98-6.32-3.48-9.19-1.65-3.16-3.22-6.39-4.97-9.5-2.34-4.17-6.04-9.4-11.54-8.85-5.21.52-7,6.43-7.85,10.73-.14.69-.22,1.37-.31,2.04-4.7-7.29-12.44-15.35-19.08-9.77-2.61,2.2-3.36,6.08-3.52,9.72-4.66-7.41-11.1-13.62-19.87-9.91-12.93,5.47-5.53,27.6-3.55,37.15.71,3.41,6.05,2.5,5.34-.91-1.57-7.55-6.59-20.25-2.38-27.52,7.71-13.31,18.65,8.82,21.61,15.11l.49.71c.7,2.93,1.47,5.85,2.02,9,.59,3.44,5.93,2.52,5.34-.91-.56-3.23-1.96-6.26-2.69-9.42.1-.49.05-1.04-.23-1.63l-.1-.22c-.54-3.61-.67-7.7-.39-11.27.1-1.29.31-4.77,1.32-5.6,2.12-1.72,6.78,2.65,7.88,3.88,2.78,3.11,5.16,7.09,6.67,10.94.27.7.71,1.13,1.22,1.36.27,2.57.61,5.17.83,7.9.28,3.48,5.61,2.53,5.34-.91-.36-4.57-1.56-8.85-1.27-13.55.23-3.82,1.37-15.24,7.47-9.37,3.03,2.92,4.45,7.91,6.43,11.58,1.85,3.41,2.42,7.46,4.35,10.67.6,1.01,1.57,1.38,2.52,1.36.69-.02,1.35-.25,1.87-.65.85-.66,1.28-1.74.54-2.96Z"/>
    <path class="cls-5" d="M564.59,556.87c-5.71-5.71-13.85-9.48-18.2-1.47-.97,1.79-1.51,3.79-1.8,5.86-4.88-7.29-12.37-13.81-19.63-6.06-3.71,3.96-5.05,10.81-4.75,16.06.32,5.63.13,12.78,2.03,18.09.27.75.74,1.17,1.27,1.4.6.25,1.28.23,1.91-.03,1.3-.52,2.34-1.93,1.74-3.62-.87-2.43-.61-5.93-.8-8.47-.34-4.58-1.28-9.04-.11-13.58,1.42-5.51,4.65-11.25,10.89-4.82,2.92,3.01,5.13,7.26,6.74,11.08.18.43.43.76.72,1l.02.33c.36,5.19,1.24,12.64,3.54,17.53l.23.53c1.29,2.54,4.75,1.48,5.14-.67.09-.49.07-1.01-.22-1.58-2.98-5.85-3.28-14.98-3.4-21.29-.08-4.18.13-12.72,6.81-10.02,3.55,1.44,7.46,6.89,8.76,10.43,1.5,6.17,4.13,12.17,4.81,18.41.38,3.48,5.71,2.54,5.34-.91-.48-4.36-2.54-8.44-3.52-12.7-.52-2.25-.85-4.56-1.25-6.83-.16-.9-1.91-15.63,2.37-12.53,2.82,2.05,5.9-2.41,3.07-4.46l-.07-.05c-1.44-1.03-2.77-1.51-3.97-1.59-4.38-.31-7.09,4.87-7.69,9.96Z"/>
    <path class="cls-1" d="M340.16,365.58c.6-3.44-4.8-3.88-5.39-.47-1.2,6.93-3.19,13.97-2.62,21.03.62,7.55,3.19,15.01,3.55,22.52.17,3.48,5.5,2.52,5.34-.91-.32-6.57-2.41-13.23-3.22-19.8-.95-7.61,1.06-14.9,2.35-22.37Z"/>
    <path class="cls-6" d="M1003.86,368.82c4.08,4.95,14.85,6.68,24.94,6.12,6.96,1,14.77-.33,19.87-4.36,6.6-5.23,3.12-14.62-3.06-18.99-8.7-6.16-26.01-5.18-35.3-1.2-6.38,2.74-15.05,10.63-8.22,17.1.52.49,1.12.93,1.76,1.33Z"/>
    <path d="M246.29,229.21c12.31,9,28.24,15.39,43.04,18.67,3.36.74,5.22-4.34,1.82-5.1-14.22-3.16-29.91-9.35-41.79-18.03-.74-.54-1.49-.61-2.16-.42-.47.14-.87.44-1.2.81-1,1.1-1.26,2.93.29,4.06Z"/>
    <path d="M328.75,162.98c-.03,9.51,1.88,19.01,2.41,28.51.35,6.22,1.09,13.52,3.84,19.18,1.53,3.14,6.45.88,4.92-2.25-2.88-5.9-3.06-13.74-3.47-20.16-.53-8.26-2.34-16.51-2.31-24.8,0-1.59-1.13-2.52-2.36-2.76-.6-.12-1.2-.05-1.73.19-.73.34-1.3,1-1.3,2.1Z"/>
    <path d="M452.33,97.77c3.87,2.56,7.36,5.87,11.16,8.56,3.97,2.81,8.34,5.36,11.86,8.77,6.22,6.02,14.73,16.29,16.45,24.8.69,3.42,6.03,2.5,5.34-.91-1.94-9.59-9.81-18.59-16.13-25.79-3.34-3.81-7.73-7.08-11.95-9.82-4.77-3.1-8.95-6.94-13.66-10.07-.7-.47-1.42-.55-2.05-.39l-.8.37c-1.46.95-2.1,3.23-.22,4.49Z"/>
    <path d="M639.77,96.51c-.73,7.92-5.45,15.88-7.97,23.31-2.75,8.1-5.27,16.18-7.41,24.46l-.26.96-.02.2c-.12,1.44.92,2.45,2.11,2.78l.32.07c1.19.2,2.45-.26,2.81-1.7,2.44-9.51,5.45-18.83,8.59-28.13,2.43-7.19,6.51-13.79,7.22-21.47.07-.81-.18-1.44-.59-1.92l-.96-.69c-1.53-.64-3.65,0-3.84,2.13Z"/>
  </g>
</svg>