<?xml version="1.0" encoding="UTF-8"?>
<svg id="Layer_2" data-name="Layer 2" xmlns="http://www.w3.org/2000/svg" viewBox="0 0 619.73 486.6">
  <defs>
    <style>
      .cls-1 {
        fill: #401d18;
      }

      .cls-2 {
        fill: #231f20;
      }

      .cls-3 {
        fill: #fff;
      }

      .cls-4 {
        fill: #ece7db;
      }

      .cls-5 {
        fill: #f26831;
      }
    </style>
  </defs>
  <g id="Layer_1-2" data-name="Layer 1">
    <g>
      <path class="cls-5" d="M29.39,485.57V0h71.19v485.57H29.39ZM43.77,276.3v-64.97h287.86v64.97H43.77ZM273.09,485.57V0h71.19v485.57h-71.19Z"/>
      <path class="cls-5" d="M344.54,1.03v255.98M344.54,257.01v229.59M316.47,332.03l6.16-67.71c35.14,0,65.49-7.35,91.05-22.06,25.55-14.7,46.6-34.54,63.15-59.5,16.54-24.96,28.86-53.11,36.97-84.46,8.1-31.34,12.15-63.77,12.15-97.28h70.51c0,43.09-6.28,84.46-18.83,124.13-12.55,39.67-30.81,75.06-54.77,106.18s-53.28,55.68-87.97,73.69c-34.69,18.01-74.16,27.01-118.43,27.01ZM536.9,486.6l-123.22-236.63,61.61-34.88,144.44,271.51h-82.83Z"/>
      <g>
        <g>
          <rect class="cls-4" x="1.5" y="166.53" width="430.61" height="279.59" rx="25" ry="25"/>
          <path class="cls-5" d="M407.11,447.62H26.5c-14.61,0-26.5-11.89-26.5-26.5v-229.59c0-14.61,11.89-26.5,26.5-26.5h380.61c14.61,0,26.5,11.89,26.5,26.5v229.59c0,14.61-11.89,26.5-26.5,26.5ZM26.5,168.03c-12.96,0-23.5,10.54-23.5,23.5v229.59c0,12.96,10.54,23.5,23.5,23.5h380.61c12.96,0,23.5-10.54,23.5-23.5v-229.59c0-12.96-10.54-23.5-23.5-23.5H26.5Z"/>
        </g>
        <g>
          <rect class="cls-4" x="38.23" y="195.1" width="357.14" height="158.16" rx="26.88" ry="26.88"/>
          <path class="cls-5" d="M368.49,354.77H65.11c-15.65,0-28.38-12.73-28.38-28.38v-104.4c0-15.65,12.73-28.38,28.38-28.38h303.38c15.65,0,28.38,12.73,28.38,28.38v104.4c0,15.65-12.73,28.38-28.38,28.38ZM65.11,196.6c-14,0-25.38,11.39-25.38,25.38v104.4c0,14,11.39,25.38,25.38,25.38h303.38c14,0,25.38-11.39,25.38-25.38v-104.4c0-14-11.39-25.38-25.38-25.38H65.11Z"/>
        </g>
        <rect class="cls-5" x="38.23" y="318.09" width="357.14" height="3"/>
        <g>
          <rect class="cls-4" x="108.86" y="243.06" width="216.33" height="57.14" rx="12" ry="12"/>
          <path class="cls-5" d="M313.19,301.71H120.86c-7.44,0-13.5-6.06-13.5-13.5v-33.14c0-7.44,6.06-13.5,13.5-13.5h192.33c7.44,0,13.5,6.06,13.5,13.5v33.14c0,7.44-6.06,13.5-13.5,13.5ZM120.86,244.56c-5.79,0-10.5,4.71-10.5,10.5v33.14c0,5.79,4.71,10.5,10.5,10.5h192.33c5.79,0,10.5-4.71,10.5-10.5v-33.14c0-5.79-4.71-10.5-10.5-10.5H120.86Z"/>
        </g>
        <g>
          <circle class="cls-4" cx="140.03" cy="271.63" r="20.83"/>
          <path class="cls-2" d="M140.03,293.97c-12.31,0-22.33-10.02-22.33-22.33s10.02-22.33,22.33-22.33,22.33,10.02,22.33,22.33-10.02,22.33-22.33,22.33ZM140.03,252.3c-10.66,0-19.33,8.67-19.33,19.33s8.67,19.33,19.33,19.33,19.33-8.67,19.33-19.33-8.67-19.33-19.33-19.33Z"/>
        </g>
        <g>
          <circle class="cls-4" cx="294.03" cy="271.13" r="20.83"/>
          <path class="cls-2" d="M294.03,293.47c-12.31,0-22.33-10.02-22.33-22.33s10.02-22.33,22.33-22.33,22.33,10.02,22.33,22.33-10.02,22.33-22.33,22.33ZM294.03,251.8c-10.66,0-19.33,8.67-19.33,19.33s8.67,19.33,19.33,19.33,19.33-8.67,19.33-19.33-8.67-19.33-19.33-19.33Z"/>
        </g>
        <g>
          <rect class="cls-2" x="135.61" y="250.8" width="8.83" height="8.83"/>
          <path class="cls-2" d="M144.94,260.13h-9.83v-9.83h9.83v9.83ZM136.11,259.13h7.83v-7.83h-7.83v7.83Z"/>
        </g>
        <g>
          <rect class="cls-2" x="135.61" y="282.32" width="8.83" height="8.83"/>
          <path class="cls-2" d="M144.94,291.65h-9.83v-9.83h9.83v9.83ZM136.11,290.65h7.83v-7.83h-7.83v7.83Z"/>
        </g>
        <g>
          <rect class="cls-2" x="119.19" y="267.72" width="8.83" height="8.83" transform="translate(-148.52 395.74) rotate(-90)"/>
          <path class="cls-2" d="M128.53,277.05h-9.83v-9.83h9.83v9.83ZM119.69,276.05h7.83v-7.83h-7.83v7.83Z"/>
        </g>
        <g>
          <rect class="cls-2" x="151.53" y="267.72" width="8.83" height="8.83"/>
          <path class="cls-2" d="M160.86,277.05h-9.83v-9.83h9.83v9.83ZM152.03,276.05h7.83v-7.83h-7.83v7.83Z"/>
        </g>
        <g>
          <rect class="cls-2" x="289.61" y="250.8" width="8.83" height="8.83"/>
          <path class="cls-2" d="M298.94,260.13h-9.83v-9.83h9.83v9.83ZM290.11,259.13h7.83v-7.83h-7.83v7.83Z"/>
        </g>
        <g>
          <rect class="cls-2" x="289.61" y="282.32" width="8.83" height="8.83"/>
          <path class="cls-2" d="M298.94,291.65h-9.83v-9.83h9.83v9.83ZM290.11,290.65h7.83v-7.83h-7.83v7.83Z"/>
        </g>
        <g>
          <rect class="cls-2" x="274.04" y="267.22" width="8.83" height="8.83"/>
          <path class="cls-2" d="M283.38,276.55h-9.83v-9.83h9.83v9.83ZM274.54,275.55h7.83v-7.83h-7.83v7.83Z"/>
        </g>
        <g>
          <rect class="cls-2" x="304.34" y="266.58" width="8.83" height="8.83"/>
          <path class="cls-2" d="M313.67,275.92h-9.83v-9.83h9.83v9.83ZM304.84,274.92h7.83v-7.83h-7.83v7.83Z"/>
        </g>
        <g>
          <path class="cls-1" d="M260.6,248.82v44.94h-33.62c-7.23-6.35-11.8-15.67-11.8-26.05,0-6.97,2.06-13.46,5.6-18.89h39.82Z"/>
          <path class="cls-2" d="M261.1,294.26h-34.31l-.14-.12c-7.61-6.68-11.97-16.31-11.97-26.43,0-6.84,1.96-13.46,5.68-19.16l.15-.23h40.59v45.94ZM227.17,293.26h32.93v-43.94h-39.05c-3.52,5.49-5.37,11.84-5.37,18.39,0,9.76,4.19,19.06,11.49,25.55Z"/>
        </g>
        <g>
          <path class="cls-1" d="M204.88,269.21c0,9.61-3.91,18.29-10.22,24.55h-22.8v-44.94h26.38c4.17,5.72,6.64,12.76,6.64,20.39Z"/>
          <path class="cls-2" d="M194.87,294.26h-23.51v-45.94h27.13l.15.21c4.41,6.04,6.74,13.2,6.74,20.68,0,9.43-3.68,18.27-10.37,24.91l-.15.15ZM172.36,293.26h22.09c6.4-6.43,9.93-14.96,9.93-24.05,0-7.19-2.21-14.06-6.4-19.89h-25.62v43.94Z"/>
        </g>
        <g>
          <path class="cls-3" d="M194.66,293.76c6.31-6.26,10.22-14.94,10.22-24.55,0-7.63-2.47-14.67-6.64-20.39h22.54c-3.54,5.43-5.6,11.92-5.6,18.89,0,10.38,4.57,19.7,11.8,26.05h-32.32Z"/>
          <path class="cls-2" d="M227.64,294.01h-33.59l.43-.43c6.54-6.49,10.15-15.15,10.15-24.37,0-7.33-2.28-14.33-6.59-20.24l-.29-.4h23.49l-.25.39c-3.64,5.58-5.56,12.06-5.56,18.75,0,9.9,4.27,19.32,11.71,25.86l.5.44ZM195.26,293.51h31.07c-7.25-6.61-11.4-15.98-11.4-25.8,0-6.63,1.86-13.07,5.39-18.64h-21.59c4.19,5.92,6.4,12.87,6.4,20.14,0,9.16-3.5,17.76-9.87,24.3Z"/>
        </g>
        <g>
          <path class="cls-1" d="M129.43,211.71v14.64h-1.91v-6.64h-7.46v6.64h-1.91v-14.64h1.91v6.43h7.46v-6.43h1.91Z"/>
          <path class="cls-1" d="M132.69,217.45c.48-.89,1.13-1.58,1.96-2.07.83-.49,1.76-.73,2.78-.73s1.88.22,2.62.65,1.29.98,1.66,1.64v-2.1h1.93v11.51h-1.93v-2.14c-.38.67-.94,1.23-1.69,1.67-.75.44-1.62.66-2.61.66s-1.95-.25-2.77-.76-1.48-1.21-1.95-2.12c-.48-.91-.71-1.95-.71-3.11s.24-2.21.71-3.1ZM141.19,218.3c-.35-.64-.82-1.14-1.42-1.48-.6-.34-1.25-.51-1.96-.51s-1.37.17-1.95.5-1.06.83-1.41,1.47-.52,1.4-.52,2.27.17,1.65.52,2.3.82,1.15,1.41,1.49,1.24.51,1.95.51,1.37-.17,1.96-.51c.59-.34,1.07-.84,1.42-1.49.35-.65.52-1.41.52-2.28s-.18-1.62-.52-2.27Z"/>
          <path class="cls-1" d="M148.79,210.8v15.54h-1.91v-15.54h1.91Z"/>
          <path class="cls-1" d="M161.96,214.83l-6.93,16.93h-1.97l2.27-5.54-4.64-11.38h2.12l3.61,9.32,3.57-9.32h1.97Z"/>
          <path class="cls-1" d="M172.88,215.9c.87.85,1.3,2.07,1.3,3.66v6.78h-1.89v-6.51c0-1.15-.29-2.03-.86-2.64s-1.36-.91-2.35-.91-1.81.31-2.4.95c-.6.63-.89,1.55-.89,2.75v6.36h-1.91v-11.51h1.91v1.64c.38-.59.89-1.04,1.54-1.36.65-.32,1.37-.48,2.15-.48,1.4,0,2.53.42,3.4,1.27Z"/>
          <path class="cls-1" d="M177.31,217.45c.48-.89,1.13-1.58,1.96-2.07.83-.49,1.76-.73,2.78-.73s1.88.22,2.62.65,1.29.98,1.66,1.64v-2.1h1.93v11.51h-1.93v-2.14c-.38.67-.94,1.23-1.69,1.67-.75.44-1.62.66-2.61.66s-1.95-.25-2.77-.76-1.48-1.21-1.95-2.12c-.48-.91-.71-1.95-.71-3.11s.24-2.21.71-3.1ZM185.82,218.3c-.35-.64-.82-1.14-1.42-1.48-.6-.34-1.25-.51-1.96-.51s-1.37.17-1.95.5-1.06.83-1.41,1.47-.52,1.4-.52,2.27.17,1.65.52,2.3.82,1.15,1.41,1.49,1.24.51,1.95.51,1.37-.17,1.96-.51c.59-.34,1.07-.84,1.42-1.49.35-.65.52-1.41.52-2.28s-.18-1.62-.52-2.27Z"/>
          <path class="cls-1" d="M205.05,226.34l-6.03-6.68v6.68h-1.91v-14.64h1.91v6.78l6.05-6.78h2.42l-6.64,7.33,6.7,7.31h-2.5Z"/>
          <path class="cls-1" d="M219.6,214.83l-6.93,16.93h-1.97l2.27-5.54-4.64-11.38h2.12l3.61,9.32,3.57-9.32h1.97Z"/>
          <path class="cls-1" d="M222.94,224.77h5.65v1.58h-7.83v-1.58l5.59-8.38h-5.54v-1.55h7.75v1.55l-5.61,8.38Z"/>
          <path class="cls-1" d="M247.3,215.18c.7.37,1.25.93,1.66,1.67.41.74.61,1.65.61,2.71v6.78h-1.89v-6.51c0-1.15-.28-2.03-.85-2.64-.57-.61-1.33-.91-2.3-.91s-1.79.32-2.37.96c-.59.64-.88,1.56-.88,2.76v6.34h-1.89v-6.51c0-1.15-.28-2.03-.85-2.64-.57-.61-1.33-.91-2.3-.91s-1.79.32-2.37.96c-.59.64-.88,1.56-.88,2.76v6.34h-1.91v-11.51h1.91v1.66c.38-.6.88-1.06,1.52-1.39.64-.32,1.34-.48,2.11-.48.97,0,1.82.22,2.56.65s1.29,1.07,1.66,1.91c.32-.81.85-1.44,1.6-1.89.74-.45,1.57-.67,2.48-.67s1.69.19,2.39.56Z"/>
          <path class="cls-1" d="M252.76,212.59c-.25-.25-.38-.56-.38-.92s.13-.67.38-.92.56-.38.92-.38.65.13.89.38.37.56.37.92-.12.67-.37.92-.54.38-.89.38-.67-.13-.92-.38ZM254.61,214.83v11.51h-1.91v-11.51h1.91Z"/>
          <path class="cls-1" d="M266.87,215.9c.87.85,1.3,2.07,1.3,3.66v6.78h-1.89v-6.51c0-1.15-.29-2.03-.86-2.64s-1.36-.91-2.35-.91-1.81.31-2.4.95c-.6.63-.89,1.55-.89,2.75v6.36h-1.91v-11.51h1.91v1.64c.38-.59.89-1.04,1.54-1.36.65-.32,1.37-.48,2.15-.48,1.4,0,2.53.42,3.4,1.27Z"/>
          <path class="cls-1" d="M271.31,217.45c.48-.89,1.14-1.58,1.98-2.07.85-.49,1.82-.73,2.91-.73,1.41,0,2.58.34,3.5,1.03.92.69,1.52,1.64,1.82,2.86h-2.06c-.2-.7-.58-1.25-1.14-1.66-.57-.41-1.27-.61-2.11-.61-1.09,0-1.97.38-2.65,1.12-.67.75-1.01,1.81-1.01,3.18s.34,2.46,1.01,3.21,1.55,1.13,2.65,1.13c.84,0,1.54-.2,2.1-.59.56-.39.94-.95,1.15-1.68h2.06c-.31,1.18-.92,2.12-1.85,2.82-.92.71-2.08,1.06-3.46,1.06-1.09,0-2.06-.24-2.91-.73-.85-.49-1.51-1.18-1.98-2.08-.48-.9-.71-1.95-.71-3.15s.24-2.23.71-3.12Z"/>
          <path class="cls-1" d="M292.12,215.18c.7.37,1.25.93,1.65,1.67.4.74.6,1.65.6,2.71v6.78h-1.89v-6.51c0-1.15-.29-2.03-.86-2.64s-1.36-.91-2.35-.91-1.81.31-2.4.95c-.6.63-.89,1.55-.89,2.75v6.36h-1.91v-15.54h1.91v5.67c.38-.59.9-1.04,1.56-1.36.66-.32,1.41-.48,2.24-.48.87,0,1.65.19,2.35.56Z"/>
          <path class="cls-1" d="M307.7,214.83v11.51h-1.91v-1.7c-.36.59-.87,1.05-1.52,1.38-.65.33-1.37.49-2.15.49-.9,0-1.7-.19-2.42-.56-.71-.37-1.28-.93-1.69-1.67-.41-.74-.62-1.65-.62-2.71v-6.74h1.89v6.49c0,1.13.29,2.01.86,2.61.57.61,1.36.91,2.35.91s1.83-.31,2.42-.94.88-1.55.88-2.75v-6.32h1.91Z"/>
          <path class="cls-1" d="M317.36,226.34l-4.51-5.08v5.08h-1.91v-15.54h1.91v9.14l4.43-5.1h2.67l-5.42,5.73,5.44,5.77h-2.6Z"/>
        </g>
        <g>
          <path class="cls-4" d="M344.48,446.12H92.25l37.14-64.7c3.58-6.23,10.21-10.06,17.4-10.04l143.25.36c7.13.02,13.71,3.83,17.27,10l37.17,64.38Z"/>
          <path class="cls-5" d="M347.08,447.62H89.66l38.43-66.94c3.82-6.66,10.97-10.8,18.65-10.8h.06l143.25.36c7.63.02,14.75,4.14,18.56,10.75l38.47,66.63ZM94.84,444.62h247.04l-35.87-62.13c-3.29-5.69-9.41-9.23-15.97-9.25l-143.25-.36h-.05c-6.61,0-12.75,3.56-16.04,9.29l-35.85,62.45Z"/>
        </g>
      </g>
    </g>
  </g>
</svg>