<?xml version="1.0" encoding="UTF-8"?>
<svg id="Layer_2" data-name="Layer 2" xmlns="http://www.w3.org/2000/svg" viewBox="0 0 89.78 110.32">
  <defs>
    <style>
      .cls-1 {
        fill: #ff682c;
      }
    </style>
  </defs>
  <g id="Layer_1-2" data-name="Layer 1">
    <g>
      <path class="cls-1" d="M48.21,52.22c-.63,2.68-.33,5.44.82,7.94,1.1,2.38,3,4.9,5.54,5.83.47.17.85-.51.49-.84-.93-.82-1.9-1.57-2.75-2.47-.85-.92-1.56-1.96-2.12-3.08-1.11-2.25-1.68-4.8-1.51-7.31.02-.27-.41-.32-.47-.06h0Z"/>
      <path class="cls-1" d="M49.21,63.35c.82,1.35,1.84,2.6,3.04,3.64.6.52,1.26.98,1.94,1.38.71.42,1.54.89,2.39.77.41-.05.68-.52.35-.85-.53-.55-1.25-.77-1.93-1.09-.69-.33-1.34-.71-1.97-1.13-1.25-.82-2.36-1.85-3.25-3.05-.25-.34-.81-.04-.58.34h0Z"/>
      <path class="cls-1" d="M55.44,70.72c.28.17.56.34.83.51.14.08.27.17.41.25.1.06.2.12.32.15.08.02.17.03.26.04.11.02.2.02.31-.02.09-.04.18-.1.23-.19.04-.07.06-.16.06-.24,0-.13-.06-.24-.14-.34-.05-.07-.1-.14-.16-.2-.08-.09-.18-.14-.28-.2-.14-.08-.28-.16-.42-.23-.28-.16-.57-.32-.85-.47-.26-.14-.62-.07-.76.2-.14.27-.07.6.2.76h0Z"/>
      <path class="cls-1" d="M36.07,27.29c1.38-.84,2.81-1.65,4.4-1.99.77-.16,1.55-.24,2.34-.21.41.01.81.07,1.22.13.42.06.78.05,1.2-.02.25-.04.32-.4.15-.56-.68-.64-1.59-.72-2.5-.75-.91-.03-1.84.06-2.72.28-1.73.45-3.4,1.3-4.4,2.82-.12.19.12.42.3.3h0Z"/>
      <path class="cls-1" d="M42.05,26.9c.05-.03.1-.06.16-.09.02-.01.07-.03.09-.04-.02.02-.11.04-.03.01.11-.04.23-.08.34-.1.03,0,.05-.01.08-.02.11-.02-.1,0-.02,0,.06,0,.12-.01.18-.01.12,0,.24.02.36.01-.03,0-.13-.02-.05,0,.03,0,.05,0,.08.01.06.01.12.03.17.04.12.03.23.06.35.09.06.02.11.03.17.05.03.01.06.02.09.03.01,0,.25.03.13.02-.1-.01.03,0,.04,0,.02,0,.05,0,.07.02.02,0,.05.01.07.01.06.02.12.02.17,0,.08-.01.08-.01,0,0,.2-.02.38-.15.38-.38-.01-.38-.32-.69-.63-.87-.32-.19-.65-.26-1.02-.28-.61-.04-1.27.13-1.77.49-.24.17-.38.51-.21.79.17.26.51.37.79.21h0Z"/>
      <path class="cls-1" d="M44.67,28.76c.1.1.19.19.29.29.08.08.17.14.27.21.11.07.23.07.35.09.02,0,.05,0,.07,0,.08,0,.16-.02.24-.06.05-.03.1-.07.13-.12.04-.05.07-.1.08-.16.02-.08.02-.17,0-.25,0-.03,0-.06-.01-.09,0-.01,0-.03,0-.04,0,0,0-.02,0-.02,0,0,0,0,0,0-.02-.05-.04-.09-.06-.14-.06-.1-.13-.19-.21-.27-.1-.09-.19-.19-.29-.28-.05-.06-.12-.1-.2-.13-.07-.04-.15-.06-.23-.05-.08,0-.16.01-.23.05-.08.02-.14.07-.2.13-.03.04-.06.08-.09.12-.05.09-.08.2-.08.31,0,.05.01.11.02.16.03.1.08.19.16.27h0Z"/>
      <path class="cls-1" d="M29.76,97.85c1.44,1.58,2.96,3.01,4.8,4.1.91.54,1.86.98,2.85,1.36.48.18.96.34,1.46.49.57.17,1.05.16,1.63.04.38-.08.37-.57.1-.76-.83-.59-1.79-.73-2.74-1.06-.94-.32-1.86-.71-2.75-1.14-1.8-.88-3.57-1.95-5.01-3.34-.21-.21-.52.11-.32.32h0Z"/>
      <path class="cls-1" d="M50.9,104.78c2.36-.15,4.59-.7,6.77-1.61,1.06-.44,2.08-.98,3.06-1.58,1.01-.62,2.01-1.27,2.76-2.19.32-.39-.07-.98-.56-.72-.97.52-1.82,1.19-2.76,1.76-.96.59-1.97,1.1-3,1.58-2.02.93-4.21,1.58-6.39,2.02-.41.08-.33.77.1.74h0Z"/>
      <path class="cls-1" d="M73.98,28.04c1.53,10.28,3.1,20.55,4.75,30.82,1.65,10.24,3.58,20.42,5.48,30.61.15.81,1.34.45,1.22-.34-1.64-10.25-3.25-20.5-5.14-30.71-1.89-10.18-3.86-20.35-5.87-30.51-.06-.29-.49-.16-.44.12h0Z"/>
      <path class="cls-1" d="M80.49,26.35c1.13,10.38,2.3,20.74,3.56,31.11,1.25,10.28,2.78,20.51,4.28,30.76.1.7,1.33.54,1.24-.17-1.23-10.28-2.44-20.55-3.92-30.8-1.5-10.33-3.08-20.64-4.71-30.95-.04-.25-.48-.2-.45.06h0Z"/>
      <path class="cls-1" d="M83.62,86.65c.44,1.09.42,2.3.84,3.39.37.95,1.06,1.84,2.05,2.18,1.05.37,2.07-.16,2.68-1.02.7-.99.69-2.22.44-3.36-.16-.74-.51-1.34-.83-2.01-.31-.66-.41-1.47-.4-2.19,0-.13-.19-.19-.24-.07-.3.6-.32,1.11-.27,1.78.05.68.07,1.37.22,2.03.26,1.1.71,2.51-.28,3.4-.87.79-1.83,0-2.27-.84-.28-.54-.39-1.17-.53-1.76-.15-.65-.32-1.28-.61-1.88-.21-.45-1-.13-.81.34h0Z"/>
      <path class="cls-1" d="M74.52,28.36c1.02.01,2.03-.07,3.03-.24.49-.08.98-.18,1.47-.31.49-.13,1.02-.25,1.47-.48.62-.33.17-1.21-.46-1.08-.45.09-.89.29-1.33.41-.46.13-.93.24-1.41.32-.91.17-1.84.25-2.77.25-.72,0-.72,1.11,0,1.12h0Z"/>
      <path class="cls-1" d="M79.18,27.16c1.03-.34,1.77-.52,2.52-1.35.64-.71,1.11-1.55,1.45-2.45.83-2.18.73-4.53-.01-6.72-1.91-5.66-7.35-9.74-7.92-15.92-.06-.66-.97-1.04-1.34-.36-2.59,4.73-4.74,9.93-4.77,15.4-.02,4.7,1.48,9.5,4.94,12.78.74.71,1.87-.42,1.13-1.13-7.63-7.25-4.49-18.31-.06-26.34-.45-.12-.89-.24-1.34-.36.46,5.24,4.25,8.99,6.73,13.36,1.24,2.18,2.16,4.62,1.84,7.17-.25,2.03-1.49,4.45-3.38,5.43-.26.14-.08.57.2.48h0Z"/>
      <path class="cls-1" d="M74.52,28.68c1.81.74,3.95.53,5.6-.52.48-.31.02-1.09-.45-.77-1.45,1-3.32,1.21-4.96.59-.18-.07-.39.08-.44.25-.06.21.07.37.25.44h0Z"/>
      <path class="cls-1" d="M80.49,26.99c-.06.06-.13.12-.19.18.03-.02.05-.04.08-.06-.07.06-.15.11-.22.18-.05.05-.1.09-.15.13.03-.02.06-.04.09-.07-.13.1-.27.18-.42.25.03-.01.07-.03.1-.04-.07.03-.14.05-.2.07-.13.04-.22.1-.3.21-.02.03-.08.11,0,0-.07.09-.11.17-.09.28.01.1.07.19.16.25.02.01.04.02.07.04.12.06.23.08.36.05.07-.02.13-.04.2-.07.16-.06.31-.14.45-.23.14-.09.28-.2.39-.32.13-.14.2-.33.27-.5.05-.14-.03-.32-.16-.39-.13-.07-.31-.06-.42.05h0Z"/>
      <path class="cls-1" d="M78.03,51.1c.19.18.39.38.62.51.24.13.53.22.79.3.52.15,1.06.2,1.59.17.53-.03,1.04-.13,1.53-.32.52-.21,1.22-.49,1.41-1.08.12-.35-.19-.66-.52-.68-.25-.02-.55.12-.77.22-.14.06-.31.13-.5.18-.21.06-.43.11-.65.15-.23.04-.27.05-.55.07-.21.01-.42,0-.63,0-.24-.02-.38-.03-.55-.06-.21-.04-.41-.1-.61-.15-.25-.07-.42-.06-.69-.13-.47-.12-.86.48-.49.84h0Z"/>
      <path class="cls-1" d="M78.82,47.63c.5.23,1.06.33,1.61.27.27-.03.54-.08.8-.18.15-.06.31-.11.44-.21.13-.09.2-.23.27-.36.09-.2-.06-.4-.28-.36-.1.02-.21.03-.32.07-.13.05-.25.13-.37.2-.18.09-.41.16-.63.2-.44.08-.9.04-1.32-.1-.28-.1-.47.36-.2.48h0Z"/>
      <path class="cls-1" d="M79.78,44.35l.3-.16s.1-.05.15-.08c.03-.02.06-.03.08-.06.03-.02.04-.05.06-.09.02-.03.02-.07.02-.1,0-.05,0-.09-.03-.14-.02-.04-.06-.07-.11-.1-.06-.04-.14-.04-.21-.03-.03,0-.06.02-.1.04-.05.02-.1.05-.15.07-.1.05-.21.1-.31.15-.06.03-.11.1-.13.17-.02.07-.01.16.03.21.04.06.1.11.17.13.08.02.15,0,.21-.03h0Z"/>
      <path class="cls-1" d="M79.88,42c.08-.03.15-.06.23-.09.04-.01.07-.03.11-.04.07-.02.13-.05.18-.11.03-.03.05-.06.07-.09.04-.07.05-.13.06-.21,0-.04,0-.07-.01-.11-.02-.07-.06-.11-.1-.17-.09-.12-.27-.15-.41-.11-.04,0-.07.02-.11.03-.08.02-.16.05-.24.07-.06.01-.1.04-.14.08-.05.03-.08.07-.11.12-.03.05-.05.1-.05.16-.01.06-.01.11,0,.17.01.03.03.07.04.1.04.06.09.12.15.15.03.01.07.03.1.04.08.02.15.02.23,0h0Z"/>
      <path class="cls-1" d="M73.88,9.4c-.29,1.03-.5,2.09-.63,3.15-.13,1.06-.22,2.16.03,3.21.1.4.64.27.68-.09.1-1.02.01-2.04.07-3.06.06-1.03.21-2.05.44-3.05.09-.38-.48-.54-.59-.16h0Z"/>
      <path class="cls-1" d="M72.07,11.29c-.35,2.26-.41,4.56-.15,6.83.25,2.18.79,4.55,1.91,6.47.19.33.74.11.63-.27-.61-2.11-1.33-4.14-1.72-6.31-.39-2.2-.46-4.44-.25-6.66.02-.24-.38-.29-.42-.06h0Z"/>
      <path class="cls-1" d="M74.08,17.26c.02.93.14,1.83.38,2.74.11.43.25.85.4,1.27.09.24.19.47.31.7.13.25.25.42.49.58.29.19.66-.07.67-.38,0-.46-.27-.92-.47-1.32-.18-.37-.35-.76-.49-1.15-.31-.82-.57-1.66-.77-2.51-.07-.29-.52-.23-.52.07h0Z"/>
      <path class="cls-1" d="M75.07,12.22c1.04,2.37,1.67,5.04,1.93,7.61.13,1.24.21,2.47.19,3.72-.01.6-.06,1.2-.1,1.8-.03.51-.13,1.1.27,1.49.1.09.24.11.36.05.9-.5.69-2.46.7-3.33.01-1.34-.07-2.68-.29-4-.45-2.69-1.41-5.15-2.68-7.55-.14-.26-.49-.03-.38.22h0Z"/>
      <path class="cls-1" d="M78.9,16.01c.36,1.81.51,3.7.46,5.55-.03.9-.11,1.8-.23,2.69-.07.47-.16.93-.25,1.4-.09.43-.05.75.03,1.18.03.17.29.24.4.1.3-.37.48-.64.57-1.12.1-.47.17-.95.24-1.43.13-.94.18-1.88.16-2.83-.03-1.94-.36-3.82-.95-5.67-.09-.27-.48-.16-.43.12h0Z"/>
      <path class="cls-1" d="M75.54,25.54c.2.45.4.9.59,1.34.1.22.19.44.29.66.06.14.11.26.23.36.09.08.19.12.29.18.13.09.27-.04.28-.16,0-.05.03-.09.04-.19,0-.05.01-.09.01-.14,0-.16-.08-.3-.14-.44-.1-.23-.2-.45-.31-.68-.2-.45-.4-.89-.6-1.34-.09-.2-.38-.25-.55-.14-.2.12-.23.35-.14.55h0Z"/>
      <path class="cls-1" d="M78.59,24.77c-.17.36-.34.71-.51,1.07-.19.4-.45.83-.49,1.28-.02.22.18.46.38.5.22.05.48-.03.59-.24.1-.19.16-.44.19-.65.03-.2.06-.39.09-.59.06-.39.12-.78.19-1.18.02-.12-.02-.24-.14-.29-.11-.04-.25-.01-.31.1h0Z"/>
      <path class="cls-1" d="M81.38,20.52c-.21,1.22-.56,2.43-1.04,3.57-.24.56-.52,1.1-.82,1.64-.15.28-.32.54-.49.81-.19.3-.23.54-.17.89.03.2.27.3.44.25.66-.17.9-.9,1.16-1.46.27-.59.5-1.21.69-1.83.37-1.24.58-2.51.61-3.8,0-.22-.35-.27-.39-.05h0Z"/>
      <path class="cls-1" d="M78.38,21.01c.1.92.13,1.85.07,2.78-.03.46-.07.92-.14,1.38-.07.44-.24.93-.23,1.37,0,.37.56.58.75.2.21-.43.24-.99.3-1.47.06-.46.1-.92.12-1.38.04-.96,0-1.93-.12-2.88-.03-.2-.15-.38-.38-.38-.19,0-.4.18-.38.38h0Z"/>
      <path class="cls-1" d="M73.62,25.77c.23.44.55.85.92,1.18.19.17.4.34.62.48.23.16.47.29.75.34.19.04.45-.02.54-.22.02-.03.04-.08.05-.11.06-.19-.04-.44-.22-.54-.13-.07-.25-.14-.39-.18-.05-.02-.1-.04-.16-.06-.03-.01-.06-.03-.09-.04.03,0,.08.03.02,0-.21-.09-.41-.2-.6-.34-.05-.03-.09-.06-.13-.1-.05-.04.07.06-.01,0-.02-.02-.04-.04-.07-.05-.09-.07-.17-.15-.25-.23-.08-.08-.16-.16-.23-.24-.02-.02-.04-.04-.05-.06,0,0-.06-.07-.04-.04.02.03-.03-.04-.03-.05-.02-.03-.04-.05-.06-.08-.1-.14-.29-.21-.45-.12-.16.09-.2.29-.12.45h0Z"/>
      <path class="cls-1" d="M76.05,10c.17.66.34,1.31.51,1.97.08.32.16.64.27.96.06.16.11.33.17.49.06.17.2.29.31.43.12.13.4.08.43-.11.02-.17.07-.35.04-.53-.03-.17-.09-.34-.13-.5-.08-.32-.19-.64-.3-.95-.21-.64-.43-1.29-.64-1.93-.14-.42-.78-.25-.66.18h0Z"/>
      <path class="cls-1" d="M78.79,13.96s.06.07.09.11c-.02-.03-.04-.06-.06-.08.09.12.16.24.22.37-.01-.03-.03-.07-.04-.1.06.14.08.27.11.42.01.06.05.11.07.17,0,.01.01.03.02.04.02.04-.03-.08-.01-.02.02.06.04.13.09.18.04.05.04.05.1.09.03.02-.06-.05-.02-.01.09.07.19.09.29.04.04-.02.07-.04.1-.07.05-.05.08-.11.1-.18.02-.05.04-.11.05-.17.05-.19,0-.38-.06-.56-.1-.3-.26-.58-.48-.81-.15-.16-.43-.16-.58,0-.16.17-.15.41,0,.58h0Z"/>
      <path class="cls-1" d="M55.91,54.16c.58,1.9,1.55,3.65,2.83,5.18.64.76,1.36,1.43,2.14,2.03.81.62,1.63,1.2,2.67,1.29.46.04.62-.56.35-.85-.62-.69-1.45-1.09-2.18-1.64-.7-.53-1.35-1.14-1.95-1.78-1.2-1.31-2.14-2.86-2.73-4.53-.25-.71-1.36-.42-1.14.31h0Z"/>
      <path class="cls-1" d="M59.75,54.88c.3,1.09,1.12,1.99,2.15,2.43.13.05.25.11.39.13.29.05.58.11.83-.09.21-.16.32-.39.26-.66-.03-.12-.1-.25-.19-.34-.12-.12-.26-.16-.41-.21-.03-.01-.06-.02-.08-.03.17.05.12.05.07.03-.1-.04-.2-.08-.3-.12-.05-.02-.25-.11-.03,0-.06-.03-.12-.05-.18-.08-.1-.05-.2-.11-.29-.17-.05-.03-.1-.07-.15-.1-.11-.08.11.09.04.03-.03-.03-.06-.05-.1-.08-.1-.09-.19-.18-.28-.28-.02-.02-.03-.04-.05-.05-.02-.02-.11-.14-.04-.04.08.1,0,0-.01-.02-.02-.03-.04-.06-.06-.09-.07-.11-.14-.22-.19-.34-.01-.03-.04-.06-.04-.1.01.03.03.06.04.09,0-.02-.02-.04-.03-.07-.03-.07-.05-.13-.07-.2-.1-.33-.47-.58-.82-.46-.34.11-.56.46-.46.82h0Z"/>
      <path class="cls-1" d="M17.4,37.43c-4.05,6.75-6.67,14.21-7.88,21.98-.59,3.77-.87,7.58-.8,11.4.07,3.88.33,8.05,1.62,11.74.22.62,1.28.58,1.22-.17-.29-3.72-.96-7.38-1.1-11.12-.15-3.89.06-7.79.62-11.64,1.11-7.56,3.6-14.93,7.15-21.69.29-.55-.51-1.03-.84-.49h0Z"/>
      <path class="cls-1" d="M29.95,25.33c-5.81,6.57-10.5,13.92-13.18,22.31-2.73,8.53-3.68,17.93-3.02,26.85.67,9.07,3.4,18.24,9.48,25.19,6.15,7.03,15.57,11.06,24.91,10.62,9.3-.44,18.89-5.11,23.99-13.07,2.48-3.86,3.51-8.44,2.49-12.95-1.05-4.61-3.97-8.6-7.14-12-3.27-3.51-7.03-6.53-10.13-10.2-3.34-3.94-5.31-8.55-5.37-13.76-.03-2.7.36-5.36,1.06-7.96.68-2.51,1.66-4.93,2.17-7.48.88-4.36,0-8.75-3.81-11.4-7.03-4.89-16.54-1.18-22.28,3.91-7.4,6.57-10.79,16.45-12.93,25.84-.59,2.58-1.09,5.17-1.53,7.78-.14.86,1.12,1.25,1.33.37,2.2-9.36,3.86-19.21,9.94-26.99,4.62-5.92,12.15-11.82,20.18-10.2,3.79.77,6.78,3.3,6.8,7.4.01,2.53-.87,5-1.63,7.38-.72,2.24-1.33,4.48-1.66,6.82-.65,4.65-.29,9.42,1.63,13.74,1.81,4.07,4.88,7.43,8.04,10.49,5.92,5.74,14.63,12.7,13.01,22.04-1.52,8.79-10.46,14.86-18.55,16.91-8.7,2.2-18.16.1-25.15-5.52-6.84-5.5-10.5-13.76-11.94-22.26-1.42-8.36-.92-17.33.81-25.62,1.64-7.85,4.94-15.17,9.46-21.78,1.27-1.86,2.64-3.66,4.07-5.4.59-.72-.4-1.75-1.03-1.03h0Z"/>
      <path class="cls-1" d="M34.49,31.43c-3.88,1.45-6.83,4.63-7.86,8.67-.51,2.02-.76,4.61.51,6.41,1.2,1.69,3.38,2.19,5.34,1.97,4.12-.46,7.88-3.26,9.67-6.98.97-2,1.51-4.35.94-6.55-.55-2.13-2.27-3.76-4.38-4.33-2.52-.69-5.06.14-7.05,1.74-.99.8-1.79,1.84-2.48,2.89-.72,1.11-1.44,2.38-1.62,3.7-.08.58.65,1.26,1.14.66,1.22-1.49,1.86-3.34,3.33-4.65,1.25-1.12,2.83-2.05,4.55-2.08,1.44-.02,2.98.62,3.71,1.92.82,1.46.47,3.31-.08,4.8-1.07,2.89-3.64,5.23-6.57,6.14-1.27.39-2.99.7-4.17-.13-1.31-.93-1.09-3.1-.82-4.48.68-3.56,3.08-6.86,6.32-8.51.64-.33.19-1.44-.5-1.18h0Z"/>
      <path class="cls-1" d="M23.94,52.95c-1.32,1.72-2.75,3.42-3.61,5.43-.82,1.92-1.19,4.01-.76,6.08.75,3.59,4.45,6.46,8.12,5.08,1.84-.69,3.23-2.16,4.18-3.85,1-1.79,1.78-3.89,2.08-5.92.3-1.99.07-4.05-1.17-5.69-1.03-1.36-2.58-2.35-4.27-2.62-1.93-.31-3.94.32-5.31,1.74-1.23,1.28-2.3,3.2-1.73,4.99.16.5.85.5,1.01,0,.38-1.19.7-2.52,1.67-3.39.97-.87,2.19-1.38,3.5-1.26,1.21.11,2.37.7,3.17,1.62,1,1.15,1.18,2.71.97,4.17-.23,1.55-.8,3.12-1.47,4.53-.64,1.33-1.49,2.59-2.81,3.33-2.62,1.47-5.32-.68-5.88-3.31-.78-3.66,1.5-7.36,3.41-10.29.47-.72-.63-1.3-1.12-.65h0Z"/>
      <path class="cls-1" d="M23.21,77.6c-.6,3.95-1.1,8.25,1.64,11.54,2.43,2.93,6.51,3.07,9.31.6,3.06-2.69,3.12-7.15,1.55-10.65-1.5-3.35-5.06-6.76-9.05-5.53-2,.62-3.38,2.32-3.94,4.29-.32,1.12-.45,2.28-.41,3.45.04,1.2.08,2.55.69,3.62.24.43.96.36,1.08-.14.2-.87.03-1.69-.03-2.57-.07-.96-.09-1.94.1-2.89.25-1.26.99-2.61,2.11-3.3,2.82-1.73,5.8.86,7.11,3.22,1.41,2.53,1.92,6.11-.17,8.44-1.87,2.08-4.79,2.42-6.79.35-2.61-2.7-2.22-6.82-1.9-10.25.07-.75-1.21-.93-1.32-.18h0Z"/>
      <path class="cls-1" d="M37.5,94c.23,4.3,3.97,7.16,7.95,7.94,3.83.75,8.72.44,10.22-3.84,1.4-3.98-1.36-7.92-4.99-9.4-2.16-.88-4.5-.96-6.78-.62-2.08.31-4.26,1.04-5.72,2.62-1.52,1.65-2.09,4.09-.95,6.11,1.05,1.86,3.07,2.95,5.03,3.57.36.11.49-.36.23-.55-2.21-1.71-5.44-4.07-3.32-7.16,1.9-2.77,6.53-3.19,9.54-2.54,2.99.65,5.97,3.1,5.58,6.44-.44,3.8-4.37,4.31-7.49,4.01-3.7-.35-7.83-2.48-8.27-6.58-.07-.65-1.07-.68-1.03,0h0Z"/>
      <path class="cls-1" d="M60.7,81.22c-3.13.59-5.28,4.19-4.19,7.22,1.09,3.02,4.85,4.56,7.77,3.26,3.53-1.57,4.74-6.5,2.47-9.58-1.09-1.48-2.73-2.39-4.56-2.6-1.79-.21-3.49.54-4.78,1.76-1.37,1.3-2.29,3.35-1.84,5.24.22.93.82,1.72,1.37,2.47.53.74,1.17,1.34,1.97,1.78.2.11.38-.19.18-.31-1.31-.77-2.21-1.99-2.21-3.54,0-1.34.14-2.62.97-3.72,1.58-2.11,4.71-2.37,6.71-.69,2.19,1.84,2.03,5.43-.2,7.18-1.83,1.44-4.7.83-5.97-1.07-1.54-2.3,0-5.71,2.57-6.43.63-.18.36-1.08-.27-.97h0Z"/>
      <path class="cls-1" d="M.07,20.86c1.85,2.61,3.69,5.21,5.54,7.82.91,1.28,1.83,2.56,2.76,3.83.45.61.89,1.22,1.36,1.82.24.31.47.63.76.9.29.27.65.38.97.59.23.16.55-.1.47-.36-.1-.32-.11-.66-.24-.98-.15-.36-.41-.68-.63-.99-.46-.64-.94-1.27-1.42-1.89-.97-1.26-1.94-2.52-2.93-3.77-1.98-2.5-3.96-5.01-5.94-7.51-.31-.39-.99.13-.7.54H.07Z"/>
      <path class="cls-1" d="M11.75,25.78c.51.66,1.02,1.32,1.53,1.98.25.32.5.64.74.96.29.38.56.85,1.03,1.02.36.13.87-.22.82-.62-.02-.17-.04-.32-.14-.47-.07-.11-.16-.21-.24-.31-.13-.17-.28-.34-.42-.51-.27-.33-.55-.66-.82-.99-.54-.65-1.08-1.3-1.62-1.95-.21-.26-.68-.24-.89,0-.26.28-.22.61,0,.89h0Z"/>
      <path class="cls-1" d="M18.4,15.74c.82,1.71,1.65,3.42,2.47,5.14.4.84.81,1.68,1.22,2.52.2.42.41.83.64,1.24.26.46.57.73.96,1.08.27.25.84.1.8-.33-.05-.51-.06-.91-.26-1.39-.2-.46-.41-.91-.64-1.36-.43-.83-.85-1.66-1.28-2.48-.89-1.71-1.78-3.43-2.66-5.14-.43-.83-1.65-.1-1.25.73h0Z"/>
    </g>
  </g>
</svg>