<?xml version="1.0" encoding="UTF-8"?>
<svg id="Layer_2" data-name="Layer 2" xmlns="http://www.w3.org/2000/svg" viewBox="0 0 80.8 86.09">
  <defs>
    <style>
      .cls-1 {
        fill: #ff682c;
      }
    </style>
  </defs>
  <g id="Layer_1-2" data-name="Layer 1">
    <g>
      <g>
        <g>
          <path class="cls-1" d="M53.12,61.58h-24.58v-3.63c0-4.56-1.49-8.83-4.2-12.03-3.24-3.82-5.05-8.69-5.1-13.7-.12-11.41,9.04-21.19,20.42-21.79,6-.31,11.69,1.78,16.03,5.9,4.34,4.12,6.74,9.68,6.74,15.67,0,5.08-1.81,10.02-5.09,13.91-2.72,3.22-4.22,7.36-4.22,11.64v4.05ZM30.64,59.48h20.37v-1.95c0-4.78,1.68-9.39,4.72-12.99,2.96-3.5,4.59-7.96,4.59-12.55,0-5.4-2.16-10.43-6.08-14.15-3.92-3.72-9.06-5.62-14.47-5.32-10.27.54-18.54,9.37-18.43,19.67.05,4.52,1.68,8.92,4.61,12.37,3.03,3.58,4.7,8.33,4.7,13.39v1.53Z"/>
          <path class="cls-1" d="M43.44,78.73h-5.22c-5.37,0-9.73-4.37-9.73-9.73v-9.52h24.69v9.52c0,5.37-4.37,9.73-9.73,9.73ZM30.59,61.58v7.42c0,4.21,3.42,7.63,7.63,7.63h5.22c4.21,0,7.63-3.42,7.63-7.63v-7.42h-20.49Z"/>
        </g>
        <path class="cls-1" d="M30.02,64.31c3.51.9,7.06,1.17,10.68,1.17,1.78,0,3.57-.05,5.35-.16,1.84-.11,3.57-.52,5.38-.82,1.06-.17.82-1.97-.26-1.89-1.77.13-3.55.06-5.33.16-1.71.1-3.43.14-5.14.14-3.49-.01-6.97-.2-10.46-.18-.9,0-1.11,1.35-.21,1.58h0Z"/>
        <path class="cls-1" d="M29.16,67.03c7,2.14,14.76,3.07,22.05,2.01,1.2-.17.89-2.11-.28-2.09-3.56.06-7.09.25-10.65.01-3.57-.24-7.22-.67-10.75-1.29-.87-.15-1.24,1.08-.37,1.34h0Z"/>
        <path class="cls-1" d="M30.7,71.28c3.31,1.18,6.67,1.88,10.17,2.14,1.71.13,3.43.16,5.15.11,1.72-.05,3.58-.11,5.25-.54.37-.1.73-.42.81-.81.07-.35.05-.58-.12-.89-.18-.35-.61-.58-1-.57-1.64.02-3.29.28-4.94.33-1.65.06-3.31.03-4.96-.09-3.31-.23-6.64-.73-9.88-1.44-1.15-.25-1.58,1.36-.48,1.76h0Z"/>
        <path class="cls-1" d="M31.85,75.12c2.73.79,5.48,1.17,8.32,1.3,2.77.12,5.75.07,8.47-.48.27-.05.58-.34.61-.61.04-.27.02-.43-.09-.68-.11-.26-.48-.45-.76-.44-1.4.09-2.79.3-4.19.38-1.35.07-2.7.08-4.05.08-2.73,0-5.48-.2-8.21-.4-.5-.04-.57.72-.12.85h0Z"/>
        <path class="cls-1" d="M35.18,77.57c-.26,1.28.4,2.49,1.52,3.11,1.26.7,2.76.58,4.15.51.76-.04,1.51-.07,2.26-.14.69-.06,1.42-.08,2.1-.25,1.37-.35,2.55-1.8,1.79-3.21-.56-1.04-2.13-.32-1.86.78.04.14.05.2-.14.33-.27.19-.69.21-1.01.25-1.1.11-2.2.25-3.3.41-.88.13-1.91.33-2.78.05-.55-.18-1.33-.77-1.24-1.44.06-.42-.1-.83-.54-.96-.38-.11-.87.13-.96.54h0Z"/>
        <path class="cls-1" d="M44.97,77.68c-1.24.32-2.52.47-3.8.51-.64.02-1.27,0-1.91-.03-.34-.02-.69-.02-1.03-.04-.15,0-.29-.03-.44-.03-.33-.01-.57.08-.87.21-.36.15-.57.63-.57.99,0,.43.23.75.57.99.39.27.86.27,1.31.3.34.02.69.04,1.03.03.74-.02,1.48-.11,2.21-.22,1.36-.2,2.67-.58,3.96-1.06.43-.16.73-.58.6-1.05-.12-.45-.6-.71-1.05-.6h0Z"/>
        <path class="cls-1" d="M30.77,58.48c6.45.37,13.03.68,19.49.09,1.38-.13,1.4-2.06,0-2.16-6.47-.48-13.04-.05-19.49.44-1.05.08-1.06,1.58,0,1.64h0Z"/>
        <path class="cls-1" d="M31.88,58.97c.12.37.24.74.35,1.11.06.19.12.37.2.55.07.16.1.22.2.35.08.11.16.17.27.25.18.13.4.19.62.13.48-.13.63-.74.53-1.17-.04-.19-.11-.37-.17-.56-.13-.37-.25-.73-.38-1.1-.07-.21-.19-.39-.38-.5-.18-.1-.44-.15-.64-.08-.42.14-.73.58-.58,1.03h0Z"/>
        <path class="cls-1" d="M34.84,58.92c.11.26.22.53.33.79.05.13.11.26.16.39.09.22.18.45.35.62.18.19.48.24.72.14.11-.05.19-.11.26-.2.08-.11.15-.26.14-.4-.03-.38-.24-.73-.4-1.07-.12-.26-.24-.52-.37-.77-.06-.14-.25-.27-.39-.3-.15-.03-.29-.03-.43.03-.13.05-.25.14-.31.27-.08.14-.13.35-.07.51h0Z"/>
        <path class="cls-1" d="M37.31,58.52c.06.29.12.58.21.87.1.33.17.69.36.98.19.29.55.43.88.29.31-.13.52-.5.41-.83-.04-.12-.08-.26-.15-.36-.04-.06-.08-.11-.12-.17-.09-.13-.18-.26-.27-.39-.19-.27-.41-.53-.62-.79-.11-.14-.36-.16-.51-.07-.16.1-.23.28-.19.47h0Z"/>
        <path class="cls-1" d="M39.97,58.54c-.1.42-.1.84-.02,1.26.03.18.1.34.17.51.04.1.08.2.14.3.04.07.11.16.16.21.12.11.24.17.39.23.03.01.06.02.09.03.19.06.46.03.63-.08.17-.11.34-.28.37-.49.01-.08.04-.19.04-.26,0-.15-.04-.3-.13-.43.03.11.06.21.09.32,0-.06.01-.11.02-.17.02-.15-.09-.31-.2-.39-.13-.1-.27-.12-.44-.09-.07.01-.13.03-.2.04.16.02.33.04.49.06-.12-.07-.28-.13-.42-.12-.08,0-.17.02-.26.04.34.26.69.52,1.03.79,0-.07-.01-.14-.02-.22-.02-.12-.05-.24-.12-.35-.05-.08-.11-.15-.17-.22.05.06.09.12.14.18-.11-.14-.19-.29-.26-.45.03.07.06.13.08.2-.07-.16-.11-.33-.14-.5,0,.07.02.14.03.21-.02-.13-.02-.27-.01-.4.01-.18-.09-.41-.22-.53-.12-.11-.26-.18-.43-.21-.36-.05-.74.17-.83.54h0Z"/>
        <path class="cls-1" d="M42.43,57.75c-.05.37-.07.73-.05,1.1,0,.08,0,.17,0,.25,0,.14.02.28.04.41.01.08.03.16.04.24.07.29.26.5.5.66.54.36,1.31-.11,1.29-.74,0-.11-.02-.22-.05-.33-.06-.19-.14-.3-.27-.45-.06-.07-.11-.13-.17-.2.04.05.08.11.13.16-.11-.15-.24-.29-.35-.44.04.05.07.09.11.14-.09-.13-.16-.29-.23-.43,0-.02-.01-.03-.02-.05-.02-.05-.02-.04.01.03,0,0-.04-.1-.05-.11-.03-.08-.06-.16-.08-.25-.06-.18-.23-.33-.43-.33-.18,0-.4.13-.43.33h0Z"/>
        <path class="cls-1" d="M45.67,58.21c-.1.14-.17.31-.22.48-.02.06-.03.11-.04.17-.02.12-.04.25-.04.38,0,.18.02.37.07.55.03.12.08.24.15.35.11.17.23.32.4.43.07.03.14.06.21.09.08.01.15.02.23.03.08-.01.15-.02.23-.03.11-.03.21-.08.29-.15.06-.04.12-.09.15-.15.05-.05.09-.12.11-.19.04-.07.06-.14.06-.22.03-.11.02-.23-.02-.34-.03-.13-.11-.24-.16-.37.03.07.06.14.09.21-.04-.1-.08-.21-.14-.31-.02-.04-.04-.08-.06-.11.03.07.06.14.09.21-.04-.1-.07-.21-.09-.32,0,.07.02.15.03.22-.01-.1-.01-.2,0-.29,0,.07-.02.14-.03.21.01-.08.03-.15.06-.23.06-.17.02-.43-.08-.58-.09-.14-.21-.24-.36-.31-.15-.06-.33-.09-.49-.04-.19.06-.34.18-.45.35h0Z"/>
        <path class="cls-1" d="M48.07,57.71c-.21.17-.34.4-.44.65.02-.04.03-.08.05-.12-.06.11-.11.23-.15.36-.05.14-.06.28-.08.43.03-.13.07-.26.1-.39,0,0,0,.01-.01.02.04-.05.08-.11.13-.16,0,0,0,0,0,0-.04.06-.09.11-.13.17-.06.09-.09.2-.1.3-.02.16,0,.38.1.52.06.08.12.15.18.23.05.04.11.08.16.13.09.06.19.09.3.1.17.02.36,0,.51-.1.12-.08.21-.17.29-.29.06-.09.09-.19.1-.3.02-.11.02-.21-.01-.32,0-.03-.02-.05-.03-.08-.1-.34-.43-.61-.79-.6,0,0,0,0,0,0,.07,0,.14.02.21.03,0,0-.02,0-.03,0,.11.07.23.13.34.2-.08-.06-.15-.13-.21-.21.03.04.06.08.09.12-.04-.05-.07-.1-.1-.16.02.04.03.08.05.12-.02-.04-.03-.09-.04-.13,0-.02,0-.04-.01-.06-.02-.09,0,.06,0,.02,0-.04,0-.09,0-.13,0-.02,0-.04,0-.06,0-.02.01-.11,0-.02.02-.12-.01-.25-.13-.32-.12-.06-.24-.04-.34.04h0Z"/>
        <path class="cls-1" d="M49.94,58.22c0,.08-.02.15-.03.23,0,.04,0,.08-.01.11,0,0,0,.02,0,.03,0,.04,0,.07.01.11,0,.04,0,.07.02.11,0,.02,0,.04.01.06.02.06.05.12.07.17.05.09.11.15.19.21.05.05.1.08.16.09.09.05.18.07.28.06.06,0,.13-.02.19-.03.06-.02.12-.05.17-.07.09-.05.15-.11.21-.19.06-.07.11-.15.13-.25.02-.1.05-.2.04-.3,0-.04,0-.08-.01-.12,0-.08-.02-.15-.03-.23,0-.1-.02-.19-.06-.27-.03-.09-.08-.16-.15-.23-.06-.07-.14-.12-.23-.15-.08-.04-.17-.06-.27-.06-.06,0-.12.02-.19.03-.12.03-.22.09-.31.18-.04.05-.07.1-.11.14-.06.11-.1.23-.1.36h0Z"/>
        <path class="cls-1" d="M36.28,58.22c-.18-4.96-.8-9.84-1.6-14.75-.39-2.4-.82-4.8-1.31-7.18-.34-1.65-.89-3.57-2.95-3.5-3.43.12-4.07,4.89-1.87,6.86,2.82,2.53,6.98.49,8.35-2.55.54-1.21,1.36-3.59-.08-4.52-1.45-.94-2.76.7-3.17,1.95-.9,2.78.8,6.2,3.61,7.07,3.07.94,6.28-1.6,6.71-4.63.19-1.31-.14-3.16-1.53-3.73-1.4-.57-2.26.77-2.57,1.94-.87,3.25.64,7.66,4.73,6.88,4.56-.87,5.05-5.95,5-9.72,0-.53-.67-1.03-1.16-.67-2.67,1.98-4.14,6.06-1.08,8.47,2.61,2.04,6.87-.38,5.64-3.74-.11-.32-.43-.66-.81-.62-3.78.44-4.9,4.87-5.66,7.97-1.14,4.64-1.18,9.21-.99,13.95.05,1.38,2.16,1.15,1.9-.26-.69-3.76-.35-7.85.38-11.58.33-1.69.75-3.4,1.35-5.02.51-1.38,1.38-3.19,3.03-3.39-.27-.21-.54-.41-.81-.62.33.9-.08,1.84-.93,2.28-.98.51-2.07-.05-2.68-.87-1.32-1.8-.14-4.08,1.44-5.25-.39-.22-.78-.45-1.16-.67.03,2.27.12,5.01-1.47,6.83-1.47,1.69-4.37,2.11-5.23-.4-.31-.9-.29-1.93-.09-2.85.09-.43.26-1.47.92-.95.41.32.29,1.44.2,1.85-.43,1.95-2.6,3.69-4.63,2.98-1.62-.57-2.65-2.5-2.4-4.17.08-.51.42-.84.54-1.29-.04-.02-.08-.04-.12-.07-.21-.17-.27-.03-.17.4-.05.18-.08.38-.13.57-.3,1.15-.94,2.34-1.98,2.97-1.6.97-4.6.25-4.03-2.08.08-.33.28-.8.62-.95.8-.36.84.47.95.96.33,1.39.57,2.79.85,4.19,1.17,5.99,2.02,12.04,3.04,18.06.13.77,1.38.59,1.35-.18h0Z"/>
        <path class="cls-1" d="M57.56,50.78c-1.87,3.89-3.28,8.46-2.85,12.81.08.81,1.18.81,1.26,0,.22-2.07.36-4.17.76-6.21.4-2.06,1.01-4.08,1.84-6.01.29-.67-.68-1.27-1.01-.59h0Z"/>
        <path class="cls-1" d="M57.84,59.67c-.05.6-.09,1.19-.14,1.79-.02.29-.06.58-.03.88.02.19.01.42.07.6.05.18.16.34.27.49.24.32.66.43.98.13.12-.12.26-.26.34-.4.1-.18.14-.4.18-.6.08-.35.09-.7.12-1.06.04-.61.08-1.21.12-1.82.03-.5-.46-.97-.95-.95-.55.02-.91.42-.95.95h0Z"/>
        <path class="cls-1" d="M22.97,53.41c.84,2.44,1.42,4.96,1.69,7.53.13,1.22.19,2.46.21,3.68,0,.62,0,1.23-.01,1.85,0,.61-.04,1.14.51,1.52.16.11.37.08.54,0,.58-.3.57-.93.61-1.52.03-.61.02-1.23,0-1.85-.04-1.3-.18-2.6-.39-3.88-.42-2.61-1.14-5.16-2.14-7.61-.25-.61-1.24-.37-1.01.28h0Z"/>
        <path class="cls-1" d="M21.63,61.87c0,.83,0,1.67.01,2.5,0,.42,0,.83,0,1.25,0,.48-.05,1.01.18,1.45.25.47,1.1.53,1.33,0,.13-.3.16-.55.14-.87-.01-.19-.03-.39-.04-.58-.03-.42-.06-.83-.09-1.25-.06-.83-.12-1.67-.18-2.5-.03-.36-.29-.67-.67-.67s-.67.31-.67.67h0Z"/>
        <path class="cls-1" d="M38.23,85.59c.86.32,1.79.49,2.7.5.47,0,1.01,0,1.46-.15.29-.09.61-.21.83-.42.17-.16.38-.38.42-.61.05-.28-.04-.48-.26-.64-.14-.1-.28-.11-.44-.13.07,0,.06,0-.02,0-.1-.02-.19-.03-.29-.04-.23,0-.49.06-.72.1-.19.04-.37.1-.56.14-.11.02-.21.05-.32.07-.05,0-.11.02-.16.03.07,0,.08,0,.02,0-.83.1-1.53.06-2.3-.15-.35-.09-.74.12-.84.48-.11.38.13.71.48.84h0Z"/>
      </g>
      <path class="cls-1" d="M64.59.35c-.91,1.86-1.97,3.63-3.18,5.31-.57.79-1.19,1.56-1.83,2.3-.35.4-.7.79-1.07,1.18-.39.41-.88.84-.99,1.41-.13.7.42,1.32,1.14,1.14.58-.14.98-.62,1.34-1.06.34-.41.68-.82,1-1.24.68-.88,1.33-1.79,1.93-2.73,1.17-1.82,2.15-3.75,2.98-5.74.32-.76-.97-1.3-1.33-.56h0Z"/>
      <path class="cls-1" d="M79.99,13.02c-2.05.86-4.06,1.82-6,2.92-.95.54-1.89,1.12-2.79,1.74-.45.31-.9.63-1.33.96-.53.4-1.05.71-1.28,1.36-.26.73.51,1.22,1.13,1.13.55-.08.97-.55,1.38-.89.41-.33.83-.66,1.25-.98.86-.64,1.72-1.27,2.6-1.87,1.77-1.2,3.61-2.26,5.54-3.18.65-.31.18-1.47-.5-1.18h0Z"/>
      <path class="cls-1" d="M73.16,12.82c-1.58.63-3.08,1.4-4.5,2.33-.71.47-1.4.98-2.07,1.51-.65.53-1.48,1.11-1.91,1.84-.42.72.45,1.71,1.2,1.2.68-.47,1.19-1.2,1.78-1.78.58-.56,1.19-1.1,1.82-1.6,1.26-.99,2.64-1.83,4.08-2.53.53-.26.15-1.2-.41-.97h0Z"/>
      <path class="cls-1" d="M65.43,9.5c-.31.35-.62.69-.93,1.04-.15.17-.31.34-.46.51-.12.13-.22.27-.33.41-.04.05-.08.1-.11.15-.1.14-.14.35-.14.52,0,.21.09.44.24.59.15.14.37.27.59.24.18-.02.34-.04.5-.13.11-.06.19-.15.28-.24.08-.08.16-.16.23-.24.15-.18.31-.36.46-.54.3-.36.6-.71.91-1.07.15-.18.25-.37.25-.61,0-.21-.09-.47-.25-.61-.17-.15-.38-.27-.62-.25-.22.01-.46.08-.61.25h0Z"/>
      <path class="cls-1" d="M.29,16.94c3.02,1.96,5.75,4.39,8.12,7.1,1.16,1.32,2.21,2.74,3.15,4.22.48.75.94,1.52,1.38,2.29.44.77.8,1.66,1.52,2.22.44.34,1.05.09,1.07-.48.02-.9-.45-1.71-.86-2.48-.44-.83-.93-1.63-1.45-2.42-1.06-1.59-2.24-3.09-3.52-4.51-2.55-2.81-5.53-5.14-8.82-7.02-.7-.4-1.24.66-.59,1.08H.29Z"/>
      <path class="cls-1" d="M9.38,4.19c2.04,1.49,3.93,3.17,5.65,5.02.86.92,1.67,1.88,2.43,2.89.38.49.75.99,1.11,1.5.37.52.69,1.11,1.14,1.57.18.19.46.23.7.16.12-.03.22-.09.31-.19.15-.19.26-.46.16-.7-.48-1.15-1.44-2.22-2.22-3.18-.83-1.02-1.72-2-2.65-2.93-1.85-1.85-3.87-3.5-6.04-4.96-.47-.32-1.06.48-.59.82h0Z"/>
      <path class="cls-1" d="M12.07,12.28c.41.77.82,1.55,1.24,2.32.2.38.41.76.61,1.14.23.43.44.99.87,1.25.48.29,1.02-.14,1.03-.64,0-.3-.16-.55-.3-.8-.1-.19-.21-.37-.32-.56-.22-.38-.45-.77-.67-1.15-.44-.76-.88-1.51-1.33-2.27-.18-.3-.62-.41-.92-.21-.31.21-.39.59-.21.92h0Z"/>
      <path class="cls-1" d="M10.44,16.39c.17.54.34,1.08.51,1.62.08.27.17.54.26.81.04.13.08.27.13.4.04.1.09.2.14.29.08.12.16.2.29.28.31.21.77-.03.83-.38.08-.4-.15-.75-.32-1.09-.13-.25-.26-.5-.39-.75-.26-.5-.52-1-.78-1.5-.09-.17-.32-.22-.48-.14-.17.08-.26.27-.2.45h0Z"/>
    </g>
  </g>
</svg>