<?xml version="1.0" encoding="UTF-8"?>
<svg id="Layer_2" data-name="Layer 2" xmlns="http://www.w3.org/2000/svg" viewBox="0 0 116.29 101.22">
  <defs>
    <style>
      .cls-1 {
        fill: #ff682c;
      }
    </style>
  </defs>
  <g id="Layer_1-2" data-name="Layer 1">
    <g>
      <g>
        <path class="cls-1" d="M94.6,92.09c-11.69,0-27.06-2.89-43.44-8.65C18.8,72.07-3.47,54.42.45,43.26c2.44-6.95,14.69-9.73,32.76-7.44l2.21.28-1.63,1.53c-1.44,1.35-2.77,2.82-3.94,4.37l-.32.42h-.53c-8.7-.05-14.44,1.9-15.67,5.38-2.42,6.89,12.99,20.61,39.79,30.03,26.8,9.42,47.4,8.37,49.83,1.47,1.22-3.48-2.01-8.58-8.86-14l-.41-.33v-.53c.06-1.98-.05-3.96-.32-5.87l-.31-2.21,1.9,1.17c15.53,9.51,23.34,19.35,20.9,26.3-1.94,5.51-9.85,8.26-21.25,8.26ZM21.58,37.13c-10.56,0-17.59,2.41-19.15,6.83-3.41,9.71,19.22,26.89,49.42,37.5,30.2,10.62,58.6,11.39,62.02,1.67,1.97-5.61-4.96-14.2-18.18-22.67.09,1.16.13,2.33.12,3.5,7.42,5.98,10.67,11.66,9.13,16.02-3.58,10.18-29.51,7.89-52.5-.19C29.43,71.72,7.78,57.27,11.36,47.1c1.53-4.36,7.61-6.77,17.14-6.78.72-.92,1.49-1.81,2.29-2.66-3.3-.35-6.39-.53-9.22-.53Z"/>
        <g>
          <path class="cls-1" d="M87.8,86.78h-.52c-9.87-.07-22.25-2.55-34.84-6.98-12.59-4.43-23.79-10.24-31.54-16.36l-.41-.33v-.53c.11-3.94.83-7.82,2.13-11.54,1.31-3.72,3.18-7.19,5.56-10.33,1.25-1.64,2.66-3.2,4.18-4.63h0c10.3-9.67,24.97-12.77,38.28-8.09,13.37,4.7,22.88,16.35,24.82,30.41.25,1.81.37,3.66.35,5.49h0s-.01.59-.01.59c-.1,3.94-.81,7.82-2.12,11.54-1.31,3.72-3.18,7.19-5.56,10.33l-.32.42ZM22.61,62.12c7.55,5.87,18.36,11.43,30.52,15.7,12.16,4.27,24.07,6.7,33.63,6.85,2.1-2.85,3.76-5.98,4.94-9.33,1.17-3.33,1.84-6.8,1.98-10.32v-.58c.06-1.91-.04-3.84-.3-5.73-1.83-13.27-10.81-24.28-23.43-28.72-12.57-4.42-26.42-1.49-36.15,7.64-1.44,1.35-2.76,2.82-3.94,4.37-2.25,2.96-4.02,6.24-5.25,9.75-1.18,3.35-1.84,6.83-1.99,10.37Z"/>
          <path class="cls-1" d="M58.18,101.22c-4.19,0-8.42-.7-12.52-2.15-13.31-4.68-22.81-16.27-24.8-30.26l-.31-2.21,1.9,1.17c8.4,5.15,18.57,9.88,29.4,13.69h0c10.84,3.81,21.73,6.48,31.5,7.72l2.21.28-1.63,1.53c-7.13,6.69-16.35,10.23-25.76,10.23ZM23.33,70.75c2.52,12.2,11.18,22.18,23.03,26.35,11.85,4.17,24.85,1.8,34.45-6.14-9.31-1.37-19.51-3.95-29.65-7.51h0c-10.14-3.56-19.71-7.93-27.83-12.69Z"/>
        </g>
        <path class="cls-1" d="M7.41,45.32c-.18.49-.36.99-.54,1.48-.09.24-.19.47-.26.71-.09.29-.12.57-.13.87,0,.19.14.36.31.41.2.05.37-.04.48-.2.08-.11.17-.21.23-.33.07-.14.14-.3.2-.45.09-.24.16-.48.24-.72.17-.5.33-.99.5-1.49.09-.27-.1-.6-.38-.67-.31-.07-.56.09-.67.38h0Z"/>
        <path class="cls-1" d="M9.4,56.01c1.2,1.65,2.56,3.16,4.11,4.48.76.65,1.56,1.27,2.39,1.83.85.58,1.7,1.14,2.71,1.38.34.08.65-.36.36-.62-.73-.65-1.58-1.1-2.39-1.63-.8-.53-1.57-1.1-2.3-1.72-1.48-1.26-2.82-2.68-3.98-4.24-.39-.53-1.29-.02-.89.52h0Z"/>
        <path class="cls-1" d="M109.25,77.28c-1.44-3.56-3.37-6.76-5.95-9.63-1.28-1.42-2.68-2.74-4.17-3.94-.73-.59-1.48-1.17-2.27-1.68-.71-.46-1.67-1.28-2.56-1.18-.48.05-.75.48-.53.93.36.75,1.38,1.12,2.05,1.55.77.49,1.54,1,2.28,1.53,1.5,1.09,2.88,2.33,4.17,3.66,2.54,2.64,4.77,5.73,6.39,9.01.16.33.74.09.6-.25h0Z"/>
        <path class="cls-1" d="M109.22,82.25c-.05.08-.11.16-.17.24.04-.05.07-.09.11-.14-.21.27-.45.51-.72.72.05-.04.1-.08.15-.11-.15.12-.31.23-.47.35.05-.04.1-.08.15-.11-.14.1-.28.2-.43.29-.11.07-.2.16-.29.24-.03.03-.15.11,0,0-.04.02-.07.05-.1.08-.19.13-.32.36-.25.6.07.22.27.4.51.39.11,0,.23,0,.34-.02.1-.01.22-.02.32-.05.1-.03.2-.08.3-.13.11-.05.21-.1.31-.15.15-.08.28-.19.42-.3.41-.33.76-.74,1.03-1.19.19-.31.08-.78-.25-.95-.35-.18-.74-.08-.95.25h0Z"/>
        <path class="cls-1" d="M103.91,87.01c-3.59.52-7.23.9-10.86,1.1-3.55.19-7.09-.13-10.63,0-.32.01-.42.5-.08.58,3.5.81,7.35.72,10.92.61,3.69-.11,7.3-.57,10.9-1.38.61-.14.34-1-.25-.92h0Z"/>
        <path class="cls-1" d="M74.62,30.94c-2.03.37-4.05.8-6.06,1.26-1.54.35-3.54.5-4.87,1.44-1.98,1.39-.74,3.96,1.06,4.83,1.45.71,3.13.52,4.63,1.04.91.32,2.12,1.08,2.08,2.19-.03.81-.68,1.24-1.35,1.49-1.69.62-3.97.33-5.31,1.74-1.84,1.95.35,4.1,2.13,4.95,1.2.58,2.69.87,3.6,1.92,1.66,1.9-.66,3.27-2.36,3.55-1.64.27-3.41.09-5.05-.06-2.23-.2-4.43-.59-6.62-1.04-3.84-.8-7.63-1.83-11.48-2.63-7.32-1.52-15.57-1.97-22.37,1.65-.6.32-.07,1.23.53.91,14.26-7.65,29.42,2.98,44.15,2.16,1.86-.1,4.61-.85,4.67-3.15.08-2.67-3.13-3.28-4.94-4.27-1.36-.75-2.88-2.68-.95-3.73.92-.5,2.05-.58,3.05-.8,1.57-.35,3.49-1.14,3.16-3.12-.65-3.84-6.22-2.06-8.18-4.29-2.31-2.63,1.96-3.39,3.65-3.79,2.35-.55,4.73-.96,7.11-1.33.6-.09.35-1.03-.25-.92h0Z"/>
        <path class="cls-1" d="M49.19,28.68c-1.5,3.03-3.8,5.72-6.68,7.51-1.57.97-3.31,1.66-5.11,2.06-.94.21-1.9.33-2.86.38-.83.04-1.83-.19-2.62.05-.23.07-.29.4-.07.52.76.41,1.85.28,2.69.25.98-.04,1.97-.16,2.93-.37,1.92-.41,3.78-1.15,5.46-2.19,3.06-1.89,5.39-4.69,6.66-8.05.08-.23-.28-.38-.39-.16h0Z"/>
        <path class="cls-1" d="M94.29,60.19c-1.35.11-2.72.94-3.85,1.65-1.2.75-2.3,1.66-3.12,2.82-.78,1.12-1.3,2.47-1.32,3.84-.02,1.46.64,2.59,1.34,3.83.42.74.8,1.56.76,2.43-.06,1.09-.78,1.55-1.64,1.99-.84.43-1.74.95-1.86,1.98-.31,2.7,3.46,3.55,5.38,2.76.3-.12.26-.53-.08-.56-1.45-.15-3.03.57-4.23-.67-.7-.72-.78-1.74-.02-2.44.36-.34.87-.53,1.31-.76.7-.37,1.46-.83,1.77-1.59.4-.97.12-2.04-.3-2.95-.6-1.28-1.48-2.38-1.52-3.86-.04-1.37.52-2.7,1.34-3.78.81-1.08,1.91-1.9,3.06-2.59,1.02-.6,2.25-1.03,3.1-1.86.08-.08.02-.25-.1-.24h0Z"/>
        <path class="cls-1" d="M75.7,72.52c-1.32,1.01-2.17,2.51-2.3,4.17-.07.79.04,1.64.34,2.38.31.78.74,1.59,1.55,1.93.24.1.63-.07.51-.39-.13-.32-.26-.6-.44-.9-.18-.29-.35-.58-.48-.9-.26-.64-.42-1.31-.42-2.01.01-1.41.69-2.72,1.76-3.63.36-.31-.13-.97-.52-.67h0Z"/>
        <path class="cls-1" d="M72.35,77.01c-.28.58-.43,1.22-.44,1.87,0,.32.02.66.11.97.1.34.28.6.51.86.2.23.54-.02.48-.28-.06-.27-.09-.55-.16-.82-.06-.25-.13-.5-.15-.76-.04-.55.03-1.08.23-1.6.13-.34-.43-.57-.58-.25h0Z"/>
        <path class="cls-1" d="M71.95,88.45c-1.65.33-3.29.66-4.94.99-1.07.21-2.46.3-3.3,1.11-1.45,1.41.26,2.59,1.47,3.15.38.17,1.12.39.77,1-.27.47-1.45.52-1.9.59-1.66.27-3.32.53-4.99.8-1.59.26-3.18.5-4.77.77-.86.15-1.73.3-2.59.45-.76.13-1.56.13-2.2.6-.25.18-.23.58.09.67.68.21,1.29.02,1.98-.1.79-.13,1.59-.26,2.38-.39,1.66-.27,3.31-.57,4.97-.86,1.66-.29,3.31-.58,4.97-.87.97-.17,2.28-.26,2.94-1.11,1.2-1.57-.97-2.33-1.95-2.92-1.72-1.03,1.45-1.79,2.15-1.98,1.69-.46,3.37-.91,5.06-1.36.34-.09.19-.59-.14-.52h0Z"/>
        <path class="cls-1" d="M30.17,77.08c1.65,1.01,3.33,1.95,5.09,2.77,1.72.8,3.49,1.63,5.38,1.93.31.05.54-.36.23-.54-1.64-.94-3.45-1.55-5.17-2.33-1.73-.78-3.44-1.62-5.11-2.54-.46-.25-.86.43-.41.71h0Z"/>
        <path class="cls-1" d="M33.34,80.47c.65.29,1.3.57,1.95.86.67.29,1.35.57,2.09.62.25.02.42-.35.21-.52-.57-.46-1.25-.73-1.94-.98-.67-.24-1.34-.48-2.01-.72-.42-.15-.73.55-.31.73h0Z"/>
        <path class="cls-1" d="M35.1,82.4c.2.12.39.25.61.34.05.02.09.04.14.05.05.01.1.02.15.02.11.02.22.03.32.05.15.02.29-.03.36-.18.06-.14,0-.3-.12-.38-.2-.12-.4-.25-.62-.31-.1-.03-.2-.03-.3-.05-.11-.02-.22-.03-.33-.05-.14-.02-.26.02-.32.16-.05.12,0,.27.11.34h0Z"/>
        <path class="cls-1" d="M49.82,25.4c3.8-.84,7.82-.8,11.65-.19,3.83.61,7.49,1.92,11.3,2.57.38.06.7-.49.28-.67-3.74-1.68-7.81-2.7-11.87-3.26-3.91-.54-7.8-.43-11.55.9-.42.15-.25.76.18.66h0Z"/>
        <path class="cls-1" d="M28.57,32.09c-4.39-1.24-8.91-1.57-13.43-.99-2.18.28-4.35.72-6.45,1.39-2.03.65-4.19,1.41-5.83,2.82-.43.37.04,1,.52.89,1.98-.45,3.85-1.38,5.78-1.99,2.03-.64,4.1-1.14,6.2-1.45,4.28-.63,8.73-.59,13,.07.48.07.7-.61.21-.74h0Z"/>
        <path class="cls-1" d="M7.19,64.91c1.97,1.29,3.94,2.58,5.91,3.87.95.62,1.93,1.21,2.9,1.81.88.55,1.98,1.46,3.07,1.37.33-.03.52-.42.39-.7-.44-1-1.82-1.55-2.71-2.06-.97-.56-1.94-1.14-2.93-1.67-2.06-1.12-4.13-2.25-6.19-3.37-.44-.24-.86.49-.44.76h0Z"/>
      </g>
      <path class="cls-1" d="M40.13.35c-.69,4.59-1.78,9.11-3.17,13.54-.67,2.14-1.44,4.25-2.27,6.34-.78,1.98-2.29,4.28-2.38,6.44-.03.62.75.85,1.16.48,1.57-1.4,2.24-4.02,2.97-5.95.85-2.25,1.58-4.54,2.21-6.86,1.24-4.54,2-9.2,2.44-13.88.05-.55-.88-.68-.97-.13h0Z"/>
      <path class="cls-1" d="M63.26,5.45c-1.21,1.7-2.34,3.46-3.38,5.27-.51.89-1,1.79-1.42,2.73-.21.48-.39.98-.56,1.47-.16.45-.41,1.04-.08,1.47.11.14.27.29.47.27.53-.07.75-.4,1-.84.25-.44.5-.89.73-1.35.48-.95.9-1.92,1.36-2.88.91-1.88,1.91-3.72,2.99-5.5.43-.72-.64-1.31-1.11-.65h0Z"/>
      <path class="cls-1" d="M107.15,38.03c-1.31.81-2.68,1.52-4.11,2.08-.71.28-1.44.53-2.17.75-.38.11-.76.21-1.15.31-.52.14-.91.31-1.25.75-.42.54.08,1.18.56,1.39.74.31,1.82-.27,2.51-.54.77-.3,1.53-.64,2.27-1,1.43-.7,2.78-1.54,4.06-2.48.32-.23.48-.63.26-1-.2-.33-.66-.47-1-.26h0Z"/>
      <path class="cls-1" d="M112.15,52.07c-1.6-.26-3.22-.45-4.84-.54-.79-.04-1.59-.06-2.38-.03-.4.02-.79.04-1.19.07-.44.03-.94.03-1.36.19-1.06.41-.87,1.82.26,1.94.4.04.83-.08,1.23-.13.38-.05.76-.09,1.14-.13.76-.07,1.53-.15,2.29-.19,1.56-.09,3.11-.06,4.66.09.72.07.89-1.16.17-1.27h0Z"/>
    </g>
  </g>
</svg>